{
.appVersion = "3151";
.formatVersion = 3;
axes = (
{
name = Weight;
tag = wght;
}
);
customParameters = (
{
name = fsType;
value = (
);
},
{
name = "Use Typo Metrics";
value = 1;
},
{
name = "Axis Mappings";
value = {
wght = {
300 = 90;
400 = 108;
500 = 132;
700 = 162;
800 = 180;
};
};
},
{
name = "Variable Font Origin";
value = "4683CC84-822E-4D29-9A51-72FC3DB48604";
}
);
date = "2024-04-04 18:14:42 +0000";
familyName = "Funnel Sans";
featurePrefixes = (
{
automatic = 1;
code = "languagesystem DFLT dflt;

languagesystem latn dflt;
languagesystem latn AZE;
languagesystem latn CRT;
languagesystem latn KAZ;
languagesystem latn TAT;
languagesystem latn TRK;
languagesystem latn ROM;
languagesystem latn MOL;
";
name = Languagesystems;
}
);
features = (
{
automatic = 1;
code = "feature locl;
feature ss01;
feature ss02;
feature ss03;
";
tag = aalt;
},
{
automatic = 1;
code = "lookup ccmp_Other_1 {
	@CombiningTopAccents = [acutecomb brevecomb caroncomb circumflexcomb commaturnedabovecomb dieresiscomb dotaccentcomb gravecomb hungarumlautcomb macroncomb ringcomb tildecomb];
	@CombiningNonTopAccents = [cedillacomb ogonekcomb];
	sub [i j]' @CombiningTopAccents by [idotless jdotless];
	sub [i j]' @CombiningNonTopAccents @CombiningTopAccents by [idotless jdotless];
} ccmp_Other_1;
";
tag = ccmp;
},
{
automatic = 1;
code = "lookup locl_latn_0 {
	script latn;
	language AZE;
	sub i by idotaccent;
	language CRT;
	sub i by idotaccent;
	language KAZ;
	sub i by idotaccent;
	language TAT;
	sub i by idotaccent;
	language TRK;
	sub i by idotaccent;
} locl_latn_0;

lookup locl_latn_1 {
	script latn;
	language ROM;
	sub Scedilla by Scommaaccent;
	sub scedilla by scommaaccent;
	language MOL;
	sub Scedilla by Scommaaccent;
	sub scedilla by scommaaccent;
} locl_latn_1;
";
tag = locl;
},
{
automatic = 1;
code = "sub Adieresis by Adieresis.ss01;
sub Cdotaccent by Cdotaccent.ss01;
sub Edieresis by Edieresis.ss01;
sub Edotaccent by Edotaccent.ss01;
sub Gdotaccent by Gdotaccent.ss01;

glyphs = (
{
color = 9;
glyphname = A;
kernLeft = A;
kernRight = A;
lastChange = "2024-04-18 12:14:26 +0000";
layers = (
{
anchors = (
{
name = bottom;
pos = (375,0);
},
{
name = ogonek;
pos = (744,0);
},
{
name = top;
pos = (376,810);
}
);
background = {
shapes = (
{
closed = 1;
nodes = (
(100,0,l),
(198,256,l),
(519,256,l),
(618,0,l),
(714,0,l),
(403,810,l),
(319,810,l),
(6,0,l)
);
},
{
closed = 1;
nodes = (
(362,691,l),
(491,340,l),
(229,340,l)
);
}
);
};
layerId = "4683CC84-822E-4D29-9A51-72FC3DB48604";
shapes = (
{
closed = 1;
nodes = (
(100,0,l),
(196,256,l),
(553,256,l),
(648,0,l),
(744,0,l),
(430,810,l),
(322,810,l),
(6,0,l)
);
},
{
closed = 1;
nodes = (
(373,726,l),
(377,726,l),
(522,340,l),
(227,340,l)
);
}
);
userData = {
com.schriftgestaltung.Glyphs.category = Letter;
com.schriftgestaltung.Glyphs.script = latin;
com.schriftgestaltung.Glyphs.subCategory = Uppercase;
};
width = 750;
},
{
anchors = (
{
name = bottom;
pos = (405,0);
},
{
name = ogonek;
pos = (804,0);
},
{
name = top;
pos = (408,810);
}
);
background = {
shapes = (
{
closed = 1;
nodes = (
(130,0,l),
(228,256,l),
(549,256,l),
(648,0,l),
(744,0,l),
(433,810,l),
(349,810,l),
(36,0,l)
);
},
{
closed = 1;
nodes = (
(392,691,l),
(521,340,l),
(259,340,l)
);
}
);
};
layerId = "FB8C5FF2-3B42-4CDF-AA26-B13980DDC748";
shapes = (
{
closed = 1;
nodes = (
(192,0,l),
(261,184,l),
(549,184,l),
(612,0,l),
(804,0,l),
(500,810,l),
(315,810,l),
(6,0,l)
);
},
{
closed = 1;
nodes = (
(409,594,l),
(413,594,l),
(499,340,l),
(316,340,l)
);
}
);
userData = {
com.schriftgestaltung.Glyphs.category = Letter;
com.schriftgestaltung.Glyphs.script = latin;
com.schriftgestaltung.Glyphs.subCategory = Uppercase;
};
width = 810;
}
);
unicode = 65;
},
{
color = 9;
glyphname = B;
kernLeft = B;
kernRight = B;
lastChange = "2024-04-18 11:49:23 +0000";
layers = (
{
anchors = (
{
name = bottom;
pos = (385,0);
},
{
name = center;
pos = (385,405);
},
{
name = top;
pos = (385,810);
}
);
background = {
shapes = (
{
closed = 1;
nodes = (
(110,0,l),
(385,0,ls),
(555,0,o),
(664,80,o),
(664,228,cs),
(664,349,o),
(589,402,o),
(484,419,c),
(484,425,l),
(583,443,o),
(637,509,o),
(637,603,cs),
(637,747,o),
(536,801,o),
(336,801,cs),
(110,801,l)
);
},
{
closed = 1;
nodes = (
(203,721,l),
(341,721,ls),
(480,721,o),
(541,683,o),
(541,593,cs),
(541,504,o),
(495,457,o),
(356,457,cs),
(203,457,l)
);
},
{
closed = 1;
nodes = (
(361,379,l),
(510,379,o),
(565,325,o),
(565,234,cs),
(565,140,o),
(511,79,o),
(369,79,cs),
(203,79,l),
(203,379,l)
);
}
);
};
layerId = "4683CC84-822E-4D29-9A51-72FC3DB48604";
name = "Light alt";
shapes = (
{
closed = 1;
nodes = (
(469,0,ls),
(605,0,o),
(710,88,o),
(710,227,cs),
(710,359,o),
(615,421,o),
(538,429,c),
(538,433,l),
(609,448,o),
(674,509,o),
(674,603,cs),
(674,731,o),
(580,810,o),
(453,810,cs),
(114,810,l),
(114,0,l)
);
},
{
closed = 1;
nodes = (
(206,380,l),
(450,380,ls),
(550,380,o),
(618,330,o),
(618,232,cs),
(618,134,o),
(549,82,o),
(449,82,cs),
(206,82,l)
);
},
{
closed = 1;
nodes = (
(206,728,l),
(442,728,ls),
(525,728,o),
(582,680,o),
(582,594,cs),
(582,508,o),
(525,460,o),
(442,460,cs),
(206,460,l)
);
}
);
userData = {
com.schriftgestaltung.Glyphs.category = Letter;
com.schriftgestaltung.Glyphs.script = latin;
com.schriftgestaltung.Glyphs.subCategory = Uppercase;
};
width = 770;
},
{
anchors = (
{
name = bottom;
pos = (395,0);
},
{
name = center;
pos = (395,405);
},
{
name = top;
pos = (395,810);
}
);
background = {
shapes = (
{
closed = 1;
nodes = (
(110,0,l),
(385,0,ls),
(555,0,o),
(664,80,o),
(664,228,cs),
(664,349,o),
(589,402,o),
(484,419,c),
(484,425,l),
(583,443,o),
(637,509,o),
(637,603,cs),
(637,747,o),
(536,801,o),
(336,801,cs),
(110,801,l)
);
},
{
closed = 1;
nodes = (
(203,721,l),
(341,721,ls),
(480,721,o),
(541,683,o),
(541,593,cs),
(541,504,o),
(495,457,o),
(356,457,cs),
(203,457,l)
);
},
{
closed = 1;
nodes = (
(361,379,l),
(510,379,o),
(565,325,o),
(565,234,cs),
(565,140,o),
(511,79,o),
(369,79,cs),
(203,79,l),
(203,379,l)
);
}
);
};
guides = (
{
pos = (447,164);
},
{
angle = 180;
pos = (323,646);
},
{
pos = (323,500);
},
{
angle = 180;
pos = (327,340);
},
{
angle = 90;
pos = (252,252);
}
);
layerId = "FB8C5FF2-3B42-4CDF-AA26-B13980DDC748";
name = "Bold alt";
shapes = (
{
closed = 1;
nodes = (
(484,0,ls),
(633,0,o),
(742,93,o),
(742,235,cs),
(742,340,o),
(681,409,o),
(601,434,c),
(601,438,l),
(663,464,o),
(706,524,o),
(706,599,cs),
(706,727,o),
(606,810,o),
(468,810,cs),
(90,810,l),
(90,0,l)
);
},
{
closed = 1;
nodes = (
(274,346,l),
(459,346,ls),
(519,346,o),
(558,314,o),
(558,256,cs),
(558,197,o),
(518,164,o),
(458,164,cs),
(274,164,l)
);
},
{
closed = 1;
nodes = (
(274,646,l),
(445,646,ls),
(492,646,o),
(522,618,o),
(522,570,cs),
(522,522,o),
(492,494,o),
(445,494,cs),
(274,494,l)
);
}
);
userData = {
com.schriftgestaltung.Glyphs.category = Letter;
com.schriftgestaltung.Glyphs.script = latin;
com.schriftgestaltung.Glyphs.subCategory = Uppercase;
};
width = 790;
}
);
unicode = 66;
},
{
color = 9;
glyphname = C;
kernLeft = C;
kernRight = C;
lastChange = "2024-04-18 12:16:04 +0000";
layers = (
{
anchors = (
{
name = bottom;
pos = (434,0);
},
{
name = top;
pos = (434,810);
}
);
background = {
shapes = (
{
closed = 1;
nodes = (
(522,730,o),
(584,710,o),
(635,687,c),
(672,766,l),
(611,796,o),
(534,812,o),
(453,812,cs),
(206,812,o),
(68,643,o),
(68,401,cs),
(68,149,o),
(191,-11,o),
(436,-11,cs),
(524,-11,o),
(584,-1,o),
(642,21,c),
(642,102,l),
(583,84,o),
(520,71,o),
(449,71,cs),
(261,71,o),
(166,199,o),
(166,401,cs),
(166,603,o),
(275,730,o),
(452,730,cs)
);
}
);
};
layerId = "4683CC84-822E-4D29-9A51-72FC3DB48604";
shapes = (
{
closed = 1;
nodes = (
(602,-12,o),
(723,85,o),
(750,240,c),
(654,240,l),
(637,138,o),
(554,72,o),
(434,72,cs),
(267,72,o),
(160,204,o),
(160,405,cs),
(160,606,o),
(267,738,o),
(434,738,cs),
(554,738,o),
(637,672,o),
(654,570,c),
(750,570,l),
(723,725,o),
(602,822,o),
(434,822,cs),
(215,822,o),
(66,653,o),
(66,405,cs),
(66,157,o),
(215,-12,o),
(434,-12,cs)
);
}
);
userData = {
com.schriftgestaltung.Glyphs.category = Letter;
com.schriftgestaltung.Glyphs.script = latin;
com.schriftgestaltung.Glyphs.subCategory = Uppercase;
};
width = 790;
},
{
anchors = (
{
name = bottom;
pos = (433,0);
},
{
name = top;
pos = (433,810);
}
);
layerId = "FB8C5FF2-3B42-4CDF-AA26-B13980DDC748";
shapes = (
{
closed = 1;
nodes = (
(619,-16,o),
(757,101,o),
(780,279,c),
(588,279,l),
(578,203,o),
(516,150,o),
(433,150,cs),
(315,150,o),
(238,250,o),
(238,403,cs),
(238,556,o),
(315,656,o),
(433,656,cs),
(516,656,o),
(578,603,o),
(588,527,c),
(780,527,l),
(757,705,o),
(619,822,o),
(433,822,cs),
(207,822,o),
(54,653,o),
(54,403,cs),
(54,153,o),
(207,-16,o),
(433,-16,cs)
);
}
);
userData = {
com.schriftgestaltung.Glyphs.category = Letter;
com.schriftgestaltung.Glyphs.script = latin;
com.schriftgestaltung.Glyphs.subCategory = Uppercase;
};
width = 800;
}
);
unicode = 67;
},
{
color = 9;
glyphname = D;
kernLeft = B;
kernRight = D;
lastChange = "2024-04-18 11:50:01 +0000";
layers = (
{
anchors = (
{
name = bottom;
pos = (388,0);
},
{
name = center;
pos = (160,405);
},
{
name = top;
pos = (388,810);
}
);
background = {
shapes = (
{
closed = 1;
nodes = (
(745,665,o),
(595,801,o),
(351,801,cs),
(110,801,l),
(110,0,l),
(327,0,ls),
(593,0,o),
(745,138,o),
(745,408,cs)
);
},
{
closed = 1;
nodes = (
(647,189,o),
(537,80,o),
(316,80,cs),
(203,80,l),
(203,721,l),
(337,721,ls),
(537,721,o),
(647,620,o),
(647,405,cs)
);
}
);
};
layerId = "4683CC84-822E-4D29-9A51-72FC3DB48604";
shapes = (
{
closed = 1;
nodes = (
(357,0,ls),
(600,0,o),
(756,157,o),
(756,405,cs),
(756,655,o),
(601,810,o),
(357,810,cs),
(114,810,l),
(114,0,l)
);
},
{
closed = 1;
nodes = (
(206,728,l),
(357,728,ls),
(555,728,o),
(662,600,o),
(662,405,cs),
(662,211,o),
(555,82,o),
(357,82,cs),
(206,82,l)
);
}
);
userData = {
com.schriftgestaltung.Glyphs.category = Letter;
com.schriftgestaltung.Glyphs.script = latin;
com.schriftgestaltung.Glyphs.subCategory = Uppercase;
};
width = 810;
},
{
anchors = (
{
name = bottom;
pos = (346,0);
},
{
name = center;
pos = (182,405);
},
{
name = top;
pos = (346,810);
}
);
background = {
shapes = (
{
closed = 1;
nodes = (
(625,-12,o),
(786,150,o),
(786,405,cs),
(786,662,o),
(626,822,o),
(405,822,cs),
(185,822,o),
(24,660,o),
(24,405,cs),
(24,151,o),
(185,-12,o),
(405,-12,cs)
);
},
{
closed = 1;
nodes = (
(286,152,o),
(208,252,o),
(208,405,cs),
(208,559,o),
(286,658,o),
(405,658,cs),
(524,658,o),
(602,559,o),
(602,405,cs),
(602,252,o),
(524,152,o),
(405,152,cs)
);
}
);
};
layerId = "FB8C5FF2-3B42-4CDF-AA26-B13980DDC748";
shapes = (
{
closed = 1;
nodes = (
(385,0,ls),
(625,0,o),
(786,157,o),
(786,405,cs),
(786,655,o),
(626,810,o),
(385,810,cs),
(90,810,l),
(90,0,l)
);
},
{
closed = 1;
nodes = (
(274,650,l),
(385,650,ls),
(524,650,o),
(602,552,o),
(602,405,cs),
(602,259,o),
(524,160,o),
(385,160,cs),
(274,160,l)
);
}
);
userData = {
com.schriftgestaltung.Glyphs.category = Letter;
com.schriftgestaltung.Glyphs.script = latin;
com.schriftgestaltung.Glyphs.subCategory = Uppercase;
};
width = 840;
}
);
unicode = 68;
},
{
color = 9;
glyphname = E;
kernLeft = B;
kernRight = E;
lastChange = "2024-04-18 11:51:26 +0000";
layers = (
{
anchors = (
{
name = bottom;
pos = (367,0);
},
{
name = ogonek;
pos = (620,0);
},
{
name = top;
pos = (367,810);
},
{
name = topleft;
pos = (0,810);
}
);
background = {
shapes = (
{
closed = 1;
nodes = (
(560,82,l),
(200,82,l),
(200,380,l),
(540,380,l),
(540,460,l),
(200,460,l),
(200,728,l),
(560,728,l),
(560,810,l),
(108,810,l),
(108,0,l),
(560,0,l)
);
}
);
};
layerId = "4683CC84-822E-4D29-9A51-72FC3DB48604";
shapes = (
{
closed = 1;
nodes = (
(620,82,l),
(206,82,l),
(206,380,l),
(600,380,l),
(600,460,l),
(206,460,l),
(206,728,l),
(620,728,l),
(620,810,l),
(114,810,l),
(114,0,l),
(620,0,l)
);
}
);
userData = {
com.schriftgestaltung.Glyphs.category = Letter;
com.schriftgestaltung.Glyphs.script = latin;
com.schriftgestaltung.Glyphs.subCategory = Uppercase;
};
width = 680;
},
{
anchors = (
{
name = bottom;
pos = (365,0);
},
{
name = ogonek;
pos = (640,0);
},
{
name = top;
pos = (365,810);
},
{
name = topleft;
pos = (0,810);
}
);
background = {
shapes = (
{
closed = 1;
nodes = (
(560,82,l),
(200,82,l),
(200,380,l),
(540,380,l),
(540,460,l),
(200,460,l),
(200,728,l),
(560,728,l),
(560,810,l),
(108,810,l),
(108,0,l),
(560,0,l)
);
}
);
};
layerId = "FB8C5FF2-3B42-4CDF-AA26-B13980DDC748";
shapes = (
{
closed = 1;
nodes = (
(640,164,l),
(274,164,l),
(274,340,l),
(608,340,l),
(608,500,l),
(274,500,l),
(274,646,l),
(640,646,l),
(640,810,l),
(90,810,l),
(90,0,l),
(640,0,l)
);
}
);
userData = {
com.schriftgestaltung.Glyphs.category = Letter;
com.schriftgestaltung.Glyphs.script = latin;
com.schriftgestaltung.Glyphs.subCategory = Uppercase;
};
width = 700;
}
);
unicode = 69;
},
{
color = 9;
glyphname = F;
kernLeft = B;
kernRight = F;
lastChange = "2024-04-18 11:51:31 +0000";
layers = (
{
anchors = (
{
name = bottom;
pos = (320,0);
},
{
name = top;
pos = (320,810);
}
);
background = {
shapes = (
{
closed = 1;
nodes = (
(200,367,l),
(529,367,l),
(529,449,l),
(200,449,l),
(200,728,l),
(550,728,l),
(550,810,l),
(108,810,l),
(108,0,l),
(200,0,l)
);
}
);
};
layerId = "4683CC84-822E-4D29-9A51-72FC3DB48604";
shapes = (
{
closed = 1;
nodes = (
(206,367,l),
(589,367,l),
(589,449,l),
(206,449,l),
(206,728,l),
(610,728,l),
(610,810,l),
(114,810,l),
(114,0,l),
(206,0,l)
);
}
);
userData = {
com.schriftgestaltung.Glyphs.category = Letter;
com.schriftgestaltung.Glyphs.script = latin;
com.schriftgestaltung.Glyphs.subCategory = Uppercase;
};
width = 640;
},
{
anchors = (
{
name = bottom;
pos = (330,0);
},
{
name = top;
pos = (330,810);
}
);
background = {
shapes = (
{
closed = 1;
nodes = (
(200,367,l),
(529,367,l),
(529,449,l),
(200,449,l),
(200,728,l),
(550,728,l),
(550,810,l),
(108,810,l),
(108,0,l),
(200,0,l)
);
}
);
};
layerId = "FB8C5FF2-3B42-4CDF-AA26-B13980DDC748";
shapes = (
{
closed = 1;
nodes = (
(274,326,l),
(597,326,l),
(597,490,l),
(274,490,l),
(274,646,l),
(630,646,l),
(630,810,l),
(90,810,l),
(90,0,l),
(274,0,l)
);
}
);
userData = {
com.schriftgestaltung.Glyphs.category = Letter;
com.schriftgestaltung.Glyphs.script = latin;
com.schriftgestaltung.Glyphs.subCategory = Uppercase;
};
width = 660;
}
);
unicode = 70;
},
{
color = 9;
glyphname = G;
kernLeft = C;
kernRight = G;
lastChange = "2024-04-18 11:51:35 +0000";
layers = (
{
anchors = (
{
name = bottom;
pos = (430,0);
},
{
name = top;
pos = (435,810);
}
);
background = {
shapes = (
{
closed = 1;
nodes = (
(655,-12,o),
(816,150,o),
(816,405,cs),
(816,662,o),
(656,822,o),
(435,822,cs),
(215,822,o),
(54,660,o),
(54,405,cs),
(54,151,o),
(215,-12,o),
(435,-12,cs)
);
},
{
closed = 1;
nodes = (
(316,164,o),
(238,259,o),
(238,405,cs),
(238,552,o),
(316,646,o),
(435,646,cs),
(554,646,o),
(632,552,o),
(632,405,cs),
(632,259,o),
(554,164,o),
(435,164,cs)
);
}
);
};
guides = (
{
angle = 270;
pos = (621,267);
},
{
pos = (685,570);
}
);
layerId = "FB8C5FF2-3B42-4CDF-AA26-B13980DDC748";
name = "Bold alt";
shapes = (
{
closed = 1;
nodes = (
(509,-12,o),
(577,21,o),
(614,86,c),
(618,86,l),
(618,0,l),
(785,0,l),
(785,312,ls),
(785,396,o),
(743,438,o),
(659,438,cs),
(429,438,l),
(429,294,l),
(605,294,l),
(605,270,ls),
(605,199,o),
(535,144,o),
(443,144,cs),
(319,144,o),
(238,246,o),
(238,402,cs),
(238,555,o),
(317,656,o),
(435,656,cs),
(519,656,o),
(583,604,o),
(593,527,c),
(785,527,l),
(762,704,o),
(623,822,o),
(435,822,cs),
(209,822,o),
(54,651,o),
(54,404,cs),
(54,161,o),
(205,-12,o),
(417,-12,cs)
);
}
);
userData = {
com.schriftgestaltung.Glyphs.category = Letter;
com.schriftgestaltung.Glyphs.script = latin;
com.schriftgestaltung.Glyphs.subCategory = Uppercase;
};
width = 850;
},
{
anchors = (
{
name = bottom;
pos = (430,0);
},
{
name = top;
pos = (415,810);
}
);
background = {
shapes = (
{
closed = 1;
nodes = (
(452,336,l),
(639,336,l),
(639,91,l),
(596,79,o),
(547,70,o),
(475,70,cs),
(258,70,o),
(165,200,o),
(165,400,cs),
(165,602,o),
(281,731,o),
(477,731,cs),
(553,731,o),
(626,710,o),
(685,684,c),
(721,765,l),
(652,795,o),
(572,812,o),
(482,812,cs),
(221,812,o),
(68,649,o),
(68,400,cs),
(68,146,o),
(204,-11,o),
(453,-11,cs),
(563,-11,o),
(647,3,o),
(732,31,c),
(732,419,l),
(452,419,l)
);
}
);
};
layerId = "4683CC84-822E-4D29-9A51-72FC3DB48604";
name = "Light alt";
shapes = (
{
closed = 1;
nodes = (
(543,-12,o),
(633,47,o),
(663,126,c),
(667,126,l),
(667,0,l),
(755,0,l),
(755,312,ls),
(755,369,o),
(722,402,o),
(665,402,cs),
(422,402,l),
(422,322,l),
(665,322,l),
(665,264,ls),
(665,153,o),
(567,67,o),
(435,67,cs),
(274,67,o),
(160,210,o),
(160,405,cs),
(160,605,o),
(274,738,o),
(442,738,cs),
(562,738,o),
(642,672,o),
(659,570,c),
(755,570,l),
(728,725,o),
(610,822,o),
(442,822,cs),
(223,822,o),
(66,653,o),
(66,405,cs),
(66,160,o),
(214,-12,o),
(425,-12,cs)
);
}
);
userData = {
com.schriftgestaltung.Glyphs.category = Letter;
com.schriftgestaltung.Glyphs.script = latin;
com.schriftgestaltung.Glyphs.subCategory = Uppercase;
};
width = 830;
}
);
unicode = 71;
},
{
color = 9;
glyphname = H;
kernLeft = B;
kernRight = H;
lastChange = "2024-04-18 11:51:45 +0000";
layers = (
{
anchors = (
{
name = bottom;
pos = (425,0);
},
{
name = center;
pos = (425,405);
},
{
name = top;
pos = (425,810);
},
{
name = topleft;
pos = (20,810);
}
);
background = {
shapes = (
{
closed = 1;
nodes = (
(732,810,l),
(640,810,l),
(640,461,l),
(210,461,l),
(210,810,l),
(118,810,l),
(118,0,l),
(210,0,l),
(210,379,l),
(640,379,l),
(640,0,l),
(732,0,l)
);
}
);
};
guides = (
{
pos = (425,461);
}
);
layerId = "4683CC84-822E-4D29-9A51-72FC3DB48604";
shapes = (
{
closed = 1;
nodes = (
(736,810,l),
(644,810,l),
(644,461,l),
(206,461,l),
(206,810,l),
(114,810,l),
(114,0,l),
(206,0,l),
(206,379,l),
(644,379,l),
(644,0,l),
(736,0,l)
);
}
);
userData = {
com.schriftgestaltung.Glyphs.category = Letter;
com.schriftgestaltung.Glyphs.script = latin;
com.schriftgestaltung.Glyphs.subCategory = Uppercase;
};
width = 850;
},
{
anchors = (
{
name = bottom;
pos = (435,0);
},
{
name = center;
pos = (435,405);
},
{
name = top;
pos = (435,810);
},
{
name = topleft;
pos = (0,810);
}
);
background = {
shapes = (
{
closed = 1;
nodes = (
(732,810,l),
(640,810,l),
(640,461,l),
(210,461,l),
(210,810,l),
(118,810,l),
(118,0,l),
(210,0,l),
(210,379,l),
(640,379,l),
(640,0,l),
(732,0,l)
);
}
);
};
guides = (
{
pos = (121,405);
},
{
pos = (213,420);
}
);
layerId = "FB8C5FF2-3B42-4CDF-AA26-B13980DDC748";
shapes = (
{
closed = 1;
nodes = (
(780,810,l),
(596,810,l),
(596,502,l),
(274,502,l),
(274,810,l),
(90,810,l),
(90,0,l),
(274,0,l),
(274,338,l),
(596,338,l),
(596,0,l),
(780,0,l)
);
}
);
userData = {
com.schriftgestaltung.Glyphs.category = Letter;
com.schriftgestaltung.Glyphs.script = latin;
com.schriftgestaltung.Glyphs.subCategory = Uppercase;
};
width = 870;
}
);
unicode = 72;
},
{
color = 9;
glyphname = I;
kernLeft = B;
kernRight = H;
lastChange = "2024-04-18 11:51:45 +0000";
layers = (
{
anchors = (
{
name = bottom;
pos = (160,0);
},
{
name = ogonek;
pos = (206,0);
},
{
name = top;
pos = (160,810);
},
{
name = topleft;
pos = (0,810);
}
);
layerId = "4683CC84-822E-4D29-9A51-72FC3DB48604";
shapes = (
{
closed = 1;
nodes = (
(206,0,l),
(206,810,l),
(114,810,l),
(114,0,l)
);
}
);
userData = {
com.schriftgestaltung.Glyphs.category = Letter;
com.schriftgestaltung.Glyphs.glyph.leftMetricsKey = H;
com.schriftgestaltung.Glyphs.glyph.rightMetricsKey = H;
com.schriftgestaltung.Glyphs.script = latin;
com.schriftgestaltung.Glyphs.subCategory = Uppercase;
};
width = 320;
},
{
anchors = (
{
name = bottom;
pos = (185,0);
},
{
name = ogonek;
pos = (277,0);
},
{
name = top;
pos = (185,810);
},
{
name = topleft;
pos = (0,810);
}
);
layerId = "FB8C5FF2-3B42-4CDF-AA26-B13980DDC748";
shapes = (
{
closed = 1;
nodes = (
(277,0,l),
(277,810,l),
(93,810,l),
(93,0,l)
);
}
);
userData = {
com.schriftgestaltung.Glyphs.category = Letter;
com.schriftgestaltung.Glyphs.glyph.leftMetricsKey = H;
com.schriftgestaltung.Glyphs.glyph.rightMetricsKey = H;
com.schriftgestaltung.Glyphs.script = latin;
com.schriftgestaltung.Glyphs.subCategory = Uppercase;
};
width = 370;
}
);
unicode = 73;
},
{
color = 9;
glyphname = J;
kernLeft = B;
kernRight = H;
lastChange = "2024-04-18 11:51:45 +0000";
layers = (
{
anchors = (
{
name = bottom;
pos = (89,-180);
},
{
name = top;
pos = (160,810);
}
);
layerId = "4683CC84-822E-4D29-9A51-72FC3DB48604";
shapes = (
{
closed = 1;
nodes = (
(116,-180,ls),
(172,-180,o),
(206,-150,o),
(206,-90,cs),
(206,810,l),
(114,810,l),
(114,-100,l),
(-29,-100,l),
(-29,-180,l)
);
}
);
userData = {
com.schriftgestaltung.Glyphs.category = Letter;
com.schriftgestaltung.Glyphs.script = latin;
com.schriftgestaltung.Glyphs.subCategory = Uppercase;
};
width = 320;
},
{
anchors = (
{
name = bottom;
pos = (185,0);
},
{
name = top;
pos = (185,810);
}
);
background = {
shapes = (
{
closed = 1;
nodes = (
(277,0,l),
(277,810,l),
(93,810,l),
(93,0,l)
);
}
);
};
layerId = "FB8C5FF2-3B42-4CDF-AA26-B13980DDC748";
shapes = (
{
closed = 1;
nodes = (
(133,-210,ls),
(226,-210,o),
(277,-164,o),
(277,-66,cs),
(277,810,l),
(93,810,l),
(93,-60,l),
(-27,-60,l),
(-27,-210,l)
);
}
);
userData = {
com.schriftgestaltung.Glyphs.category = Letter;
com.schriftgestaltung.Glyphs.script = latin;
com.schriftgestaltung.Glyphs.subCategory = Uppercase;
};
width = 370;
}
);
unicode = 74;
},
{
color = 9;
glyphname = K;
kernLeft = B;
kernRight = K;
lastChange = "2024-04-18 11:51:51 +0000";
layers = (
{
anchors = (
{
name = bottom;
pos = (400,0);
},
{
name = top;
pos = (400,810);
}
);
guides = (
{
angle = 123.247;
pos = (792,0);
},
{
angle = -56.962;
pos = (575,0);
}
);
layerId = "FB8C5FF2-3B42-4CDF-AA26-B13980DDC748";
shapes = (
{
closed = 1;
nodes = (
(274,0,l),
(274,289,l),
(346,353,l),
(575,0,l),
(792,0,l),
(479,479,l),
(784,810,l),
(562,810,l),
(278,498,l),
(274,498,l),
(274,810,l),
(90,810,l),
(90,0,l)
);
}
);
userData = {
com.schriftgestaltung.Glyphs.category = Letter;
com.schriftgestaltung.Glyphs.script = latin;
com.schriftgestaltung.Glyphs.subCategory = Uppercase;
};
width = 800;
},
{
anchors = (
{
name = bottom;
pos = (404,0);
},
{
name = top;
pos = (398,810);
}
);
background = {
shapes = (
{
closed = 1;
nodes = (
(736,810,l),
(644,810,l),
(644,461,l),
(206,461,l),
(206,810,l),
(114,810,l),
(114,0,l),
(206,0,l),
(206,379,l),
(644,379,l),
(644,0,l),
(736,0,l)
);
}
);
};
guides = (
{
angle = 226.959;
pos = (590,810);
},
{
angle = 127.4226;
pos = (601,0);
}
);
layerId = "4683CC84-822E-4D29-9A51-72FC3DB48604";
name = Light;
shapes = (
{
closed = 1;
nodes = (
(206,0,l),
(206,317,l),
(296,396,l),
(602,0,l),
(716,0,l),
(363,458,l),
(704,810,l),
(590,810,l),
(210,406,l),
(206,406,l),
(206,810,l),
(114,810,l),
(114,0,l)
);
}
);
userData = {
com.schriftgestaltung.Glyphs.category = Letter;
com.schriftgestaltung.Glyphs.script = latin;
com.schriftgestaltung.Glyphs.subCategory = Uppercase;
};
width = 740;
}
);
unicode = 75;
},
{
color = 9;
glyphname = L;
kernLeft = B;
kernRight = L;
lastChange = "2024-04-18 11:51:57 +0000";
layers = (
{
anchors = (
{
name = bottom;
pos = (362,0);
},
{
name = center;
pos = (160,405);
},
{
name = top;
pos = (160,810);
},
{
name = topright;
pos = (206,810);
}
);
layerId = "4683CC84-822E-4D29-9A51-72FC3DB48604";
shapes = (
{
closed = 1;
nodes = (
(610,0,l),
(610,83,l),
(206,83,l),
(206,810,l),
(114,810,l),
(114,0,l)
);
}
);
userData = {
com.schriftgestaltung.Glyphs.category = Letter;
com.schriftgestaltung.Glyphs.script = latin;
com.schriftgestaltung.Glyphs.subCategory = Uppercase;
};
width = 640;
},
{
anchors = (
{
name = bottom;
pos = (341,0);
},
{
name = center;
pos = (157,405);
},
{
name = top;
pos = (157,810);
},
{
name = topright;
pos = (249,810);
}
);
layerId = "FB8C5FF2-3B42-4CDF-AA26-B13980DDC748";
shapes = (
{
closed = 1;
nodes = (
(616,0,l),
(616,164,l),
(249,164,l),
(249,810,l),
(65,810,l),
(65,0,l)
);
}
);
userData = {
com.schriftgestaltung.Glyphs.category = Letter;
com.schriftgestaltung.Glyphs.script = latin;
com.schriftgestaltung.Glyphs.subCategory = Uppercase;
};
width = 640;
}
);
unicode = 76;
},
{
color = 9;
glyphname = M;
kernLeft = B;
kernRight = H;
lastChange = "2024-04-18 11:52:13 +0000";
layers = (
{
anchors = (
{
name = bottom;
pos = (512,0);
},
{
name = top;
pos = (516,810);
}
);
layerId = "4683CC84-822E-4D29-9A51-72FC3DB48604";
shapes = (
{
closed = 1;
nodes = (
(200,0,l),
(200,710,l),
(204,710,l),
(474,0,l),
(550,0,l),
(820,709,l),
(824,709,l),
(824,0,l),
(916,0,l),
(916,810,l),
(779,810,l),
(517,130,l),
(513,130,l),
(252,810,l),
(114,810,l),
(114,0,l)
);
}
);
userData = {
com.schriftgestaltung.Glyphs.category = Letter;
com.schriftgestaltung.Glyphs.script = latin;
com.schriftgestaltung.Glyphs.subCategory = Uppercase;
};
width = 1030;
},
{
anchors = (
{
name = bottom;
pos = (530,0);
},
{
name = top;
pos = (530,810);
}
);
background = {
shapes = (
{
closed = 1;
nodes = (
(262,0,l),
(262,755,l),
(172,755,l),
(447,0,l),
(601,0,l),
(876,754,l),
(786,754,l),
(786,0,l),
(970,0,l),
(970,810,l),
(729,810,l),
(475,113,l),
(587,113,l),
(332,810,l),
(90,810,l),
(90,0,l)
);
}
);
};
layerId = "FB8C5FF2-3B42-4CDF-AA26-B13980DDC748";
shapes = (
{
closed = 1;
nodes = (
(262,0,l),
(262,538,l),
(266,538,l),
(447,0,l),
(601,0,l),
(782,538,l),
(786,538,l),
(786,0,l),
(970,0,l),
(970,810,l),
(729,810,l),
(533,266,l),
(529,266,l),
(332,810,l),
(90,810,l),
(90,0,l)
);
}
);
userData = {
com.schriftgestaltung.Glyphs.category = Letter;
com.schriftgestaltung.Glyphs.script = latin;
com.schriftgestaltung.Glyphs.subCategory = Uppercase;
};
width = 1060;
}
);
unicode = 77;
},
{
color = 9;
glyphname = N;
kernLeft = B;
kernRight = H;
lastChange = "2024-04-18 11:52:13 +0000";
layers = (
{
anchors = (
{
name = bottom;
pos = (430,0);
},
{
name = top;
pos = (450,810);
}
);
background = {
shapes = (
{
closed = 1;
nodes = (
(745,801,l),
(658,801,l),
(658,337,ls),
(658,266,o),
(663,168,o),
(665,130,c),
(661,130,l),
(226,801,l),
(120,801,l),
(120,0,l),
(206,0,l),
(206,460,ls),
(206,540,o),
(201,618,o),
(197,672,c),
(202,672,l),
(638,0,l),
(745,0,l)
);
}
);
};
layerId = "4683CC84-822E-4D29-9A51-72FC3DB48604";
shapes = (
{
closed = 1;
nodes = (
(766,810,l),
(680,810,l),
(680,129,l),
(676,129,l),
(220,810,l),
(114,810,l),
(114,0,l),
(200,0,l),
(200,681,l),
(204,681,l),
(660,0,l),
(766,0,l)
);
}
);
userData = {
com.schriftgestaltung.Glyphs.category = Letter;
com.schriftgestaltung.Glyphs.script = latin;
com.schriftgestaltung.Glyphs.subCategory = Uppercase;
};
width = 880;
},
{
anchors = (
{
name = bottom;
pos = (445,0);
},
{
name = top;
pos = (445,810);
}
);
background = {
shapes = (
{
closed = 1;
nodes = (
(745,801,l),
(658,801,l),
(658,337,ls),
(658,266,o),
(663,168,o),
(665,130,c),
(661,130,l),
(226,801,l),
(120,801,l),
(120,0,l),
(206,0,l),
(206,460,ls),
(206,540,o),
(201,618,o),
(197,672,c),
(202,672,l),
(638,0,l),
(745,0,l)
);
}
);
};
layerId = "FB8C5FF2-3B42-4CDF-AA26-B13980DDC748";
shapes = (
{
closed = 1;
nodes = (
(800,810,l),
(628,810,l),
(628,285,l),
(624,285,l),
(274,810,l),
(90,810,l),
(90,0,l),
(262,0,l),
(262,510,l),
(266,510,l),
(606,0,l),
(800,0,l)
);
}
);
userData = {
com.schriftgestaltung.Glyphs.category = Letter;
com.schriftgestaltung.Glyphs.script = latin;
com.schriftgestaltung.Glyphs.subCategory = Uppercase;
};
width = 890;
}
);
unicode = 78;
},
{
color = 9;
glyphname = O;
kernLeft = C;
kernRight = D;
lastChange = "2024-04-18 12:23:00 +0000";
layers = (
{
anchors = (
{
name = bottom;
pos = (435,0);
},
{
name = center;
pos = (435,405);
},
{
name = ogonek;
pos = (507,0);
},
{
name = top;
pos = (435,810);
},
{
name = topleft;
pos = (0,810);
},
{
name = topright;
pos = (870,810);
}
);
background = {
shapes = (
{
closed = 1;
nodes = (
(803,652,o),
(675,813,o),
(438,813,cs),
(188,813,o),
(67,648,o),
(67,402,cs),
(67,156,o),
(187,-11,o),
(436,-11,cs),
(676,-11,o),
(803,154,o),
(803,401,cs)
);
},
{
closed = 1;
nodes = (
(165,606,o),
(251,731,o),
(438,731,cs),
(621,731,o),
(705,608,o),
(705,401,cs),
(705,197,o),
(622,70,o),
(436,70,cs),
(251,70,o),
(165,198,o),
(165,401,cs)
);
}
);
};
layerId = "4683CC84-822E-4D29-9A51-72FC3DB48604";
shapes = (
{
closed = 1;
nodes = (
(648,-12,o),
(804,150,o),
(804,405,cs),
(804,662,o),
(649,822,o),
(435,822,cs),
(222,822,o),
(66,660,o),
(66,405,cs),
(66,151,o),
(222,-12,o),
(435,-12,cs)
);
},
{
closed = 1;
nodes = (
(267,72,o),
(160,204,o),
(160,405,cs),
(160,607,o),
(267,738,o),
(435,738,cs),
(603,738,o),
(710,607,o),
(710,405,cs),
(710,204,o),
(603,72,o),
(435,72,cs)
);
}
);
userData = {
com.schriftgestaltung.Glyphs.category = Letter;
com.schriftgestaltung.Glyphs.script = latin;
com.schriftgestaltung.Glyphs.subCategory = Uppercase;
};
width = 870;
},
{
anchors = (
{
name = bottom;
pos = (435,0);
},
{
name = center;
pos = (435,405);
},
{
name = ogonek;
pos = (783,10);
},
{
name = top;
pos = (435,810);
},
{
name = topleft;
pos = (20,810);
},
{
name = topright;
pos = (850,810);
}
);
background = {
shapes = (
{
closed = 1;
nodes = (
(803,652,o),
(675,813,o),
(438,813,cs),
(188,813,o),
(67,648,o),
(67,402,cs),
(67,156,o),
(187,-11,o),
(436,-11,cs),
(676,-11,o),
(803,154,o),
(803,401,cs)
);
},
{
closed = 1;
nodes = (
(165,606,o),
(251,731,o),
(438,731,cs),
(621,731,o),
(705,608,o),
(705,401,cs),
(705,197,o),
(622,70,o),
(436,70,cs),
(251,70,o),
(165,198,o),
(165,401,cs)
);
}
);
};
layerId = "FB8C5FF2-3B42-4CDF-AA26-B13980DDC748";
shapes = (
{
closed = 1;
nodes = (
(655,-12,o),
(816,150,o),
(816,405,cs),
(816,662,o),
(656,822,o),
(435,822,cs),
(215,822,o),
(54,660,o),
(54,405,cs),
(54,151,o),
(215,-12,o),
(435,-12,cs)
);
},
{
closed = 1;
nodes = (
(316,152,o),
(238,252,o),
(238,405,cs),
(238,559,o),
(316,658,o),
(435,658,cs),
(554,658,o),
(632,559,o),
(632,405,cs),
(632,252,o),
(554,152,o),
(435,152,cs)
);
}
);
userData = {
com.schriftgestaltung.Glyphs.category = Letter;
com.schriftgestaltung.Glyphs.script = latin;
com.schriftgestaltung.Glyphs.subCategory = Uppercase;
};
width = 870;
}
);
unicode = 79;
},
{
color = 9;
glyphname = P;
kernLeft = B;
kernRight = P;
lastChange = "2024-04-18 11:52:31 +0000";
layers = (
{
anchors = (
{
name = bottom;
pos = (160,0);
},
{
name = top;
pos = (355,810);
}
);
background = {
shapes = (
{
closed = 1;
nodes = (
(110,801,l),
(110,0,l),
(203,0,l),
(203,315,l),
(300,315,ls),
(533,315,o),
(617,430,o),
(617,567,cs),
(617,717,o),
(525,801,o),
(319,801,cs)
);
},
{
closed = 1;
nodes = (
(455,721,o),
(520,670,o),
(520,563,cs),
(520,440,o),
(443,395,o),
(290,395,cs),
(203,395,l),
(203,721,l),
(310,721,ls)
);
}
);
};
layerId = "4683CC84-822E-4D29-9A51-72FC3DB48604";
shapes = (
{
closed = 1;
nodes = (
(206,0,l),
(206,318,l),
(427,318,ls),
(587,318,o),
(688,413,o),
(688,564,cs),
(688,716,o),
(588,810,o),
(427,810,cs),
(114,810,l),
(114,0,l)
);
},
{
closed = 1;
nodes = (
(206,730,l),
(423,730,ls),
(530,730,o),
(596,666,o),
(596,564,cs),
(596,462,o),
(530,398,o),
(423,398,cs),
(206,398,l)
);
}
);
userData = {
com.schriftgestaltung.Glyphs.category = Letter;
com.schriftgestaltung.Glyphs.script = latin;
com.schriftgestaltung.Glyphs.subCategory = Uppercase;
};
width = 730;
},
{
anchors = (
{
name = bottom;
pos = (375,0);
},
{
name = top;
pos = (375,810);
}
);
layerId = "FB8C5FF2-3B42-4CDF-AA26-B13980DDC748";
shapes = (
{
closed = 1;
nodes = (
(274,0,l),
(274,288,l),
(441,288,ls),
(608,288,o),
(714,390,o),
(714,549,cs),
(714,709,o),
(609,810,o),
(441,810,cs),
(90,810,l),
(90,0,l)
);
},
{
closed = 1;
nodes = (
(274,646,l),
(429,646,ls),
(491,646,o),
(530,609,o),
(530,549,cs),
(530,489,o),
(491,452,o),
(429,452,cs),
(274,452,l)
);
}
);
userData = {
com.schriftgestaltung.Glyphs.category = Letter;
com.schriftgestaltung.Glyphs.script = latin;
com.schriftgestaltung.Glyphs.subCategory = Uppercase;
};
width = 750;
}
);
unicode = 80;
},
{
color = 9;
glyphname = Q;
kernLeft = C;
kernRight = D;
lastChange = "2024-04-18 12:19:55 +0000";
layers = (
{
anchors = (
{
name = bottom;
pos = (481,-180);
},
{
name = top;
pos = (435,810);
}
);
layerId = "4683CC84-822E-4D29-9A51-72FC3DB48604";
shapes = (
{
closed = 1;
nodes = (
(704,-180,l),
(704,-96,l),
(481,-96,l),
(481,-9,l),
(670,12,o),
(804,169,o),
(804,405,cs),
(804,662,o),
(649,822,o),
(435,822,cs),
(222,822,o),
(66,660,o),
(66,405,cs),
(66,169,o),
(201,11,o),
(391,-10,c),
(391,-90,ls),
(391,-150,o),
(425,-180,o),
(481,-180,cs)
);
},
{
closed = 1;
nodes = (
(267,70,o),
(160,202,o),
(160,405,cs),
(160,609,o),
(267,740,o),
(435,740,cs),
(603,740,o),
(710,609,o),
(710,405,cs),
(710,202,o),
(603,70,o),
(435,70,cs)
);
}
);
userData = {
com.schriftgestaltung.Glyphs.category = Letter;
com.schriftgestaltung.Glyphs.script = latin;
com.schriftgestaltung.Glyphs.subCategory = Uppercase;
};
width = 870;
},
{
anchors = (
{
name = bottom;
pos = (436,0);
},
{
name = top;
pos = (436,810);
}
);
layerId = "FB8C5FF2-3B42-4CDF-AA26-B13980DDC748";
shapes = (
{
closed = 1;
nodes = (
(707,-210,l),
(707,-60,l),
(525,-60,l),
(525,-2,l),
(698,36,o),
(816,186,o),
(816,405,cs),
(816,662,o),
(656,822,o),
(435,822,cs),
(215,822,o),
(54,660,o),
(54,405,cs),
(54,187,o),
(172,36,o),
(345,-2,c),
(345,-66,ls),
(345,-164,o),
(396,-210,o),
(489,-210,cs)
);
},
{
closed = 1;
nodes = (
(316,152,o),
(238,252,o),
(238,405,cs),
(238,559,o),
(316,658,o),
(435,658,cs),
(554,658,o),
(632,559,o),
(632,405,cs),
(632,252,o),
(554,152,o),
(435,152,cs)
);
}
);
userData = {
com.schriftgestaltung.Glyphs.category = Letter;
com.schriftgestaltung.Glyphs.script = latin;
com.schriftgestaltung.Glyphs.subCategory = Uppercase;
};
width = 872;
}
);
unicode = 81;
},
{
color = 9;
glyphname = R;
kernLeft = B;
kernRight = R;
lastChange = "2024-04-18 11:52:38 +0000";
layers = (
{
anchors = (
{
name = bottom;
pos = (404,0);
},
{
name = top;
pos = (358,810);
}
);
background = {
shapes = (
{
closed = 1;
nodes = (
(385,368,l),
(578,420,l),
(645,458,o),
(676,518,o),
(676,589,cs),
(676,730,o),
(582,810,o),
(385,810,cs),
(108,810,l),
(108,0,l),
(200,0,l),
(200,340,l),
(544,340,ls),
(585,340,o),
(604,322,o),
(604,280,cs),
(604,-2,l),
(694,-2,l),
(694,288,ls),
(694,374,o),
(644,420,o),
(562,420,cs),
(200,420,l),
(200,730,l),
(379,730,ls),
(515,730,o),
(579,677,o),
(579,574,cs),
(579,472,o),
(515,420,o),
(379,420,c)
);
}
);
};
layerId = "4683CC84-822E-4D29-9A51-72FC3DB48604";
shapes = (
{
closed = 1;
nodes = (
(206,0,l),
(206,340,l),
(602,340,l),
(602,0,l),
(694,0,l),
(694,325,ls),
(694,382,o),
(661,415,o),
(604,415,c),
(604,420,l),
(666,459,o),
(694,518,o),
(694,588,cs),
(694,730,o),
(594,810,o),
(449,810,cs),
(114,810,l),
(114,0,l)
);
},
{
closed = 1;
nodes = (
(206,730,l),
(439,730,ls),
(536,730,o),
(602,674,o),
(602,574,cs),
(602,474,o),
(536,418,o),
(439,418,cs),
(206,418,l)
);
}
);
userData = {
com.schriftgestaltung.Glyphs.category = Letter;
com.schriftgestaltung.Glyphs.script = latin;
com.schriftgestaltung.Glyphs.subCategory = Uppercase;
};
width = 790;
},
{
anchors = (
{
name = bottom;
pos = (410,0);
},
{
name = top;
pos = (410,810);
}
);
background = {
shapes = (
{
closed = 1;
nodes = (
(385,368,l),
(578,420,l),
(645,458,o),
(676,518,o),
(676,589,cs),
(676,730,o),
(582,810,o),
(385,810,cs),
(108,810,l),
(108,0,l),
(200,0,l),
(200,340,l),
(544,340,ls),
(585,340,o),
(604,322,o),
(604,280,cs),
(604,-2,l),
(694,-2,l),
(694,288,ls),
(694,374,o),
(644,420,o),
(562,420,cs),
(200,420,l),
(200,730,l),
(379,730,ls),
(515,730,o),
(579,677,o),
(579,574,cs),
(579,472,o),
(515,420,o),
(379,420,c)
);
}
);
};
guides = (
{
angle = 270;
pos = (740,141);
},
{
angle = 90;
pos = (556,140);
}
);
layerId = "FB8C5FF2-3B42-4CDF-AA26-B13980DDC748";
name = "Bold alt";
shapes = (
{
closed = 1;
nodes = (
(274,0,l),
(274,300,l),
(556,300,l),
(556,0,l),
(740,0,l),
(740,282,ls),
(740,366,o),
(698,408,o),
(614,408,c),
(614,412,l),
(702,437,o),
(740,507,o),
(740,590,cs),
(740,726,o),
(633,810,o),
(477,810,cs),
(90,810,l),
(90,0,l)
);
},
{
closed = 1;
nodes = (
(274,646,l),
(465,646,ls),
(521,646,o),
(560,613,o),
(560,555,cs),
(560,497,o),
(521,464,o),
(465,464,cs),
(274,464,l)
);
}
);
userData = {
com.schriftgestaltung.Glyphs.category = Letter;
com.schriftgestaltung.Glyphs.script = latin;
com.schriftgestaltung.Glyphs.subCategory = Uppercase;
};
width = 820;
}
);
unicode = 82;
},
{
color = 9;
glyphname = S;
kernLeft = S;
kernRight = S;
lastChange = "2024-04-18 12:21:09 +0000";
layers = (
{
anchors = (
{
name = bottom;
pos = (372,0);
},
{
name = top;
pos = (353,810);
}
);
background = {
shapes = (
{
closed = 1;
nodes = (
(618,340,o),
(539,391,o),
(398,442,cs),
(269,490,o),
(219,522,o),
(219,607,cs),
(219,682,o),
(276,730,o),
(378,730,cs),
(447,730,o),
(513,712,o),
(570,688,c),
(599,768,l),
(538,795,o),
(466,812,o),
(381,812,cs),
(230,812,o),
(125,735,o),
(125,608,cs),
(125,483,o),
(197,421,o),
(333,373,cs),
(477,321,o),
(525,287,o),
(525,205,cs),
(525,120,o),
(458,70,o),
(338,70,cs),
(252,70,o),
(169,93,o),
(114,116,c),
(114,26,l),
(166,3,o),
(243,-11,o),
(335,-11,cs),
(506,-11,o),
(618,70,o),
(618,213,cs)
);
}
);
};
guides = (
{
angle = 167.4211;
pos = (354,364);
},
{
angle = -12.5789;
pos = (386,468);
}
);
layerId = "4683CC84-822E-4D29-9A51-72FC3DB48604";
shapes = (
{
closed = 1;
nodes = (
(548,-12,o),
(654,82,o),
(654,225,cs),
(654,339,o),
(586,412,o),
(452,442,cs),
(322,471,ls),
(220,494,o),
(179,540,o),
(179,605,cs),
(179,687,o),
(247,738,o),
(350,738,cs),
(461,738,o),
(532,684,o),
(550,582,c),
(648,582,l),
(632,726,o),
(522,822,o),
(355,822,cs),
(192,822,o),
(89,727,o),
(89,598,cs),
(89,489,o),
(162,417,o),
(293,389,cs),
(418,362,ls),
(518,340,o),
(564,293,o),
(564,218,cs),
(564,126,o),
(496,72,o),
(373,72,cs),
(245,72,o),
(163,131,o),
(151,240,c),
(53,240,l),
(63,90,o),
(184,-12,o),
(370,-12,cs)
);
}
);
userData = {
com.schriftgestaltung.Glyphs.category = Letter;
com.schriftgestaltung.Glyphs.script = latin;
com.schriftgestaltung.Glyphs.subCategory = Uppercase;
};
width = 720;
},
{
anchors = (
{
name = bottom;
pos = (370,0);
},
{
name = top;
pos = (370,810);
}
);
background = {
shapes = (
{
closed = 1;
nodes = (
(546,-12,o),
(652,82,o),
(652,225,cs),
(652,339,o),
(584,412,o),
(450,442,cs),
(320,471,ls),
(218,494,o),
(177,540,o),
(177,605,cs),
(177,687,o),
(245,738,o),
(348,738,cs),
(459,738,o),
(530,684,o),
(548,582,c),
(646,582,l),
(630,726,o),
(520,822,o),
(353,822,cs),
(190,822,o),
(87,727,o),
(87,598,cs),
(87,489,o),
(160,417,o),
(291,389,cs),
(416,362,ls),
(516,340,o),
(562,293,o),
(562,218,cs),
(562,126,o),
(494,72,o),
(371,72,cs),
(243,72,o),
(161,131,o),
(149,240,c),
(51,240,l),
(61,90,o),
(182,-12,o),
(368,-12,cs)
);
}
);
};
guides = (
{
angle = 167.4211;
pos = (352,364);
},
{
angle = -12.5789;
pos = (384,468);
}
);
layerId = "FB8C5FF2-3B42-4CDF-AA26-B13980DDC748";
shapes = (
{
closed = 1;
nodes = (
(584,-12,o),
(698,86,o),
(698,243,cs),
(698,373,o),
(625,449,o),
(479,482,cs),
(333,515,ls),
(279,527,o),
(252,557,o),
(252,595,cs),
(252,644,o),
(295,678,o),
(364,678,cs),
(439,678,o),
(490,637,o),
(506,564,c),
(692,564,l),
(681,723,o),
(557,822,o),
(375,822,cs),
(191,822,o),
(72,726,o),
(72,577,cs),
(72,460,o),
(143,382,o),
(292,347,cs),
(431,314,ls),
(492,300,o),
(518,271,o),
(518,228,cs),
(518,172,o),
(474,138,o),
(397,138,cs),
(307,138,o),
(248,182,o),
(234,263,c),
(48,263,l),
(59,94,o),
(190,-12,o),
(390,-12,cs)
);
}
);
userData = {
com.schriftgestaltung.Glyphs.category = Letter;
com.schriftgestaltung.Glyphs.script = latin;
com.schriftgestaltung.Glyphs.subCategory = Uppercase;
};
width = 740;
}
);
unicode = 83;
},
{
color = 9;
glyphname = T;
kernLeft = T;
kernRight = T;
lastChange = "2024-04-18 12:20:23 +0000";
layers = (
{
anchors = (
{
name = bottom;
pos = (345,0);
},
{
name = center;
pos = (345,405);
},
{
name = top;
pos = (345,810);
}
);
layerId = "4683CC84-822E-4D29-9A51-72FC3DB48604";
shapes = (
{
closed = 1;
nodes = (
(391,728,l),
(666,728,l),
(666,810,l),
(24,810,l),
(24,728,l),
(299,728,l),
(299,0,l),
(391,0,l)
);
}
);
userData = {
com.schriftgestaltung.Glyphs.category = Letter;
com.schriftgestaltung.Glyphs.script = latin;
com.schriftgestaltung.Glyphs.subCategory = Uppercase;
};
width = 690;
},
{
anchors = (
{
name = bottom;
pos = (345,0);
},
{
name = center;
pos = (345,405);
},
{
name = top;
pos = (345,810);
}
);
layerId = "FB8C5FF2-3B42-4CDF-AA26-B13980DDC748";
shapes = (
{
closed = 1;
nodes = (
(437,646,l),
(666,646,l),
(666,810,l),
(24,810,l),
(24,646,l),
(253,646,l),
(253,0,l),
(437,0,l)
);
}
);
userData = {
com.schriftgestaltung.Glyphs.category = Letter;
com.schriftgestaltung.Glyphs.script = latin;
com.schriftgestaltung.Glyphs.subCategory = Uppercase;
};
width = 690;
}
);
unicode = 84;
},
{
color = 9;
glyphname = U;
kernLeft = U;
kernRight = U;
lastChange = "2024-04-18 12:22:12 +0000";
layers = (
{
anchors = (
{
name = bottom;
pos = (410,0);
},
{
name = ogonek;
pos = (499,0);
},
{
name = top;
pos = (411,810);
},
{
name = topright;
pos = (800,810);
}
);
layerId = "4683CC84-822E-4D29-9A51-72FC3DB48604";
shapes = (
{
closed = 1;
nodes = (
(616,-12,o),
(718,112,o),
(718,284,cs),
(718,810,l),
(626,810,l),
(626,285,ls),
(626,159,o),
(559,74,o),
(412,74,cs),
(268,74,o),
(196,150,o),
(196,286,cs),
(196,810,l),
(102,810,l),
(102,286,ls),
(102,104,o),
(208,-12,o),
(407,-12,cs)
);
}
);
userData = {
com.schriftgestaltung.Glyphs.category = Letter;
com.schriftgestaltung.Glyphs.script = latin;
com.schriftgestaltung.Glyphs.subCategory = Uppercase;
};
width = 820;
},
{
anchors = (
{
name = bottom;
pos = (420,0);
},
{
name = ogonek;
pos = (523,0);
},
{
name = top;
pos = (420,810);
},
{
name = topright;
pos = (820,810);
}
);
layerId = "FB8C5FF2-3B42-4CDF-AA26-B13980DDC748";
shapes = (
{
closed = 1;
nodes = (
(612,-12,o),
(756,92,o),
(756,304,cs),
(756,810,l),
(572,810,l),
(572,335,ls),
(572,237,o),
(522,164,o),
(422,164,cs),
(325,164,o),
(272,229,o),
(272,336,cs),
(272,810,l),
(84,810,l),
(84,306,ls),
(84,84,o),
(233,-12,o),
(417,-12,cs)
);
}
);
userData = {
com.schriftgestaltung.Glyphs.category = Letter;
com.schriftgestaltung.Glyphs.script = latin;
com.schriftgestaltung.Glyphs.subCategory = Uppercase;
};
width = 840;
}
);
unicode = 85;
},
{
color = 9;
glyphname = V;
kernLeft = V;
kernRight = V;
lastChange = "2024-04-18 12:20:33 +0000";
layers = (
{
anchors = (
{
name = bottom;
pos = (375,0);
},
{
name = top;
pos = (375,810);
}
);
background = {
shapes = (
{
closed = 1;
nodes = (
(655,801,l),
(469,275,ls),
(446,210,o),
(429,155,o),
(419,105,c),
(408,155,o),
(392,209,o),
(370,273,cs),
(182,801,l),
(85,801,l),
(372,0,l),
(466,0,l),
(754,801,l)
);
}
);
};
layerId = "4683CC84-822E-4D29-9A51-72FC3DB48604";
shapes = (
{
closed = 1;
nodes = (
(433,0,l),
(738,810,l),
(639,810,l),
(380,96,l),
(376,96,l),
(115,810,l),
(12,810,l),
(317,0,l)
);
}
);
userData = {
com.schriftgestaltung.Glyphs.category = Letter;
com.schriftgestaltung.Glyphs.script = latin;
com.schriftgestaltung.Glyphs.subCategory = Uppercase;
};
width = 750;
},
{
anchors = (
{
name = bottom;
pos = (415,0);
},
{
name = top;
pos = (415,810);
}
);
layerId = "FB8C5FF2-3B42-4CDF-AA26-B13980DDC748";
shapes = (
{
closed = 1;
nodes = (
(523,0,l),
(818,810,l),
(619,810,l),
(420,216,l),
(416,216,l),
(215,810,l),
(12,810,l),
(307,0,l)
);
}
);
userData = {
com.schriftgestaltung.Glyphs.category = Letter;
com.schriftgestaltung.Glyphs.script = latin;
com.schriftgestaltung.Glyphs.subCategory = Uppercase;
};
width = 830;
}
);
unicode = 86;
},
{
color = 9;
glyphname = W;
kernLeft = V;
kernRight = V;
lastChange = "2024-04-18 12:18:19 +0000";
layers = (
{
anchors = (
{
name = bottom;
pos = (540,0);
},
{
name = top;
pos = (536,810);
}
);
layerId = "4683CC84-822E-4D29-9A51-72FC3DB48604";
shapes = (
{
closed = 1;
nodes = (
(347,0,l),
(533,699,l),
(537,699,l),
(733,0,l),
(835,0,l),
(1044,810,l),
(946,810,l),
(784,114,l),
(780,114,l),
(584,810,l),
(488,810,l),
(301,114,l),
(297,114,l),
(134,810,l),
(36,810,l),
(245,0,l)
);
}
);
userData = {
com.schriftgestaltung.Glyphs.category = Letter;
com.schriftgestaltung.Glyphs.script = latin;
com.schriftgestaltung.Glyphs.subCategory = Uppercase;
};
width = 1080;
},
{
anchors = (
{
name = bottom;
pos = (560,0);
},
{
name = top;
pos = (560,810);
}
);
layerId = "FB8C5FF2-3B42-4CDF-AA26-B13980DDC748";
shapes = (
{
closed = 1;
nodes = (
(421,0,l),
(555,522,l),
(559,522,l),
(699,0,l),
(879,0,l),
(1084,810,l),
(892,810,l),
(783,311,l),
(779,311,l),
(641,810,l),
(473,810,l),
(341,311,l),
(337,311,l),
(228,810,l),
(36,810,l),
(241,0,l)
);
}
);
userData = {
com.schriftgestaltung.Glyphs.category = Letter;
com.schriftgestaltung.Glyphs.script = latin;
com.schriftgestaltung.Glyphs.subCategory = Uppercase;
};
width = 1120;
}
);
unicode = 87;
},
{
color = 9;
glyphname = X;
kernLeft = X;
kernRight = K;
lastChange = "2024-04-18 12:23:01 +0000";
layers = (
{
anchors = (
{
name = bottom;
pos = (352,0);
},
{
name = top;
pos = (358,810);
}
);
background = {
shapes = (
{
closed = 1;
nodes = (
(666,810,l),
(574,810,l),
(574,461,l),
(136,461,l),
(136,810,l),
(44,810,l),
(44,0,l),
(136,0,l),
(136,379,l),
(574,379,l),
(574,0,l),
(666,0,l)
);
}
);
};
guides = (
{
angle = -56.6543;
pos = (551,212);
},
{
angle = -57.664;
pos = (466,179);
}
);
layerId = "4683CC84-822E-4D29-9A51-72FC3DB48604";
shapes = (
{
closed = 1;
nodes = (
(122,0,l),
(352,357,l),
(356,357,l),
(582,0,l),
(690,0,l),
(413,424,l),
(670,810,l),
(570,810,l),
(360,486,l),
(356,486,l),
(146,810,l),
(40,810,l),
(297,422,l),
(20,0,l)
);
}
);
userData = {
com.schriftgestaltung.Glyphs.category = Letter;
com.schriftgestaltung.Glyphs.script = latin;
com.schriftgestaltung.Glyphs.subCategory = Uppercase;
};
width = 710;
},
{
anchors = (
{
name = bottom;
pos = (395,0);
},
{
name = top;
pos = (395,810);
}
);
layerId = "FB8C5FF2-3B42-4CDF-AA26-B13980DDC748";
shapes = (
{
closed = 1;
nodes = (
(214,0,l),
(392,280,l),
(396,280,l),
(570,0,l),
(782,0,l),
(507,424,l),
(762,810,l),
(558,810,l),
(400,563,l),
(396,563,l),
(238,810,l),
(28,810,l),
(283,422,l),
(8,0,l)
);
}
);
userData = {
com.schriftgestaltung.Glyphs.category = Letter;
com.schriftgestaltung.Glyphs.script = latin;
com.schriftgestaltung.Glyphs.subCategory = Uppercase;
};
width = 790;
}
);
unicode = 88;
},
{
color = 9;
glyphname = Y;
kernLeft = Y;
kernRight = Y;
lastChange = "2024-04-18 12:21:13 +0000";
layers = (
{
anchors = (
{
name = bottom;
pos = (330,0);
},
{
name = top;
pos = (333,810);
},
{
name = topleft;
pos = (0,810);
}
);
layerId = "4683CC84-822E-4D29-9A51-72FC3DB48604";
shapes = (
{
closed = 1;
nodes = (
(376,0,l),
(376,308,l),
(648,810,l),
(548,810,l),
(335,403,l),
(331,403,l),
(118,810,l),
(12,810,l),
(284,306,l),
(284,0,l)
);
}
);
userData = {
com.schriftgestaltung.Glyphs.category = Letter;
com.schriftgestaltung.Glyphs.script = latin;
com.schriftgestaltung.Glyphs.subCategory = Uppercase;
};
width = 660;
},
{
anchors = (
{
name = bottom;
pos = (370,0);
},
{
name = top;
pos = (370,810);
},
{
name = topleft;
pos = (20,810);
}
);
layerId = "FB8C5FF2-3B42-4CDF-AA26-B13980DDC748";
shapes = (
{
closed = 1;
nodes = (
(462,0,l),
(462,301,l),
(728,810,l),
(528,810,l),
(375,489,l),
(371,489,l),
(218,810,l),
(12,810,l),
(278,299,l),
(278,0,l)
);
}
);
userData = {
com.schriftgestaltung.Glyphs.category = Letter;
com.schriftgestaltung.Glyphs.script = latin;
com.schriftgestaltung.Glyphs.subCategory = Uppercase;
};
width = 740;
}
);
unicode = 89;
},
{
color = 9;
glyphname = Z;
kernLeft = Z;
kernRight = Z;
lastChange = "2024-04-18 12:15:16 +0000";
layers = (
{
anchors = (
{
name = bottom;
pos = (340,0);
},
{
name = center;
pos = (340,405);
},
{
name = top;
pos = (340,810);
}
);
layerId = "4683CC84-822E-4D29-9A51-72FC3DB48604";
shapes = (
{
closed = 1;
nodes = (
(626,0,l),
(626,82,l),
(164,82,l),
(614,738,l),
(614,810,l),
(72,810,l),
(72,728,l),
(504,728,l),
(54,72,l),
(54,0,l)
);
}
);
userData = {
com.schriftgestaltung.Glyphs.category = Letter;
com.schriftgestaltung.Glyphs.script = latin;
com.schriftgestaltung.Glyphs.subCategory = Uppercase;
};
width = 680;
},
{
anchors = (
{
name = bottom;
pos = (340,0);
},
{
name = center;
pos = (340,405);
},
{
name = top;
pos = (340,810);
}
);
guides = (
{
angle = 55.5915;
pos = (444,415);
},
{
angle = 235.5915;
pos = (224,395);
}
);
layerId = "FB8C5FF2-3B42-4CDF-AA26-B13980DDC748";
shapes = (
{
closed = 1;
nodes = (
(646,0,l),
(646,164,l),
(273,164,l),
(634,690,l),
(634,810,l),
(52,810,l),
(52,646,l),
(396,646,l),
(34,120,l),
(34,0,l)
);
}
);
userData = {
com.schriftgestaltung.Glyphs.category = Letter;
com.schriftgestaltung.Glyphs.script = latin;
com.schriftgestaltung.Glyphs.subCategory = Uppercase;
};
width = 680;
}
);
unicode = 90;
},
{
export = 0;
glyphname = AE;
lastChange = "2024-04-18 14:36:17 +0000";
layers = (
{
anchors = (
{
name = bottom;
pos = (487,0);
},
{
name = top;
pos = (487,810);
}
);
layerId = "4683CC84-822E-4D29-9A51-72FC3DB48604";
shapes = (
{
closed = 1;
nodes = (
(912,82,l),
(586,82,l),
(586,378,l),
(890,378,l),
(890,459,l),
(586,459,l),
(586,718,l),
(912,718,l),
(912,801,l),
(375,801,l),
(-1,0,l),
(95,0,l),
(217,254,l),
(493,254,l),
(493,0,l),
(912,0,l)
);
},
{
closed = 1;
nodes = (
(430,717,l),
(493,717,l),
(493,337,l),
(253,337,l)
);
}
);
userData = {
com.schriftgestaltung.Glyphs.category = Letter;
com.schriftgestaltung.Glyphs.script = latin;
com.schriftgestaltung.Glyphs.subCategory = Uppercase;
};
width = 973;
},
{
anchors = (
{
name = bottom;
pos = (487,0);
},
{
name = top;
pos = (487,810);
}
);
layerId = "FB8C5FF2-3B42-4CDF-AA26-B13980DDC748";
shapes = (
{
closed = 1;
nodes = (
(912,82,l),
(586,82,l),
(586,378,l),
(890,378,l),
(890,459,l),
(586,459,l),
(586,718,l),
(912,718,l),
(912,801,l),
(375,801,l),
(-1,0,l),
(95,0,l),
(217,254,l),
(493,254,l),
(493,0,l),
(912,0,l)
);
},
{
closed = 1;
nodes = (
(430,717,l),
(493,717,l),
(493,337,l),
(253,337,l)
);
}
);
userData = {
com.schriftgestaltung.Glyphs.category = Letter;
com.schriftgestaltung.Glyphs.script = latin;
com.schriftgestaltung.Glyphs.subCategory = Uppercase;
};
width = 973;
}
);
unicode = 198;
},
{
export = 0;
glyphname = Eth;
lastChange = "2024-04-18 14:36:17 +0000";
layers = (
{
layerId = "4683CC84-822E-4D29-9A51-72FC3DB48604";
shapes = (
{
closed = 1;
nodes = (
(117,801,l),
(117,437,l),
(32,437,l),
(32,355,l),
(117,355,l),
(117,0,l),
(326,0,ls),
(593,0,o),
(745,138,o),
(745,408,cs),
(745,665,o),
(594,801,o),
(351,801,cs)
);
},
{
closed = 1;
nodes = (
(536,721,o),
(647,620,o),
(647,405,cs),
(647,189,o),
(537,80,o),
(316,80,cs),
(209,80,l),
(209,355,l),
(413,355,l),
(413,437,l),
(209,437,l),
(209,721,l),
(337,721,ls)
);
}
);
userData = {
com.schriftgestaltung.Glyphs.category = Letter;
com.schriftgestaltung.Glyphs.script = latin;
com.schriftgestaltung.Glyphs.subCategory = Uppercase;
};
width = 815;
},
{
layerId = "FB8C5FF2-3B42-4CDF-AA26-B13980DDC748";
shapes = (
{
closed = 1;
nodes = (
(117,801,l),
(117,437,l),
(32,437,l),
(32,355,l),
(117,355,l),
(117,0,l),
(326,0,ls),
(593,0,o),
(745,138,o),
(745,408,cs),
(745,665,o),
(594,801,o),
(351,801,cs)
);
},
{
closed = 1;
nodes = (
(536,721,o),
(647,620,o),
(647,405,cs),
(647,189,o),
(537,80,o),
(316,80,cs),
(209,80,l),
(209,355,l),
(413,355,l),
(413,437,l),
(209,437,l),
(209,721,l),
(337,721,ls)
);
}
);
userData = {
com.schriftgestaltung.Glyphs.category = Letter;
com.schriftgestaltung.Glyphs.script = latin;
com.schriftgestaltung.Glyphs.subCategory = Uppercase;
};
width = 815;
}
);
unicode = 208;
},
{
export = 0;
glyphname = Hbar;
lastChange = "2024-04-18 14:36:17 +0000";
layers = (
{
layerId = "4683CC84-822E-4D29-9A51-72FC3DB48604";
shapes = (
{
closed = 1;
nodes = (
(203,0,l),
(203,377,l),
(623,377,l),
(623,0,l),
(716,0,l),
(716,590,l),
(826,590,l),
(826,665,l),
(716,665,l),
(716,801,l),
(623,801,l),
(623,665,l),
(203,665,l),
(203,801,l),
(110,801,l),
(110,665,l),
(0,665,l),
(0,590,l),
(110,590,l),
(110,0,l)
);
},
{
closed = 1;
nodes = (
(203,590,l),
(623,590,l),
(623,459,l),
(203,459,l)
);
}
);
userData = {
com.schriftgestaltung.Glyphs.category = Letter;
com.schriftgestaltung.Glyphs.script = latin;
com.schriftgestaltung.Glyphs.subCategory = Uppercase;
};
width = 827;
},
{
layerId = "FB8C5FF2-3B42-4CDF-AA26-B13980DDC748";
shapes = (
{
closed = 1;
nodes = (
(203,0,l),
(203,377,l),
(623,377,l),
(623,0,l),
(716,0,l),
(716,590,l),
(826,590,l),
(826,665,l),
(716,665,l),
(716,801,l),
(623,801,l),
(623,665,l),
(203,665,l),
(203,801,l),
(110,801,l),
(110,665,l),
(0,665,l),
(0,590,l),
(110,590,l),
(110,0,l)
);
},
{
closed = 1;
nodes = (
(203,590,l),
(623,590,l),
(623,459,l),
(203,459,l)
);
}
);
userData = {
com.schriftgestaltung.Glyphs.category = Letter;
com.schriftgestaltung.Glyphs.script = latin;
com.schriftgestaltung.Glyphs.subCategory = Uppercase;
};
width = 827;
}
);
unicode = 294;
},
{
export = 0;
glyphname = Lslash;
lastChange = "2024-04-18 14:36:17 +0000";
layers = (
{
layerId = "4683CC84-822E-4D29-9A51-72FC3DB48604";
shapes = (
{
closed = 1;
nodes = (
(558,0,l),
(558,83,l),
(203,83,l),
(203,336,l),
(398,451,l),
(361,516,l),
(203,422,l),
(203,801,l),
(110,801,l),
(110,367,l),
(14,309,l),
(51,248,l),
(110,281,l),
(110,0,l)
);
}
);
userData = {
com.schriftgestaltung.Glyphs.category = Letter;
com.schriftgestaltung.Glyphs.script = latin;
com.schriftgestaltung.Glyphs.subCategory = Uppercase;
};
width = 586;
},
{
layerId = "FB8C5FF2-3B42-4CDF-AA26-B13980DDC748";
shapes = (
{
closed = 1;
nodes = (
(558,0,l),
(558,83,l),
(203,83,l),
(203,336,l),
(398,451,l),
(361,516,l),
(203,422,l),
(203,801,l),
(110,801,l),
(110,367,l),
(14,309,l),
(51,248,l),
(110,281,l),
(110,0,l)
);
}
);
userData = {
com.schriftgestaltung.Glyphs.category = Letter;
com.schriftgestaltung.Glyphs.script = latin;
com.schriftgestaltung.Glyphs.subCategory = Uppercase;
};
width = 586;
}
);
unicode = 321;
},
{
export = 0;
glyphname = Eng;
lastChange = "2024-04-18 14:36:17 +0000";
layers = (
{
anchors = (
{
name = bottom;
pos = (423,0);
},
{
name = top;
pos = (423,810);
}
);
layerId = "4683CC84-822E-4D29-9A51-72FC3DB48604";
shapes = (
{
closed = 1;
nodes = (
(656,-211,o),
(735,-141,o),
(735,6,cs),
(735,801,l),
(648,801,l),
(648,367,ls),
(648,288,o),
(651,198,o),
(655,149,c),
(651,149,l),
(216,801,l),
(110,801,l),
(110,0,l),
(196,0,l),
(196,448,ls),
(196,527,o),
(191,627,o),
(187,672,c),
(192,672,l),
(648,1,l),
(647,-99,o),
(590,-129,o),
(529,-129,cs),
(496,-129,o),
(467,-124,o),
(443,-118,c),
(443,-196,l),
(463,-205,o),
(492,-211,o),
(529,-211,cs)
);
}
);
userData = {
com.schriftgestaltung.Glyphs.category = Letter;
com.schriftgestaltung.Glyphs.script = latin;
com.schriftgestaltung.Glyphs.subCategory = Uppercase;
};
width = 845;
},
{
anchors = (
{
name = bottom;
pos = (423,0);
},
{
name = top;
pos = (423,810);
}
);
layerId = "FB8C5FF2-3B42-4CDF-AA26-B13980DDC748";
shapes = (
{
closed = 1;
nodes = (
(656,-211,o),
(735,-141,o),
(735,6,cs),
(735,801,l),
(648,801,l),
(648,367,ls),
(648,288,o),
(651,198,o),
(655,149,c),
(651,149,l),
(216,801,l),
(110,801,l),
(110,0,l),
(196,0,l),
(196,448,ls),
(196,527,o),
(191,627,o),
(187,672,c),
(192,672,l),
(648,1,l),
(647,-99,o),
(590,-129,o),
(529,-129,cs),
(496,-129,o),
(467,-124,o),
(443,-118,c),
(443,-196,l),
(463,-205,o),
(492,-211,o),
(529,-211,cs)
);
}
);
userData = {
com.schriftgestaltung.Glyphs.category = Letter;
com.schriftgestaltung.Glyphs.script = latin;
com.schriftgestaltung.Glyphs.subCategory = Uppercase;
};
width = 845;
}
);
unicode = 330;
},
{
export = 0;
glyphname = Oslash;
lastChange = "2024-04-18 14:36:17 +0000";
layers = (
{
anchors = (
{
name = bottom;
pos = (436,0);
},
{
name = top;
pos = (436,810);
}
);
layerId = "4683CC84-822E-4D29-9A51-72FC3DB48604";
shapes = (
{
closed = 1;
nodes = (
(804,534,o),
(767,640,o),
(699,712,c),
(757,793,l),
(694,836,l),
(640,760,l),
(585,793,o),
(517,813,o),
(439,813,cs),
(189,813,o),
(68,648,o),
(68,402,cs),
(68,273,o),
(101,166,o),
(168,93,c),
(107,8,l),
(171,-34,l),
(227,45,l),
(281,8,o),
(351,-11,o),
(437,-11,cs),
(677,-11,o),
(804,154,o),
(804,401,cs)
);
},
{
closed = 1;
nodes = (
(706,197,o),
(623,70,o),
(437,70,cs),
(371,70,o),
(317,87,o),
(277,116,c),
(645,635,l),
(685,579,o),
(706,499,o),
(706,401,cs)
);
},
{
closed = 1;
nodes = (
(166,606,o),
(252,731,o),
(439,731,cs),
(501,731,o),
(551,716,o),
(590,688,c),
(223,172,l),
(185,229,o),
(166,307,o),
(166,401,cs)
);
}
);
userData = {
com.schriftgestaltung.Glyphs.category = Letter;
com.schriftgestaltung.Glyphs.script = latin;
com.schriftgestaltung.Glyphs.subCategory = Uppercase;
};
width = 872;
},
{
anchors = (
{
name = bottom;
pos = (436,0);
},
{
name = top;
pos = (436,810);
}
);
layerId = "FB8C5FF2-3B42-4CDF-AA26-B13980DDC748";
shapes = (
{
closed = 1;
nodes = (
(804,534,o),
(767,640,o),
(699,712,c),
(757,793,l),
(694,836,l),
(640,760,l),
(585,793,o),
(517,813,o),
(439,813,cs),
(189,813,o),
(68,648,o),
(68,402,cs),
(68,273,o),
(101,166,o),
(168,93,c),
(107,8,l),
(171,-34,l),
(227,45,l),
(281,8,o),
(351,-11,o),
(437,-11,cs),
(677,-11,o),
(804,154,o),
(804,401,cs)
);
},
{
closed = 1;
nodes = (
(706,197,o),
(623,70,o),
(437,70,cs),
(371,70,o),
(317,87,o),
(277,116,c),
(645,635,l),
(685,579,o),
(706,499,o),
(706,401,cs)
);
},
{
closed = 1;
nodes = (
(166,606,o),
(252,731,o),
(439,731,cs),
(501,731,o),
(551,716,o),
(590,688,c),
(223,172,l),
(185,229,o),
(166,307,o),
(166,401,cs)
);
}
);
userData = {
com.schriftgestaltung.Glyphs.category = Letter;
com.schriftgestaltung.Glyphs.script = latin;
com.schriftgestaltung.Glyphs.subCategory = Uppercase;
};
width = 872;
}
);
unicode = 216;
},
{
export = 0;
glyphname = OE;
lastChange = "2024-04-18 14:36:17 +0000";
layers = (
{
anchors = (
{
name = bottom;
pos = (519,0);
},
{
name = top;
pos = (519,810);
}
);
layerId = "4683CC84-822E-4D29-9A51-72FC3DB48604";
shapes = (
{
closed = 1;
nodes = (
(189,812,o),
(68,650,o),
(68,402,cs),
(68,154,o),
(188,-10,o),
(437,-10,cs),
(475,-10,o),
(511,-6,o),
(543,0,c),
(970,0,l),
(970,82,l),
(639,82,l),
(639,378,l),
(948,378,l),
(948,459,l),
(639,459,l),
(639,718,l),
(970,718,l),
(970,801,l),
(538,801,ls),
(505,808,o),
(470,812,o),
(432,812,cs)
);
},
{
closed = 1;
nodes = (
(481,730,o),
(517,725,o),
(547,714,c),
(547,88,l),
(517,77,o),
(480,71,o),
(439,71,cs),
(252,71,o),
(165,197,o),
(165,401,cs),
(165,606,o),
(252,730,o),
(440,730,cs)
);
}
);
userData = {
com.schriftgestaltung.Glyphs.category = Letter;
com.schriftgestaltung.Glyphs.script = latin;
com.schriftgestaltung.Glyphs.subCategory = Uppercase;
};
width = 1037;
},
{
anchors = (
{
name = bottom;
pos = (519,0);
},
{
name = top;
pos = (519,810);
}
);
layerId = "FB8C5FF2-3B42-4CDF-AA26-B13980DDC748";
shapes = (
{
closed = 1;
nodes = (
(189,812,o),
(68,650,o),
(68,402,cs),
(68,154,o),
(188,-10,o),
(437,-10,cs),
(475,-10,o),
(511,-6,o),
(543,0,c),
(970,0,l),
(970,82,l),
(639,82,l),
(639,378,l),
(948,378,l),
(948,459,l),
(639,459,l),
(639,718,l),
(970,718,l),
(970,801,l),
(538,801,ls),
(505,808,o),
(470,812,o),
(432,812,cs)
);
},
{
closed = 1;
nodes = (
(481,730,o),
(517,725,o),
(547,714,c),
(547,88,l),
(517,77,o),
(480,71,o),
(439,71,cs),
(252,71,o),
(165,197,o),
(165,401,cs),
(165,606,o),
(252,730,o),
(440,730,cs)
);
}
);
userData = {
com.schriftgestaltung.Glyphs.category = Letter;
com.schriftgestaltung.Glyphs.script = latin;
com.schriftgestaltung.Glyphs.subCategory = Uppercase;
};
width = 1037;
}
);
unicode = 338;
},
{
export = 0;
glyphname = Thorn;
lastChange = "2024-04-18 14:36:17 +0000";
layers = (
{
anchors = (
{
name = bottom;
pos = (338,0);
},
{
name = top;
pos = (338,810);
}
);
layerId = "4683CC84-822E-4D29-9A51-72FC3DB48604";
shapes = (
{
closed = 1;
nodes = (
(617,577,o),
(529,660,o),
(317,660,cs),
(203,660,l),
(203,801,l),
(110,801,l),
(110,0,l),
(203,0,l),
(203,176,l),
(299,176,ls),
(537,176,o),
(617,291,o),
(617,428,cs)
);
},
{
closed = 1;
nodes = (
(203,581,l),
(309,581,ls),
(457,581,o),
(521,531,o),
(521,423,cs),
(521,302,o),
(447,255,o),
(289,255,cs),
(203,255,l)
);
}
);
userData = {
com.schriftgestaltung.Glyphs.category = Letter;
com.schriftgestaltung.Glyphs.script = latin;
com.schriftgestaltung.Glyphs.subCategory = Uppercase;
};
width = 676;
},
{
anchors = (
{
name = bottom;
pos = (338,0);
},
{
name = top;
pos = (338,810);
}
);
layerId = "FB8C5FF2-3B42-4CDF-AA26-B13980DDC748";
shapes = (
{
closed = 1;
nodes = (
(617,577,o),
(529,660,o),
(317,660,cs),
(203,660,l),
(203,801,l),
(110,801,l),
(110,0,l),
(203,0,l),
(203,176,l),
(299,176,ls),
(537,176,o),
(617,291,o),
(617,428,cs)
);
},
{
closed = 1;
nodes = (
(203,581,l),
(309,581,ls),
(457,581,o),
(521,531,o),
(521,423,cs),
(521,302,o),
(447,255,o),
(289,255,cs),
(203,255,l)
);
}
);
userData = {
com.schriftgestaltung.Glyphs.category = Letter;
com.schriftgestaltung.Glyphs.script = latin;
com.schriftgestaltung.Glyphs.subCategory = Uppercase;
};
width = 676;
}
);
unicode = 222;
},
{
export = 0;
glyphname = Germandbls;
lastChange = "2024-04-18 14:36:17 +0000";
layers = (
{
anchors = (
{
name = bottom;
pos = (394,0);
},
{
name = top;
pos = (394,810);
}
);
layerId = "4683CC84-822E-4D29-9A51-72FC3DB48604";
shapes = (
{
closed = 1;
nodes = (
(199,812,o),
(102,688,o),
(102,520,cs),
(102,0,l),
(194,0,l),
(194,520,ls),
(194,646,o),
(257,731,o),
(395,731,cs),
(486,731,o),
(537,695,o),
(563,638,c),
(389,452,l),
(389,384,l),
(454,384,ls),
(585,384,o),
(652,332,o),
(652,232,cs),
(652,128,o),
(596,66,o),
(468,66,cs),
(401,66,o),
(326,85,o),
(269,117,c),
(269,31,l),
(326,1,o),
(394,-10,o),
(472,-10,cs),
(664,-10,o),
(749,90,o),
(749,232,cs),
(749,375,o),
(645,457,o),
(503,461,c),
(664,633,l),
(629,742,o),
(547,812,o),
(400,812,cs)
);
}
);
userData = {
com.schriftgestaltung.Glyphs.category = Letter;
com.schriftgestaltung.Glyphs.script = latin;
com.schriftgestaltung.Glyphs.subCategory = Uppercase;
};
width = 788;
},
{
anchors = (
{
name = bottom;
pos = (394,0);
},
{
name = top;
pos = (394,810);
}
);
layerId = "FB8C5FF2-3B42-4CDF-AA26-B13980DDC748";
shapes = (
{
closed = 1;
nodes = (
(199,812,o),
(102,688,o),
(102,520,cs),
(102,0,l),
(194,0,l),
(194,520,ls),
(194,646,o),
(257,731,o),
(395,731,cs),
(486,731,o),
(537,695,o),
(563,638,c),
(389,452,l),
(389,384,l),
(454,384,ls),
(585,384,o),
(652,332,o),
(652,232,cs),
(652,128,o),
(596,66,o),
(468,66,cs),
(401,66,o),
(326,85,o),
(269,117,c),
(269,31,l),
(326,1,o),
(394,-10,o),
(472,-10,cs),
(664,-10,o),
(749,90,o),
(749,232,cs),
(749,375,o),
(645,457,o),
(503,461,c),
(664,633,l),
(629,742,o),
(547,812,o),
(400,812,cs)
);
}
);
userData = {
com.schriftgestaltung.Glyphs.category = Letter;
com.schriftgestaltung.Glyphs.script = latin;
com.schriftgestaltung.Glyphs.subCategory = Uppercase;
};
width = 788;
}
);
unicode = 7838;
},
{
color = 9;
glyphname = a;
kernLeft = a;
kernRight = a;
lastChange = "2024-04-18 12:25:41 +0000";
layers = (
{
anchors = (
{
name = bottom;
pos = (320,0);
},
{
name = ogonek;
pos = (574,0);
},
{
name = top;
pos = (314,600);
}
);
background = {
shapes = (
{
closed = 1;
nodes = (
(317,-11,o),
(371,19,o),
(404,77,c),
(408,77,l),
(408,0,l),
(574,0,l),
(574,375,ls),
(574,525,o),
(481,612,o),
(319,612,cs),
(170,612,o),
(77,539,o),
(54,406,c),
(232,406,l),
(243,445,o),
(276,468,o),
(320,468,cs),
(371,468,o),
(402,437,o),
(402,386,cs),
(402,241,ls),
(402,175,o),
(350,127,o),
(280,127,cs),
(234,127,o),
(208,148,o),
(208,184,cs),
(208,219,o),
(230,239,o),
(272,244,cs),
(447,265,l),
(447,385,l),
(228,360,ls),
(105,346,o),
(36,280,o),
(36,175,cs),
(36,62,o),
(116,-11,o),
(241,-11,cs)
);
}
);
};
guides = (
{
angle = 90;
pos = (574,193);
},
{
angle = 270;
pos = (402,312);
},
{
angle = 90;
pos = (177,164);
},
{
angle = 90;
pos = (9,163);
},
{
angle = 180;
pos = (143,406);
},
{
pos = (338,373);
},
{
pos = (360,255);
}
);
layerId = "FB8C5FF2-3B42-4CDF-AA26-B13980DDC748";
name = "Bold alt";
shapes = (
{
closed = 1;
nodes = (
(316,-11,o),
(371,18,o),
(404,77,c),
(408,77,l),
(408,0,l),
(574,0,l),
(574,375,ls),
(574,525,o),
(478,612,o),
(313,612,cs),
(165,612,o),
(69,539,o),
(42,406,c),
(224,406,l),
(235,446,o),
(268,468,o),
(314,468,cs),
(368,468,o),
(402,437,o),
(402,386,cs),
(402,241,ls),
(402,175,o),
(350,127,o),
(280,127,cs),
(236,127,o),
(208,149,o),
(208,187,cs),
(208,222,o),
(233,244,o),
(276,244,cs),
(447,244,l),
(447,364,l),
(268,364,ls),
(121,364,o),
(36,296,o),
(36,178,cs),
(36,64,o),
(117,-11,o),
(241,-11,cs)
);
}
);
userData = {
com.schriftgestaltung.Glyphs.category = Letter;
com.schriftgestaltung.Glyphs.script = latin;
com.schriftgestaltung.Glyphs.subCategory = Lowercase;
};
width = 640;
},
{
anchors = (
{
name = bottom;
pos = (310,0);
},
{
name = ogonek;
pos = (528,0);
},
{
name = top;
pos = (300,600);
}
);
background = {
shapes = (
{
closed = 1;
nodes = (
(178,-12,o),
(88,34,o),
(36,115,o),
(36,166,qs),
(36,258,o),
(164,344,o),
(254,352,qs),
(420,365,l),
(420,384,ls),
(420,446,o),
(353,516,o),
(295,516,qs),
(286,516,ls),
(236,516,o),
(167,469,o),
(162,426,q),
(48,426,l),
(53,509,o),
(188,612,o),
(290,612,qs),
(367,612,o),
(478,551,o),
(534,446,o),
(534,384,qs),
(534,132,ls),
(534,42,o),
(540,0,q),
(432,0,l),
(426,30,o),
(426,96,q),
(407,52,o),
(302,-12,o),
(234,-12,qs)
);
},
{
closed = 1;
nodes = (
(257,84,ls),
(294,84,o),
(370,120,o),
(420,181,o),
(420,216,qs),
(420,277,l),
(270,265,ls),
(216,260,o),
(150,211,o),
(150,170,qs),
(150,133,o),
(205,84,o),
(247,84,qs)
);
}
);
};
guides = (
{
angle = 186.6135;
pos = (233,263);
}
);
layerId = "4683CC84-822E-4D29-9A51-72FC3DB48604";
name = "Light alt";
shapes = (
{
closed = 1;
nodes = (
(332,-11,o),
(407,36,o),
(438,111,c),
(442,111,l),
(442,0,l),
(528,0,l),
(528,385,ls),
(528,529,o),
(442,612,o),
(298,612,cs),
(171,612,o),
(77,540,o),
(60,430,c),
(152,430,l),
(167,495,o),
(218,532,o),
(295,532,cs),
(388,532,o),
(442,477,o),
(442,378,cs),
(442,245,ls),
(442,144,o),
(365,67,o),
(265,67,cs),
(184,67,o),
(132,108,o),
(132,172,cs),
(132,236,o),
(177,274,o),
(264,274,cs),
(488,274,l),
(488,346,l),
(257,346,ls),
(124,346,o),
(48,280,o),
(48,168,cs),
(48,63,o),
(130,-11,o),
(247,-11,cs)
);
}
);
userData = {
com.schriftgestaltung.Glyphs.category = Letter;
com.schriftgestaltung.Glyphs.script = latin;
com.schriftgestaltung.Glyphs.subCategory = Lowercase;
};
width = 620;
}
);
unicode = 97;
},
{
color = 9;
glyphname = b;
kernLeft = b;
kernRight = b;
lastChange = "2024-04-18 12:26:03 +0000";
layers = (
{
anchors = (
{
name = bottom;
pos = (350,0);
},
{
name = center;
pos = (350,300);
},
{
name = top;
pos = (350,600);
}
);
background = {
shapes = (
{
closed = 1;
nodes = (
(115,852,l),
(115,0,l),
(181,0,l),
(199,80,l),
(206,80,l),
(239,30,o),
(298,-11,o),
(394,-11,cs),
(546,-11,o),
(643,98,o),
(643,301,cs),
(643,506,o),
(546,611,o),
(396,611,cs),
(299,611,o),
(239,568,o),
(206,514,c),
(201,514,l),
(202,540,o),
(206,590,o),
(206,639,cs),
(206,852,l)
);
},
{
closed = 1;
nodes = (
(494,534,o),
(549,456,o),
(549,301,cs),
(549,149,o),
(493,65,o),
(381,65,cs),
(248,65,o),
(206,147,o),
(206,298,cs),
(206,303,ls),
(206,459,o),
(251,534,o),
(381,534,cs)
);
}
);
};
layerId = "FB8C5FF2-3B42-4CDF-AA26-B13980DDC748";
name = "Bold alt";
shapes = (
{
closed = 1;
nodes = (
(562,-12,o),
(662,115,o),
(662,300,cs),
(662,486,o),
(562,612,o),
(413,612,cs),
(340,612,o),
(285,580,o),
(254,523,c),
(250,523,l),
(250,840,l),
(70,840,l),
(70,0,l),
(244,0,l),
(244,82,l),
(248,82,l),
(282,21,o),
(338,-12,o),
(413,-12,cs)
);
},
{
closed = 1;
nodes = (
(293,148,o),
(250,197,o),
(250,278,cs),
(250,322,ls),
(250,403,o),
(293,452,o),
(363,452,cs),
(437,452,o),
(482,393,o),
(482,300,cs),
(482,207,o),
(437,148,o),
(363,148,cs)
);
}
);
userData = {
com.schriftgestaltung.Glyphs.category = Letter;
com.schriftgestaltung.Glyphs.script = latin;
com.schriftgestaltung.Glyphs.subCategory = Lowercase;
};
width = 700;
},
{
anchors = (
{
name = bottom;
pos = (345,0);
},
{
name = center;
pos = (345,300);
},
{
name = top;
pos = (345,600);
}
);
background = {
shapes = (
{
closed = 1;
nodes = (
(96,852,l),
(96,0,l),
(162,0,l),
(180,80,l),
(187,80,l),
(220,30,o),
(279,-11,o),
(375,-11,cs),
(527,-11,o),
(624,98,o),
(624,301,cs),
(624,506,o),
(527,611,o),
(377,611,cs),
(280,611,o),
(220,568,o),
(187,514,c),
(182,514,l),
(183,540,o),
(187,590,o),
(187,639,cs),
(187,852,l)
);
},
{
closed = 1;
nodes = (
(475,534,o),
(530,456,o),
(530,301,cs),
(530,149,o),
(474,65,o),
(362,65,cs),
(229,65,o),
(187,147,o),
(187,298,cs),
(187,303,ls),
(187,459,o),
(232,534,o),
(362,534,cs)
);
}
);
};
layerId = "4683CC84-822E-4D29-9A51-72FC3DB48604";
name = "Light alt";
shapes = (
{
closed = 1;
nodes = (
(529,-12,o),
(628,113,o),
(628,300,cs),
(628,487,o),
(529,612,o),
(379,612,cs),
(290,612,o),
(224,572,o),
(190,498,c),
(186,498,l),
(186,840,l),
(96,840,l),
(96,0,l),
(186,0,l),
(186,102,l),
(190,102,l),
(224,27,o),
(290,-12,o),
(379,-12,cs)
);
},
{
closed = 1;
nodes = (
(248,68,o),
(186,143,o),
(186,251,cs),
(186,349,ls),
(186,457,o),
(248,532,o),
(356,532,cs),
(466,532,o),
(538,440,o),
(538,300,cs),
(538,160,o),
(466,68,o),
(356,68,cs)
);
}
);
userData = {
com.schriftgestaltung.Glyphs.category = Letter;
com.schriftgestaltung.Glyphs.script = latin;
com.schriftgestaltung.Glyphs.subCategory = Lowercase;
};
width = 690;
}
);
unicode = 98;
},
{
color = 9;
glyphname = c;
kernLeft = d;
kernRight = c;
lastChange = "2024-04-18 13:45:05 +0000";
layers = (
{
anchors = (
{
name = bottom;
pos = (338,0);
},
{
name = top;
pos = (338,600);
}
);
background = {
shapes = (
{
closed = 1;
nodes = (
(502,-12,o),
(618,109,o),
(618,300,cs),
(618,492,o),
(503,612,o),
(340,612,cs),
(180,612,o),
(62,491,o),
(62,300,cs),
(62,110,o),
(180,-12,o),
(340,-12,cs)
);
},
{
closed = 1;
nodes = (
(226,70,o),
(152,161,o),
(152,300,cs),
(152,440,o),
(226,530,o),
(340,530,cs),
(456,530,o),
(528,440,o),
(528,300,cs),
(528,161,o),
(456,70,o),
(340,70,cs)
);
}
);
};
guides = (
{
angle = 180;
pos = (462,430);
}
);
layerId = "4683CC84-822E-4D29-9A51-72FC3DB48604";
shapes = (
{
closed = 1;
nodes = (
(461,-12,o),
(561,60,o),
(590,204,c),
(498,204,l),
(477,111,o),
(416,70,o),
(338,70,cs),
(226,70,o),
(152,161,o),
(152,300,cs),
(152,440,o),
(226,530,o),
(338,530,cs),
(412,530,o),
(471,493,o),
(493,406,c),
(587,406,l),
(556,545,o),
(458,612,o),
(338,612,cs),
(180,612,o),
(62,491,o),
(62,300,cs),
(62,110,o),
(180,-12,o),
(338,-12,cs)
);
}
);
userData = {
com.schriftgestaltung.Glyphs.category = Letter;
com.schriftgestaltung.Glyphs.script = latin;
com.schriftgestaltung.Glyphs.subCategory = Lowercase;
};
width = 620;
},
{
anchors = (
{
name = bottom;
pos = (334,0);
},
{
name = top;
pos = (334,600);
}
);
guides = (
{
angle = 180;
pos = (143,406);
},
{
pos = (134,204);
}
);
layerId = "FB8C5FF2-3B42-4CDF-AA26-B13980DDC748";
shapes = (
{
closed = 1;
nodes = (
(481,-12,o),
(598,69,o),
(616,227,c),
(436,227,l),
(422,172,o),
(385,148,o),
(334,148,cs),
(266,148,o),
(218,207,o),
(218,300,cs),
(218,394,o),
(266,452,o),
(334,452,cs),
(381,452,o),
(417,427,o),
(430,382,c),
(614,382,l),
(593,529,o),
(479,612,o),
(334,612,cs),
(163,612,o),
(38,491,o),
(38,300,cs),
(38,110,o),
(163,-12,o),
(334,-12,cs)
);
}
);
userData = {
com.schriftgestaltung.Glyphs.category = Letter;
com.schriftgestaltung.Glyphs.script = latin;
com.schriftgestaltung.Glyphs.subCategory = Lowercase;
};
width = 630;
}
);
unicode = 99;
},
{
color = 9;
glyphname = d;
kernLeft = d;
kernRight = d;
lastChange = "2024-04-18 12:28:34 +0000";
layers = (
{
anchors = (
{
name = bottom;
pos = (345,0);
},
{
name = center;
pos = (345,300);
},
{
name = top;
pos = (549,840);
},
{
name = topright;
pos = (594,840);
}
);
background = {
shapes = (
{
closed = 1;
nodes = (
(430,-11,o),
(488,31,o),
(523,85,c),
(527,85,l),
(540,0,l),
(614,0,l),
(614,852,l),
(523,852,l),
(523,612,ls),
(523,586,o),
(527,539,o),
(529,517,c),
(523,517,l),
(487,570,o),
(430,611,o),
(335,611,cs),
(184,611,o),
(86,504,o),
(86,298,cs),
(86,93,o),
(182,-11,o),
(333,-11,cs)
);
},
{
closed = 1;
nodes = (
(235,65,o),
(181,148,o),
(181,296,cs),
(181,444,o),
(236,536,o),
(348,536,cs),
(481,536,o),
(524,451,o),
(524,298,cs),
(524,282,ls),
(524,138,o),
(476,65,o),
(348,65,cs)
);
}
);
};
layerId = "4683CC84-822E-4D29-9A51-72FC3DB48604";
shapes = (
{
closed = 1;
nodes = (
(400,-12,o),
(466,27,o),
(500,102,c),
(504,102,l),
(504,0,l),
(594,0,l),
(594,840,l),
(504,840,l),
(504,498,l),
(500,498,l),
(466,572,o),
(400,612,o),
(311,612,cs),
(161,612,o),
(62,487,o),
(62,300,cs),
(62,113,o),
(161,-12,o),
(311,-12,cs)
);
},
{
closed = 1;
nodes = (
(224,68,o),
(152,160,o),
(152,300,cs),
(152,440,o),
(224,532,o),
(334,532,cs),
(442,532,o),
(504,457,o),
(504,349,cs),
(504,251,ls),
(504,143,o),
(442,68,o),
(334,68,cs)
);
}
);
userData = {
com.schriftgestaltung.Glyphs.category = Letter;
com.schriftgestaltung.Glyphs.script = latin;
com.schriftgestaltung.Glyphs.subCategory = Lowercase;
};
width = 690;
},
{
anchors = (
{
name = bottom;
pos = (350,0);
},
{
name = center;
pos = (350,300);
},
{
name = top;
pos = (540,840);
},
{
name = topright;
pos = (630,840);
}
);
background = {
shapes = (
{
closed = 1;
nodes = (
(396,-11,o),
(454,31,o),
(489,85,c),
(493,85,l),
(506,0,l),
(580,0,l),
(580,852,l),
(489,852,l),
(489,612,ls),
(489,586,o),
(493,539,o),
(495,517,c),
(489,517,l),
(453,570,o),
(396,611,o),
(301,611,cs),
(150,611,o),
(52,504,o),
(52,298,cs),
(52,93,o),
(148,-11,o),
(299,-11,cs)
);
},
{
closed = 1;
nodes = (
(201,65,o),
(147,148,o),
(147,296,cs),
(147,444,o),
(202,536,o),
(314,536,cs),
(447,536,o),
(490,451,o),
(490,298,cs),
(490,282,ls),
(490,138,o),
(442,65,o),
(314,65,cs)
);
}
);
};
layerId = "FB8C5FF2-3B42-4CDF-AA26-B13980DDC748";
shapes = (
{
closed = 1;
nodes = (
(362,-12,o),
(418,21,o),
(452,82,c),
(456,82,l),
(456,0,l),
(630,0,l),
(630,840,l),
(450,840,l),
(450,523,l),
(446,523,l),
(415,580,o),
(360,612,o),
(287,612,cs),
(138,612,o),
(38,486,o),
(38,300,cs),
(38,115,o),
(138,-12,o),
(287,-12,cs)
);
},
{
closed = 1;
nodes = (
(263,148,o),
(218,207,o),
(218,300,cs),
(218,393,o),
(263,452,o),
(337,452,cs),
(407,452,o),
(450,403,o),
(450,322,cs),
(450,278,ls),
(450,197,o),
(407,148,o),
(337,148,cs)
);
}
);
userData = {
com.schriftgestaltung.Glyphs.category = Letter;
com.schriftgestaltung.Glyphs.script = latin;
com.schriftgestaltung.Glyphs.subCategory = Lowercase;
};
width = 700;
}
);
unicode = 100;
},
{
color = 9;
glyphname = e;
kernLeft = d;
kernRight = e;
lastChange = "2024-04-18 11:55:18 +0000";
layers = (
{
anchors = (
{
name = bottom;
pos = (325,0);
},
{
name = ogonek;
pos = (472,0);
},
{
name = top;
pos = (325,600);
}
);
background = {
shapes = (
{
closed = 1;
nodes = (
(166,611,o),
(62,490,o),
(62,296,cs),
(62,97,o),
(176,-11,o),
(349,-11,cs),
(430,-11,o),
(484,1,o),
(544,28,c),
(544,108,l),
(481,80,o),
(428,67,o),
(353,67,cs),
(229,67,o),
(159,142,o),
(157,283,c),
(571,283,l),
(571,340,ls),
(571,503,o),
(480,611,o),
(327,611,cs)
);
},
{
closed = 1;
nodes = (
(428,537,o),
(475,463,o),
(476,356,c),
(158,356,l),
(169,470,o),
(228,537,o),
(326,537,cs)
);
}
);
};
layerId = "4683CC84-822E-4D29-9A51-72FC3DB48604";
shapes = (
{
closed = 1;
nodes = (
(463,-12,o),
(559,59,o),
(586,179,c),
(494,179,l),
(475,112,o),
(416,70,o),
(339,70,cs),
(225,70,o),
(148,161,o),
(148,303,cs),
(148,444,o),
(224,532,o),
(333,532,cs),
(433,532,o),
(502,458,o),
(502,337,c),
(518,361,l),
(122,361,l),
(122,289,l),
(588,289,l),
(588,334,ls),
(588,504,o),
(481,612,o),
(334,612,cs),
(177,612,o),
(62,491,o),
(62,302,cs),
(62,110,o),
(180,-12,o),
(340,-12,cs)
);
}
);
userData = {
com.schriftgestaltung.Glyphs.category = Letter;
com.schriftgestaltung.Glyphs.script = latin;
com.schriftgestaltung.Glyphs.subCategory = Lowercase;
};
width = 650;
},
{
anchors = (
{
name = bottom;
pos = (335,0);
},
{
name = ogonek;
pos = (527,0);
},
{
name = top;
pos = (335,600);
}
);
background = {
shapes = (
{
closed = 1;
nodes = (
(176,611,o),
(72,490,o),
(72,296,cs),
(72,97,o),
(186,-11,o),
(359,-11,cs),
(440,-11,o),
(494,1,o),
(554,28,c),
(554,108,l),
(491,80,o),
(438,67,o),
(363,67,cs),
(239,67,o),
(169,142,o),
(167,283,c),
(581,283,l),
(581,340,ls),
(581,503,o),
(490,611,o),
(337,611,cs)
);
},
{
closed = 1;
nodes = (
(438,537,o),
(485,463,o),
(486,356,c),
(168,356,l),
(179,470,o),
(238,537,o),
(336,537,cs)
);
}
);
};
layerId = "FB8C5FF2-3B42-4CDF-AA26-B13980DDC748";
shapes = (
{
closed = 1;
nodes = (
(486,-12,o),
(599,66,o),
(622,197,c),
(438,197,l),
(426,156,o),
(394,132,o),
(344,132,cs),
(270,132,o),
(220,193,o),
(220,302,cs),
(220,410,o),
(269,468,o),
(340,468,cs),
(406,468,o),
(450,420,o),
(450,325,c),
(528,369,l),
(192,369,l),
(192,249,l),
(622,249,l),
(622,308,ls),
(622,504,o),
(499,612,o),
(339,612,cs),
(167,612,o),
(48,491,o),
(48,302,cs),
(48,110,o),
(171,-12,o),
(345,-12,cs)
);
}
);
userData = {
com.schriftgestaltung.Glyphs.category = Letter;
com.schriftgestaltung.Glyphs.script = latin;
com.schriftgestaltung.Glyphs.subCategory = Lowercase;
};
width = 670;
}
);
unicode = 101;
},
{
color = 9;
glyphname = f;
kernLeft = f;
kernRight = f;
lastChange = "2024-04-18 12:29:21 +0000";
layers = (
{
anchors = (
{
name = bottom;
pos = (190,0);
},
{
name = top;
pos = (190,960);
}
);
background = {
shapes = (
{
closed = 1;
nodes = (
(223,0,l),
(223,528,l),
(362,528,l),
(362,600,l),
(222,600,l),
(222,694,ls),
(222,746,o),
(244,768,o),
(291,768,cs),
(374,768,l),
(374,840,l),
(279,840,ls),
(188,840,o),
(134,790,o),
(134,694,cs),
(134,600,l),
(18,600,l),
(18,528,l),
(133,528,l),
(133,0,l)
);
}
);
};
layerId = "4683CC84-822E-4D29-9A51-72FC3DB48604";
name = Light;
shapes = (
{
closed = 1;
nodes = (
(223,0,l),
(223,528,l),
(362,528,l),
(362,600,l),
(222,600,l),
(222,768,l),
(374,768,l),
(374,840,l),
(224,840,ls),
(168,840,o),
(134,810,o),
(134,750,cs),
(134,600,l),
(18,600,l),
(18,528,l),
(133,528,l),
(133,0,l)
);
}
);
userData = {
com.schriftgestaltung.Glyphs.category = Letter;
com.schriftgestaltung.Glyphs.script = latin;
com.schriftgestaltung.Glyphs.subCategory = Lowercase;
};
width = 380;
},
{
anchors = (
{
name = bottom;
pos = (210,0);
},
{
name = top;
pos = (210,960);
}
);
background = {
shapes = (
{
closed = 1;
nodes = (
(383,600,l),
(234,600,l),
(234,644,ls),
(234,740,o),
(266,783,o),
(335,783,cs),
(367,783,o),
(399,774,o),
(425,767,c),
(448,838,l),
(419,848,o),
(380,858,o),
(334,858,cs),
(212,858,o),
(143,794,o),
(143,643,cs),
(143,603,l),
(36,573,l),
(36,529,l),
(143,529,l),
(143,0,l),
(234,0,l),
(234,529,l),
(383,529,l)
);
}
);
};
guides = (
{
angle = 270;
pos = (286,647);
},
{
angle = 90;
pos = (110,647);
}
);
layerId = "FB8C5FF2-3B42-4CDF-AA26-B13980DDC748";
name = Bold;
shapes = (
{
closed = 1;
nodes = (
(288,0,l),
(288,456,l),
(402,456,l),
(402,600,l),
(286,600,l),
(286,696,l),
(414,696,l),
(414,840,l),
(254,840,ls),
(161,840,o),
(110,794,o),
(110,696,cs),
(110,600,l),
(18,600,l),
(18,456,l),
(108,456,l),
(108,0,l)
);
}
);
userData = {
com.schriftgestaltung.Glyphs.category = Letter;
com.schriftgestaltung.Glyphs.script = latin;
com.schriftgestaltung.Glyphs.subCategory = Lowercase;
};
width = 420;
}
);
unicode = 102;
},
{
color = 9;
glyphname = g;
kernLeft = g;
kernRight = g;
lastChange = "2024-04-18 13:36:46 +0000";
layers = (
{
anchors = (
{
name = bottom;
pos = (355,-240);
},
{
name = top;
pos = (355,600);
}
);
background = {
shapes = (
{
closed = 1;
nodes = (
(530,-252,o),
(640,-151,o),
(640,19,cs),
(640,600,l),
(466,600,l),
(466,518,l),
(462,518,l),
(430,580,o),
(375,612,o),
(300,612,cs),
(151,612,o),
(48,487,o),
(48,306,cs),
(48,125,o),
(151,0,o),
(300,0,cs),
(373,0,o),
(427,31,o),
(462,94,c),
(466,94,l),
(466,19,ls),
(466,-59,o),
(417,-108,o),
(341,-108,cs),
(286,-108,o),
(246,-83,o),
(234,-42,c),
(44,-42,l),
(63,-170,o),
(180,-252,o),
(345,-252,cs)
);
},
{
closed = 1;
nodes = (
(274,160,o),
(228,216,o),
(228,306,cs),
(228,395,o),
(275,452,o),
(348,452,cs),
(417,452,o),
(460,402,o),
(460,322,cs),
(460,292,ls),
(460,210,o),
(418,160,o),
(348,160,cs)
);
}
);
};
layerId = "FB8C5FF2-3B42-4CDF-AA26-B13980DDC748";
name = "Bold alt";
shapes = (
{
closed = 1;
nodes = (
(496,-240,ls),
(589,-240,o),
(640,-194,o),
(640,-96,cs),
(640,600,l),
(466,600,l),
(466,518,l),
(462,518,l),
(430,580,o),
(375,612,o),
(300,612,cs),
(151,612,o),
(48,487,o),
(48,306,cs),
(48,125,o),
(151,0,o),
(300,0,cs),
(373,0,o),
(427,31,o),
(462,94,c),
(466,94,l),
(466,-78,l),
(84,-78,l),
(84,-240,l)
);
},
{
closed = 1;
nodes = (
(274,160,o),
(228,216,o),
(228,306,cs),
(228,395,o),
(275,452,o),
(348,452,cs),
(417,452,o),
(460,402,o),
(460,322,cs),
(460,292,ls),
(460,210,o),
(418,160,o),
(348,160,cs)
);
}
);
width = 710;
},
{
anchors = (
{
name = bottom;
pos = (345,-240);
},
{
name = top;
pos = (345,600);
}
);
background = {
shapes = (
{
closed = 1;
nodes = (
(472,-269,o),
(583,-197,o),
(583,-64,cs),
(583,42,o),
(511,97,o),
(380,97,c),
(275,97,l),
(218,97,o),
(184,110,o),
(184,145,cs),
(184,176,o),
(203,200,o),
(239,220,c),
(255,217,o),
(273,215,o),
(290,215,cs),
(432,215,o),
(518,291,o),
(518,411,cs),
(518,459,o),
(502,501,o),
(480,529,c),
(590,543,l),
(590,601,l),
(385,601,l),
(362,608,o),
(328,612,o),
(296,612,cs),
(151,612,o),
(68,537,o),
(68,408,cs),
(68,327,o),
(111,262,o),
(174,237,c),
(123,206,o),
(99,175,o),
(99,131,cs),
(99,93,o),
(124,62,o),
(156,48,c),
(71,30,o),
(21,-27,o),
(21,-102,cs),
(21,-208,o),
(110,-269,o),
(267,-269,cs)
);
},
{
closed = 1;
nodes = (
(169,-198,o),
(112,-164,o),
(112,-99,cs),
(112,-25,o),
(163,13,o),
(245,13,c),
(349,13,l),
(441,13,o),
(491,-1,o),
(491,-73,cs),
(491,-151,o),
(419,-198,o),
(270,-198,cs)
);
},
{
closed = 1;
nodes = (
(210,281,o),
(163,326,o),
(163,409,cs),
(163,498,o),
(209,545,o),
(293,545,cs),
(379,545,o),
(425,500,o),
(425,410,cs),
(425,326,o),
(381,281,o),
(294,281,cs)
);
}
);
};
layerId = "4683CC84-822E-4D29-9A51-72FC3DB48604";
name = "Light alt";
shapes = (
{
closed = 1;
nodes = (
(504,-240,ls),
(560,-240,o),
(594,-210,o),
(594,-150,c),
(594,600,l),
(504,600,l),
(504,499,l),
(500,499,l),
(471,570,o),
(403,612,o),
(317,612,cs),
(165,612,o),
(62,488,o),
(62,306,cs),
(62,124,o),
(165,0,o),
(317,0,cs),
(403,0,o),
(471,42,o),
(500,114,c),
(504,114,l),
(504,-158,l),
(102,-158,l),
(102,-240,l)
);
},
{
closed = 1;
nodes = (
(225,82,o),
(152,170,o),
(152,306,cs),
(152,442,o),
(225,530,o),
(338,530,cs),
(438,530,o),
(504,459,o),
(504,352,cs),
(504,260,ls),
(504,153,o),
(438,82,o),
(338,82,cs)
);
}
);
width = 690;
}
);
unicode = 103;
},
{
color = 9;
glyphname = g.ss02;
kernLeft = g;
kernRight = g;
lastChange = "2024-04-18 13:58:43 +0000";
layers = (
{
anchors = (
{
name = bottom;
pos = (355,-240);
},
{
name = top;
pos = (355,600);
}
);
background = {
shapes = (
{
closed = 1;
nodes = (
(521,-252,o),
(640,-161,o),
(640,19,cs),
(640,600,l),
(466,600,l),
(466,538,l),
(433,585,o),
(378,612,o),
(305,612,cs),
(149,612,o),
(48,487,o),
(48,306,cs),
(48,125,o),
(149,0,o),
(305,0,cs),
(378,0,o),
(432,26,o),
(466,74,c),
(466,19,ls),
(466,-61,o),
(414,-108,o),
(344,-108,cs),
(293,-108,o),
(252,-84,o),
(234,-42,c),
(44,-42,l),
(67,-167,o),
(186,-252,o),
(340,-252,cs)
);
},
{
closed = 1;
nodes = (
(272,160,o),
(228,220,o),
(228,306,cs),
(228,392,o),
(272,452,o),
(346,452,cs),
(417,452,o),
(460,403,o),
(460,322,cs),
(460,292,ls),
(460,208,o),
(417,160,o),
(346,160,cs)
);
}
);
};
layerId = "FB8C5FF2-3B42-4CDF-AA26-B13980DDC748";
name = "Bold alt";
shapes = (
{
closed = 1;
nodes = (
(530,-252,o),
(640,-151,o),
(640,19,cs),
(640,600,l),
(466,600,l),
(466,518,l),
(462,518,l),
(430,580,o),
(375,612,o),
(300,612,cs),
(151,612,o),
(48,487,o),
(48,306,cs),
(48,125,o),
(151,0,o),
(300,0,cs),
(373,0,o),
(427,31,o),
(462,94,c),
(466,94,l),
(466,19,ls),
(466,-59,o),
(417,-108,o),
(341,-108,cs),
(286,-108,o),
(246,-83,o),
(234,-42,c),
(44,-42,l),
(63,-170,o),
(180,-252,o),
(345,-252,cs)
);
},
{
closed = 1;
nodes = (
(274,160,o),
(228,216,o),
(228,306,cs),
(228,395,o),
(275,452,o),
(348,452,cs),
(417,452,o),
(460,402,o),
(460,322,cs),
(460,292,ls),
(460,210,o),
(418,160,o),
(348,160,cs)
);
}
);
width = 710;
},
{
anchors = (
{
name = bottom;
pos = (345,-240);
},
{
name = top;
pos = (345,600);
}
);
background = {
shapes = (
{
closed = 1;
nodes = (
(472,-269,o),
(583,-197,o),
(583,-64,cs),
(583,42,o),
(511,97,o),
(380,97,c),
(275,97,l),
(218,97,o),
(184,110,o),
(184,145,cs),
(184,176,o),
(203,200,o),
(239,220,c),
(255,217,o),
(273,215,o),
(290,215,cs),
(432,215,o),
(518,291,o),
(518,411,cs),
(518,459,o),
(502,501,o),
(480,529,c),
(590,543,l),
(590,601,l),
(385,601,l),
(362,608,o),
(328,612,o),
(296,612,cs),
(151,612,o),
(68,537,o),
(68,408,cs),
(68,327,o),
(111,262,o),
(174,237,c),
(123,206,o),
(99,175,o),
(99,131,cs),
(99,93,o),
(124,62,o),
(156,48,c),
(71,30,o),
(21,-27,o),
(21,-102,cs),
(21,-208,o),
(110,-269,o),
(267,-269,cs)
);
},
{
closed = 1;
nodes = (
(169,-198,o),
(112,-164,o),
(112,-99,cs),
(112,-25,o),
(163,13,o),
(245,13,c),
(349,13,l),
(441,13,o),
(491,-1,o),
(491,-73,cs),
(491,-151,o),
(419,-198,o),
(270,-198,cs)
);
},
{
closed = 1;
nodes = (
(210,281,o),
(163,326,o),
(163,409,cs),
(163,498,o),
(209,545,o),
(293,545,cs),
(379,545,o),
(425,500,o),
(425,410,cs),
(425,326,o),
(381,281,o),
(294,281,cs)
);
}
);
};
layerId = "4683CC84-822E-4D29-9A51-72FC3DB48604";
name = "Light alt";
shapes = (
{
closed = 1;
nodes = (
(488,-252,o),
(594,-152,o),
(594,5,cs),
(594,600,l),
(504,600,l),
(504,499,l),
(500,499,l),
(471,570,o),
(403,612,o),
(317,612,cs),
(165,612,o),
(62,488,o),
(62,306,cs),
(62,124,o),
(165,0,o),
(317,0,cs),
(403,0,o),
(471,42,o),
(500,114,c),
(504,114,l),
(504,12,ls),
(504,-102,o),
(435,-170,o),
(321,-170,cs),
(232,-170,o),
(170,-129,o),
(155,-60,c),
(59,-60,l),
(75,-176,o),
(179,-252,o),
(323,-252,cs)
);
},
{
closed = 1;
nodes = (
(225,82,o),
(152,170,o),
(152,306,cs),
(152,442,o),
(225,530,o),
(338,530,cs),
(438,530,o),
(504,459,o),
(504,352,cs),
(504,260,ls),
(504,153,o),
(438,82,o),
(338,82,cs)
);
}
);
width = 690;
}
);
},
{
color = 9;
glyphname = h;
kernLeft = b;
kernRight = h;
lastChange = "2024-04-18 11:55:44 +0000";
layers = (
{
anchors = (
{
name = bottom;
pos = (345,0);
},
{
name = center;
pos = (345,480);
},
{
name = top;
pos = (345,960);
}
);
background = {
shapes = (
{
closed = 1;
nodes = (
(186,0,l),
(186,357,ls),
(186,465,o),
(246,529,o),
(347,529,cs),
(448,529,o),
(508,465,o),
(508,357,cs),
(508,0,l),
(598,0,l),
(598,369,ls),
(598,512,o),
(505,611,o),
(370,611,cs),
(286,611,o),
(219,575,o),
(186,513,c),
(186,840,l),
(96,840,l),
(96,0,l)
);
}
);
};
layerId = "4683CC84-822E-4D29-9A51-72FC3DB48604";
name = "Light alt";
shapes = (
{
closed = 1;
nodes = (
(186,0,l),
(186,359,ls),
(186,468,o),
(246,532,o),
(347,532,cs),
(448,532,o),
(508,468,o),
(508,359,cs),
(508,0,l),
(598,0,l),
(598,370,ls),
(598,513,o),
(507,612,o),
(376,612,cs),
(291,612,o),
(224,573,o),
(190,510,c),
(186,510,l),
(186,840,l),
(96,840,l),
(96,0,l)
);
}
);
userData = {
com.schriftgestaltung.Glyphs.category = Letter;
com.schriftgestaltung.Glyphs.script = latin;
com.schriftgestaltung.Glyphs.subCategory = Lowercase;
};
width = 690;
},
{
anchors = (
{
name = bottom;
pos = (355,0);
},
{
name = center;
pos = (355,480);
},
{
name = top;
pos = (355,960);
}
);
background = {
shapes = (
{
closed = 1;
nodes = (
(250,0,l),
(250,321,ls),
(250,399,o),
(291,447,o),
(357,447,cs),
(423,447,o),
(464,399,o),
(464,321,cs),
(464,0,l),
(644,0,l),
(644,357,ls),
(644,507,o),
(550,611,o),
(413,611,cs),
(344,611,o),
(288,588,o),
(250,543,c),
(250,840,l),
(70,840,l),
(70,0,l)
);
}
);
};
layerId = "FB8C5FF2-3B42-4CDF-AA26-B13980DDC748";
name = "Bold alt";
shapes = (
{
closed = 1;
nodes = (
(250,0,l),
(250,321,ls),
(250,399,o),
(291,447,o),
(357,447,cs),
(423,447,o),
(464,399,o),
(464,321,cs),
(464,0,l),
(644,0,l),
(644,357,ls),
(644,506,o),
(553,611,o),
(425,611,cs),
(348,611,o),
(290,579,o),
(254,520,c),
(250,520,l),
(250,840,l),
(70,840,l),
(70,0,l)
);
}
);
userData = {
com.schriftgestaltung.Glyphs.category = Letter;
com.schriftgestaltung.Glyphs.script = latin;
com.schriftgestaltung.Glyphs.subCategory = Lowercase;
};
width = 710;
}
);
unicode = 104;
},
{
color = 9;
glyphname = hbar;
kernLeft = b;
kernRight = h;
lastChange = "2024-04-18 11:55:44 +0000";
layers = (
{
background = {
shapes = (
{
closed = 1;
nodes = (
(96,852,l),
(96,750,l),
(11,750,l),
(11,681,l),
(96,681,l),
(96,0,l),
(187,0,l),
(187,295,ls),
(187,437,o),
(233,515,o),
(367,515,cs),
(462,515,o),
(507,465,o),
(507,365,cs),
(507,0,l),
(596,0,l),
(596,371,ls),
(596,524,o),
(522,591,o),
(379,591,cs),
(296,591,o),
(225,556,o),
(188,493,c),
(182,493,l),
(185,518,o),
(187,548,o),
(187,577,cs),
(187,681,l),
(428,681,l),
(428,750,l),
(187,750,l),
(187,852,l)
);
}
);
};
layerId = "4683CC84-822E-4D29-9A51-72FC3DB48604";
shapes = (
{
closed = 1;
nodes = (
(186,0,l),
(186,329,ls),
(186,438,o),
(246,502,o),
(347,502,cs),
(448,502,o),
(508,438,o),
(508,329,cs),
(508,0,l),
(598,0,l),
(598,340,ls),
(598,483,o),
(507,582,o),
(376,582,cs),
(291,582,o),
(224,543,o),
(190,480,c),
(186,480,l),
(186,687,l),
(428,687,l),
(428,753,l),
(186,753,l),
(186,840,l),
(96,840,l),
(96,753,l),
(12,753,l),
(12,687,l),
(96,687,l),
(96,0,l)
);
}
);
userData = {
com.schriftgestaltung.Glyphs.category = Letter;
com.schriftgestaltung.Glyphs.script = latin;
com.schriftgestaltung.Glyphs.subCategory = Lowercase;
};
width = 690;
},
{
layerId = "FB8C5FF2-3B42-4CDF-AA26-B13980DDC748";
shapes = (
{
closed = 1;
nodes = (
(250,0,l),
(250,291,ls),
(250,369,o),
(291,417,o),
(357,417,cs),
(423,417,o),
(464,369,o),
(464,291,cs),
(464,0,l),
(644,0,l),
(644,327,ls),
(644,476,o),
(553,581,o),
(425,581,cs),
(348,581,o),
(290,549,o),
(254,490,c),
(250,490,l),
(250,660,l),
(458,660,l),
(458,780,l),
(250,780,l),
(250,840,l),
(70,840,l),
(70,780,l),
(12,780,l),
(12,660,l),
(70,660,l),
(70,0,l)
);
}
);
userData = {
com.schriftgestaltung.Glyphs.category = Letter;
com.schriftgestaltung.Glyphs.script = latin;
com.schriftgestaltung.Glyphs.subCategory = Lowercase;
};
width = 688;
}
);
unicode = 295;
},
{
color = 9;
glyphname = idotless;
kernLeft = n;
kernRight = u;
lastChange = "2024-04-18 11:56:34 +0000";
layers = (
{
anchors = (
{
name = bottom;
pos = (145,0);
},
{
name = ogonek;
pos = (190,0);
},
{
name = top;
pos = (145,600);
}
);
layerId = "4683CC84-822E-4D29-9A51-72FC3DB48604";
shapes = (
{
closed = 1;
nodes = (
(190,0,l),
(190,600,l),
(100,600,l),
(100,0,l)
);
}
);
userData = {
com.schriftgestaltung.Glyphs.category = Letter;
com.schriftgestaltung.Glyphs.script = latin;
com.schriftgestaltung.Glyphs.subCategory = Lowercase;
};
width = 290;
},
{
anchors = (
{
name = bottom;
pos = (160,0);
},
{
name = ogonek;
pos = (250,0);
},
{
name = top;
pos = (160,600);
}
);
layerId = "FB8C5FF2-3B42-4CDF-AA26-B13980DDC748";
shapes = (
{
closed = 1;
nodes = (
(250,0,l),
(250,600,l),
(70,600,l),
(70,0,l)
);
}
);
userData = {
com.schriftgestaltung.Glyphs.category = Letter;
com.schriftgestaltung.Glyphs.script = latin;
com.schriftgestaltung.Glyphs.subCategory = Lowercase;
};
width = 320;
}
);
unicode = 305;
},
{
color = 4;
glyphname = j;
kernRight = j;
lastChange = "2024-04-18 14:03:08 +0000";
layers = (
{
background = {
shapes = (
{
closed = 1;
nodes = (
(142,-269,o),
(194,-205,o),
(194,-95,cs),
(194,600,l),
(103,600,l),
(103,-97,ls),
(103,-170,o),
(69,-193,o),
(20,-193,cs),
(-9,-193,o),
(-32,-189,o),
(-54,-182,c),
(-54,-256,l),
(-34,-263,o),
(-7,-269,o),
(31,-269,cs)
);
},
{
closed = 1;
nodes = (
(95,725,o),
(118,705,o),
(149,705,cs),
(179,705,o),
(204,725,o),
(204,765,cs),
(204,806,o),
(179,825,o),
(149,825,cs),
(118,825,o),
(95,806,o),
(95,765,cs)
);
}
);
};
guides = (
{
angle = 90;
pos = (148,600);
}
);
layerId = "4683CC84-822E-4D29-9A51-72FC3DB48604";
shapes = (
{
ref = jdotless;
},
{
pos = (-158,0);
ref = dotaccentcomb;
}
);
userData = {
com.schriftgestaltung.Glyphs.category = Letter;
com.schriftgestaltung.Glyphs.script = latin;
com.schriftgestaltung.Glyphs.subCategory = Lowercase;
};
width = 283;
},
{
background = {
shapes = (
{
closed = 1;
nodes = (
(142,-269,o),
(194,-205,o),
(194,-95,cs),
(194,600,l),
(103,600,l),
(103,-97,ls),
(103,-170,o),
(69,-193,o),
(20,-193,cs),
(-9,-193,o),
(-32,-189,o),
(-54,-182,c),
(-54,-256,l),
(-34,-263,o),
(-7,-269,o),
(31,-269,cs)
);
},
{
closed = 1;
nodes = (
(95,725,o),
(118,705,o),
(149,705,cs),
(179,705,o),
(204,725,o),
(204,765,cs),
(204,806,o),
(179,825,o),
(149,825,cs),
(118,825,o),
(95,806,o),
(95,765,cs)
);
}
);
};
guides = (
{
angle = 90;
pos = (148,600);
}
);
layerId = "FB8C5FF2-3B42-4CDF-AA26-B13980DDC748";
shapes = (
{
ref = jdotless;
},
{
pos = (-140,0);
ref = dotaccentcomb;
}
);
userData = {
com.schriftgestaltung.Glyphs.category = Letter;
com.schriftgestaltung.Glyphs.script = latin;
com.schriftgestaltung.Glyphs.subCategory = Lowercase;
};
width = 320;
}
);
unicode = 106;
},
{
color = 3;
glyphname = j.ss01;
kernRight = j;
lastChange = "2024-04-18 14:20:32 +0000";
layers = (
{
background = {
shapes = (
{
closed = 1;
nodes = (
(142,-269,o),
(194,-205,o),
(194,-95,cs),
(194,600,l),
(103,600,l),
(103,-97,ls),
(103,-170,o),
(69,-193,o),
(20,-193,cs),
(-9,-193,o),
(-32,-189,o),
(-54,-182,c),
(-54,-256,l),
(-34,-263,o),
(-7,-269,o),
(31,-269,cs)
);
},
{
closed = 1;
nodes = (
(95,725,o),
(118,705,o),
(149,705,cs),
(179,705,o),
(204,725,o),
(204,765,cs),
(204,806,o),
(179,825,o),
(149,825,cs),
(118,825,o),
(95,806,o),
(95,765,cs)
);
}
);
};
guides = (
{
angle = 90;
pos = (148,600);
}
);
layerId = "4683CC84-822E-4D29-9A51-72FC3DB48604";
shapes = (
{
ref = jdotless;
},
{
pos = (-158,0);
ref = dotaccentcomb.ss01;
}
);
userData = {
com.schriftgestaltung.Glyphs.category = Letter;
com.schriftgestaltung.Glyphs.script = latin;
com.schriftgestaltung.Glyphs.subCategory = Lowercase;
};
width = 283;
},
{
background = {
shapes = (
{
closed = 1;
nodes = (
(142,-269,o),
(194,-205,o),
(194,-95,cs),
(194,600,l),
(103,600,l),
(103,-97,ls),
(103,-170,o),
(69,-193,o),
(20,-193,cs),
(-9,-193,o),
(-32,-189,o),
(-54,-182,c),
(-54,-256,l),
(-34,-263,o),
(-7,-269,o),
(31,-269,cs)
);
},
{
closed = 1;
nodes = (
(95,725,o),
(118,705,o),
(149,705,cs),
(179,705,o),
(204,725,o),
(204,765,cs),
(204,806,o),
(179,825,o),
(149,825,cs),
(118,825,o),
(95,806,o),
(95,765,cs)
);
}
);
};
guides = (
{
angle = 90;
pos = (148,600);
}
);
layerId = "FB8C5FF2-3B42-4CDF-AA26-B13980DDC748";
shapes = (
{
ref = jdotless;
},
{
pos = (-140,0);
ref = dotaccentcomb.ss01;
}
);
userData = {
com.schriftgestaltung.Glyphs.category = Letter;
com.schriftgestaltung.Glyphs.script = latin;
com.schriftgestaltung.Glyphs.subCategory = Lowercase;
};
width = 320;
}
);
},
{
color = 9;
glyphname = jdotless;
kernLeft = n;
kernRight = u;
lastChange = "2024-04-18 14:03:23 +0000";
layers = (
{
anchors = (
{
name = bottom;
pos = (142,-240);
},
{
name = top;
pos = (142,600);
}
);
background = {
shapes = (
{
closed = 1;
nodes = (
(-29,-168,l),
(34,-168,ls),
(81,-168,o),
(102,-146,o),
(102,-94,cs),
(103,600,l),
(193,600,l),
(194,-94,ls),
(194,-190,o),
(137,-240,o),
(46,-240,cs),
(-29,-240,l)
);
}
);
};
layerId = "4683CC84-822E-4D29-9A51-72FC3DB48604";
shapes = (
{
closed = 1;
nodes = (
(103,-240,ls),
(159,-240,o),
(193,-210,o),
(193,-150,c),
(193,600,l),
(103,600,l),
(103,-168,l),
(-18,-168,l),
(-18,-240,l)
);
}
);
userData = {
com.schriftgestaltung.Glyphs.category = Letter;
com.schriftgestaltung.Glyphs.glyph.widthMetricsKey = "=j";
com.schriftgestaltung.Glyphs.script = latin;
com.schriftgestaltung.Glyphs.subCategory = Lowercase;
};
width = 283;
},
{
anchors = (
{
name = bottom;
pos = (160,-240);
},
{
name = top;
pos = (160,600);
}
);
background = {
shapes = (
{
closed = 1;
nodes = (
(250,0,l),
(250,600,l),
(70,600,l),
(70,0,l)
);
}
);
};
layerId = "FB8C5FF2-3B42-4CDF-AA26-B13980DDC748";
shapes = (
{
closed = 1;
nodes = (
(106,-240,ls),
(199,-240,o),
(250,-194,o),
(250,-96,c),
(250,600,l),
(70,600,l),
(70,-96,l),
(-24,-96,l),
(-24,-240,l)
);
}
);
userData = {
com.schriftgestaltung.Glyphs.category = Letter;
com.schriftgestaltung.Glyphs.glyph.widthMetricsKey = "=j";
com.schriftgestaltung.Glyphs.script = latin;
com.schriftgestaltung.Glyphs.subCategory = Lowercase;
};
width = 320;
}
);
unicode = 567;
},
{
color = 9;
glyphname = k;
kernLeft = b;
kernRight = k;
lastChange = "2024-04-16 08:42:04 +0000";
layers = (
{
anchors = (
{
name = bottom;
pos = (310,0);
},
{
name = top;
pos = (310,960);
}
);
background = {
shapes = (
{
closed = 1;
nodes = (
(186,0,l),
(186,359,ls),
(186,468,o),
(246,532,o),
(347,532,cs),
(448,532,o),
(508,468,o),
(508,359,cs),
(508,0,l),
(598,0,l),
(598,370,ls),
(598,513,o),
(507,612,o),
(376,612,cs),
(291,612,o),
(224,573,o),
(190,510,c),
(186,510,l),
(186,840,l),
(96,840,l),
(96,0,l)
);
}
);
};
guides = (
{
angle = 226.8117;
pos = (471,600);
},
{
angle = 46.6103;
pos = (556,578);
}
);
layerId = "4683CC84-822E-4D29-9A51-72FC3DB48604";
shapes = (
{
closed = 1;
nodes = (
(186,0,l),
(186,220,l),
(265,290,l),
(491,0,l),
(602,0,l),
(327,346,l),
(578,600,l),
(469,600,l),
(190,312,l),
(186,312,l),
(186,840,l),
(96,840,l),
(96,0,l)
);
}
);
userData = {
com.schriftgestaltung.Glyphs.category = Letter;
com.schriftgestaltung.Glyphs.script = latin;
com.schriftgestaltung.Glyphs.subCategory = Lowercase;
};
width = 620;
},
{
anchors = (
{
name = bottom;
pos = (340,0);
},
{
name = top;
pos = (340,960);
}
);
background = {
shapes = (
{
closed = 1;
nodes = (
(80,0,l),
(236,0,l),
(236,179,l),
(306,250,l),
(473,0,l),
(656,0,l),
(414,361,l),
(644,600,l),
(454,600,l),
(236,377,l),
(236,840,l),
(80,840,l)
);
}
);
};
guides = (
{
angle = 46.4879;
pos = (542,482);
}
);
layerId = "FB8C5FF2-3B42-4CDF-AA26-B13980DDC748";
shapes = (
{
closed = 1;
nodes = (
(250,0,l),
(250,200,l),
(301,246,l),
(463,0,l),
(672,0,l),
(429,363,l),
(654,600,l),
(440,600,l),
(254,403,l),
(250,403,l),
(250,840,l),
(70,840,l),
(70,0,l)
);
}
);
userData = {
com.schriftgestaltung.Glyphs.category = Letter;
com.schriftgestaltung.Glyphs.script = latin;
com.schriftgestaltung.Glyphs.subCategory = Lowercase;
};
width = 680;
}
);
unicode = 107;
},
{
color = 9;
glyphname = l;
kernLeft = b;
kernRight = d;
lastChange = "2024-04-18 08:09:14 +0000";
layers = (
{
anchors = (
{
name = bottom;
pos = (145,0);
},
{
name = center;
pos = (145,480);
},
{
name = top;
pos = (145,840);
},
{
name = topright;
pos = (190,840);
}
);
background = {
shapes = (
{
closed = 1;
nodes = (
(191,852,l),
(100,852,l),
(100,0,l),
(191,0,l)
);
}
);
};
layerId = "4683CC84-822E-4D29-9A51-72FC3DB48604";
shapes = (
{
closed = 1;
nodes = (
(190,0,l),
(190,840,l),
(100,840,l),
(100,0,l)
);
}
);
userData = {
com.schriftgestaltung.Glyphs.category = Letter;
com.schriftgestaltung.Glyphs.script = latin;
com.schriftgestaltung.Glyphs.subCategory = Lowercase;
};
width = 290;
},
{
anchors = (
{
name = bottom;
pos = (160,0);
},
{
name = center;
pos = (160,480);
},
{
name = top;
pos = (160,840);
},
{
name = topright;
pos = (250,840);
}
);
background = {
shapes = (
{
closed = 1;
nodes = (
(206,852,l),
(115,852,l),
(115,0,l),
(206,0,l)
);
}
);
};
layerId = "FB8C5FF2-3B42-4CDF-AA26-B13980DDC748";
shapes = (
{
closed = 1;
nodes = (
(250,0,l),
(250,840,l),
(70,840,l),
(70,0,l)
);
}
);
userData = {
com.schriftgestaltung.Glyphs.category = Letter;
com.schriftgestaltung.Glyphs.script = latin;
com.schriftgestaltung.Glyphs.subCategory = Lowercase;
};
width = 320;
}
);
unicode = 108;
},
{
color = 9;
glyphname = m;
kernLeft = n;
kernRight = h;
lastChange = "2024-04-18 11:56:17 +0000";
layers = (
{
anchors = (
{
name = bottom;
pos = (520,0);
},
{
name = top;
pos = (520,600);
}
);
background = {
shapes = (
{
closed = 1;
nodes = (
(666,611,o),
(593,577,o),
(554,508,c),
(549,508,l),
(521,578,o),
(458,611,o),
(367,611,cs),
(290,611,o),
(224,577,o),
(188,515,c),
(183,515,l),
(169,600,l),
(96,600,l),
(96,0,l),
(187,0,l),
(187,318,ls),
(187,459,o),
(232,534,o),
(351,534,cs),
(435,534,o),
(476,486,o),
(476,389,cs),
(476,0,l),
(567,0,l),
(567,336,ls),
(567,466,o),
(617,534,o),
(733,534,cs),
(815,534,o),
(858,486,o),
(858,389,cs),
(858,0,l),
(947,0,l),
(947,393,ls),
(947,545,o),
(879,611,o),
(747,611,cs)
);
}
);
};
layerId = "4683CC84-822E-4D29-9A51-72FC3DB48604";
name = "Light alt";
shapes = (
{
closed = 1;
nodes = (
(186,0,l),
(186,363,ls),
(186,468,o),
(242,529,o),
(332,529,cs),
(422,529,o),
(477,468,o),
(477,363,cs),
(477,0,l),
(567,0,l),
(567,363,ls),
(567,468,o),
(623,529,o),
(713,529,cs),
(803,529,o),
(858,468,o),
(858,363,cs),
(858,0,l),
(948,0,l),
(948,375,ls),
(948,519,o),
(864,611,o),
(738,611,cs),
(654,611,o),
(587,569,o),
(550,492,c),
(547,492,l),
(513,569,o),
(447,611,o),
(364,611,cs),
(281,611,o),
(219,572,o),
(190,500,c),
(186,500,l),
(186,600,l),
(96,600,l),
(96,0,l)
);
}
);
userData = {
com.schriftgestaltung.Glyphs.category = Letter;
com.schriftgestaltung.Glyphs.script = latin;
com.schriftgestaltung.Glyphs.subCategory = Lowercase;
};
width = 1040;
},
{
anchors = (
{
name = bottom;
pos = (540,0);
},
{
name = top;
pos = (540,600);
}
);
background = {
shapes = (
{
closed = 1;
nodes = (
(186,0,l),
(186,363,ls),
(186,469,o),
(243,529,o),
(332,529,cs),
(421,529,o),
(477,469,o),
(477,363,cs),
(477,0,l),
(567,0,l),
(567,363,ls),
(567,469,o),
(624,529,o),
(713,529,cs),
(802,529,o),
(858,469,o),
(858,363,cs),
(858,0,l),
(948,0,l),
(948,375,ls),
(948,520,o),
(861,611,o),
(732,611,cs),
(649,611,o),
(578,570,o),
(538,498,c),
(503,570,o),
(437,611,o),
(357,611,cs),
(278,611,o),
(217,576,o),
(186,513,c),
(186,600,l),
(96,600,l),
(96,0,l)
);
}
);
};
guides = (
{
pos = (240,486);
}
);
layerId = "FB8C5FF2-3B42-4CDF-AA26-B13980DDC748";
name = "Bold alt";
shapes = (
{
closed = 1;
nodes = (
(250,0,l),
(250,321,ls),
(250,400,o),
(285,447,o),
(349,447,cs),
(413,447,o),
(452,399,o),
(452,321,cs),
(452,0,l),
(632,0,l),
(632,321,ls),
(632,399,o),
(671,447,o),
(733,447,cs),
(796,447,o),
(834,399,o),
(834,321,cs),
(834,0,l),
(1014,0,l),
(1014,357,ls),
(1014,506,o),
(918,611,o),
(776,611,cs),
(697,611,o),
(632,576,o),
(587,515,c),
(584,515,l),
(547,576,o),
(486,611,o),
(411,611,cs),
(337,611,o),
(278,579,o),
(244,515,c),
(240,515,l),
(240,600,l),
(70,600,l),
(70,0,l)
);
}
);
userData = {
com.schriftgestaltung.Glyphs.category = Letter;
com.schriftgestaltung.Glyphs.script = latin;
com.schriftgestaltung.Glyphs.subCategory = Lowercase;
};
width = 1080;
}
);
unicode = 109;
},
{
color = 9;
glyphname = n;
kernLeft = n;
kernRight = h;
lastChange = "2024-04-18 11:56:17 +0000";
layers = (
{
anchors = (
{
name = bottom;
pos = (357,0);
},
{
name = top;
pos = (357,600);
}
);
background = {
shapes = (
{
attr = {
strokeWidth = 90;
};
closed = 0;
nodes = (
(152,600,l),
(152,0,l)
);
},
{
attr = {
strokeWidth = 90;
};
closed = 0;
nodes = (
(562,0,l),
(562,361,ls),
(562,474,o),
(470,566,o),
(357,566,cs),
(244,566,o),
(152,474,o),
(152,361,cs)
);
}
);
};
guides = (
{
angle = 270;
pos = (61,300);
},
{
angle = 90;
pos = (241,178);
},
{
angle = 90;
pos = (653,185);
},
{
angle = 270;
pos = (473,178);
}
);
layerId = "FB8C5FF2-3B42-4CDF-AA26-B13980DDC748";
name = "Bold alt";
shapes = (
{
closed = 1;
nodes = (
(250,0,l),
(250,321,ls),
(250,399,o),
(291,447,o),
(357,447,cs),
(423,447,o),
(464,399,o),
(464,321,cs),
(464,0,l),
(644,0,l),
(644,357,ls),
(644,506,o),
(553,611,o),
(424,611,cs),
(344,611,o),
(283,577,o),
(248,514,c),
(244,514,l),
(244,600,l),
(70,600,l),
(70,0,l)
);
}
);
userData = {
com.schriftgestaltung.Glyphs.category = Letter;
com.schriftgestaltung.Glyphs.script = latin;
com.schriftgestaltung.Glyphs.subCategory = Lowercase;
};
width = 710;
},
{
anchors = (
{
name = bottom;
pos = (347,0);
},
{
name = top;
pos = (347,600);
}
);
background = {
shapes = (
{
attr = {
strokeWidth = 90;
};
closed = 0;
nodes = (
(142,600,l),
(142,0,l)
);
},
{
attr = {
strokeWidth = 90;
};
closed = 0;
nodes = (
(552,0,l),
(552,361,ls),
(552,474,o),
(460,566,o),
(347,566,cs),
(234,566,o),
(142,474,o),
(142,361,cs)
);
}
);
};
layerId = "4683CC84-822E-4D29-9A51-72FC3DB48604";
name = "Light alt";
shapes = (
{
closed = 1;
nodes = (
(186,0,l),
(186,355,ls),
(186,463,o),
(246,529,o),
(347,529,cs),
(448,529,o),
(508,463,o),
(508,355,cs),
(508,0,l),
(598,0,l),
(598,369,ls),
(598,511,o),
(507,611,o),
(376,611,cs),
(291,611,o),
(225,572,o),
(190,500,c),
(186,500,l),
(186,600,l),
(96,600,l),
(96,0,l)
);
}
);
userData = {
com.schriftgestaltung.Glyphs.category = Letter;
com.schriftgestaltung.Glyphs.script = latin;
com.schriftgestaltung.Glyphs.subCategory = Lowercase;
};
width = 690;
}
);
unicode = 110;
},
{
color = 9;
glyphname = eng;
kernLeft = n;
kernRight = h;
lastChange = "2024-04-18 11:56:17 +0000";
layers = (
{
anchors = (
{
name = bottom;
pos = (344,-240);
},
{
name = top;
pos = (344,600);
}
);
layerId = "4683CC84-822E-4D29-9A51-72FC3DB48604";
shapes = (
{
closed = 1;
nodes = (
(508,-240,ls),
(564,-240,o),
(598,-210,o),
(598,-150,cs),
(598,369,ls),
(598,511,o),
(507,611,o),
(376,611,cs),
(291,611,o),
(225,572,o),
(190,500,c),
(186,500,l),
(186,600,l),
(96,600,l),
(96,0,l),
(186,0,l),
(186,355,ls),
(186,463,o),
(246,529,o),
(347,529,cs),
(448,529,o),
(508,463,o),
(508,355,cs),
(508,-168,l),
(375,-168,l),
(375,-240,l)
);
}
);
userData = {
com.schriftgestaltung.Glyphs.category = Letter;
com.schriftgestaltung.Glyphs.script = latin;
com.schriftgestaltung.Glyphs.subCategory = Lowercase;
};
width = 690;
},
{
anchors = (
{
name = bottom;
pos = (356,-240);
},
{
name = top;
pos = (355,600);
}
);
layerId = "FB8C5FF2-3B42-4CDF-AA26-B13980DDC748";
shapes = (
{
closed = 1;
nodes = (
(500,-240,ls),
(593,-240,o),
(644,-194,o),
(644,-96,cs),
(644,357,ls),
(644,506,o),
(553,611,o),
(424,611,cs),
(344,611,o),
(283,577,o),
(248,514,c),
(244,514,l),
(244,600,l),
(70,600,l),
(70,0,l),
(250,0,l),
(250,321,ls),
(250,399,o),
(291,447,o),
(357,447,cs),
(423,447,o),
(464,399,o),
(464,321,cs),
(464,-96,l),
(356,-96,l),
(356,-240,l)
);
}
);
userData = {
com.schriftgestaltung.Glyphs.category = Letter;
com.schriftgestaltung.Glyphs.script = latin;
com.schriftgestaltung.Glyphs.subCategory = Lowercase;
};
width = 710;
}
);
unicode = 331;
},
{
color = 9;
glyphname = o;
kernLeft = d;
kernRight = b;
lastChange = "2024-04-18 12:26:28 +0000";
layers = (
{
anchors = (
{
name = bottom;
pos = (340,0);
},
{
name = center;
pos = (340,300);
},
{
name = ogonek;
pos = (612,10);
},
{
name = top;
pos = (340,600);
},
{
name = topright;
pos = (660,600);
}
);
background = {
shapes = (
{
closed = 1;
nodes = (
(173,-12,o),
(53,122,o),
(53,300,cs),
(53,475,o),
(166,612,o),
(341,612,cs),
(508,612,o),
(629,478,o),
(629,300,cs),
(629,121,o),
(508,-12,o),
(341,-12,cs)
);
},
{
closed = 1;
nodes = (
(346,84,ls),
(445,84,o),
(515,166,o),
(515,300,cs),
(515,434,o),
(445,516,o),
(346,516,cs),
(336,516,ls),
(236,516,o),
(167,434,o),
(167,300,cs),
(167,166,o),
(236,84,o),
(336,84,cs)
);
}
);
};
layerId = "4683CC84-822E-4D29-9A51-72FC3DB48604";
shapes = (
{
closed = 1;
nodes = (
(502,-12,o),
(618,109,o),
(618,300,cs),
(618,492,o),
(503,612,o),
(340,612,cs),
(180,612,o),
(62,491,o),
(62,300,cs),
(62,110,o),
(180,-12,o),
(340,-12,cs)
);
},
{
closed = 1;
nodes = (
(226,70,o),
(152,161,o),
(152,300,cs),
(152,440,o),
(226,530,o),
(340,530,cs),
(456,530,o),
(528,440,o),
(528,300,cs),
(528,161,o),
(456,70,o),
(340,70,cs)
);
}
);
userData = {
com.schriftgestaltung.Glyphs.category = Letter;
com.schriftgestaltung.Glyphs.script = latin;
com.schriftgestaltung.Glyphs.subCategory = Lowercase;
};
width = 680;
},
{
anchors = (
{
name = bottom;
pos = (340,0);
},
{
name = center;
pos = (340,300);
},
{
name = ogonek;
pos = (612,10);
},
{
name = top;
pos = (340,600);
},
{
name = topright;
pos = (660,600);
}
);
layerId = "FB8C5FF2-3B42-4CDF-AA26-B13980DDC748";
shapes = (
{
closed = 1;
nodes = (
(516,-12,o),
(642,109,o),
(642,300,cs),
(642,492,o),
(517,612,o),
(340,612,cs),
(166,612,o),
(38,491,o),
(38,300,cs),
(38,110,o),
(166,-12,o),
(340,-12,cs)
);
},
{
closed = 1;
nodes = (
(269,148,o),
(218,207,o),
(218,300,cs),
(218,394,o),
(269,452,o),
(340,452,cs),
(412,452,o),
(462,394,o),
(462,300,cs),
(462,207,o),
(412,148,o),
(340,148,cs)
);
}
);
userData = {
com.schriftgestaltung.Glyphs.category = Letter;
com.schriftgestaltung.Glyphs.script = latin;
com.schriftgestaltung.Glyphs.subCategory = Lowercase;
};
width = 680;
}
);
unicode = 111;
},
{
color = 9;
glyphname = p;
kernLeft = n;
kernRight = b;
lastChange = "2024-04-18 11:56:17 +0000";
layers = (
{
anchors = (
{
name = bottom;
pos = (345,0);
},
{
name = top;
pos = (345,600);
}
);
layerId = "4683CC84-822E-4D29-9A51-72FC3DB48604";
shapes = (
{
closed = 1;
nodes = (
(186,-240,l),
(186,102,l),
(190,102,l),
(224,28,o),
(290,-12,o),
(379,-12,cs),
(529,-12,o),
(628,113,o),
(628,300,cs),
(628,487,o),
(529,612,o),
(379,612,cs),
(290,612,o),
(224,573,o),
(190,498,c),
(186,498,l),
(186,600,l),
(96,600,l),
(96,-240,l)
);
},
{
closed = 1;
nodes = (
(248,71,o),
(186,143,o),
(186,251,cs),
(186,349,ls),
(186,457,o),
(248,532,o),
(356,532,cs),
(466,532,o),
(538,440,o),
(538,300,cs),
(538,160,o),
(466,68,o),
(356,68,cs)
);
}
);
userData = {
com.schriftgestaltung.Glyphs.category = Letter;
com.schriftgestaltung.Glyphs.script = latin;
com.schriftgestaltung.Glyphs.subCategory = Lowercase;
};
width = 690;
},
{
anchors = (
{
name = bottom;
pos = (350,0);
},
{
name = top;
pos = (350,600);
}
);
layerId = "FB8C5FF2-3B42-4CDF-AA26-B13980DDC748";
shapes = (
{
closed = 1;
nodes = (
(250,-240,l),
(250,77,l),
(254,77,l),
(285,20,o),
(340,-12,o),
(413,-12,cs),
(562,-12,o),
(662,114,o),
(662,300,cs),
(662,485,o),
(562,612,o),
(413,612,cs),
(338,612,o),
(282,579,o),
(248,518,c),
(244,518,l),
(244,600,l),
(70,600,l),
(70,-240,l)
);
},
{
closed = 1;
nodes = (
(293,148,o),
(250,197,o),
(250,278,cs),
(250,322,ls),
(250,403,o),
(293,452,o),
(363,452,cs),
(437,452,o),
(482,393,o),
(482,300,cs),
(482,207,o),
(437,148,o),
(363,148,cs)
);
}
);
userData = {
com.schriftgestaltung.Glyphs.category = Letter;
com.schriftgestaltung.Glyphs.script = latin;
com.schriftgestaltung.Glyphs.subCategory = Lowercase;
};
width = 700;
}
);
unicode = 112;
},
{
color = 9;
glyphname = thorn;
kernLeft = b;
kernRight = b;
lastChange = "2024-04-18 11:54:37 +0000";
layers = (
{
anchors = (
{
name = bottom;
pos = (343,0);
},
{
name = top;
pos = (343,600);
}
);
layerId = "4683CC84-822E-4D29-9A51-72FC3DB48604";
shapes = (
{
closed = 1;
nodes = (
(186,-240,l),
(186,102,l),
(190,102,l),
(224,28,o),
(290,-12,o),
(379,-12,cs),
(529,-12,o),
(628,113,o),
(628,300,cs),
(628,487,o),
(529,612,o),
(379,612,cs),
(290,612,o),
(224,572,o),
(190,498,c),
(186,498,l),
(186,840,l),
(96,840,l),
(96,-240,l)
);
},
{
closed = 1;
nodes = (
(248,71,o),
(186,143,o),
(186,251,cs),
(186,349,ls),
(186,457,o),
(248,532,o),
(356,532,cs),
(466,532,o),
(538,440,o),
(538,300,cs),
(538,160,o),
(466,68,o),
(356,68,cs)
);
}
);
userData = {
com.schriftgestaltung.Glyphs.category = Letter;
com.schriftgestaltung.Glyphs.script = latin;
com.schriftgestaltung.Glyphs.subCategory = Lowercase;
};
width = 686;
},
{
anchors = (
{
name = bottom;
pos = (350,0);
},
{
name = top;
pos = (350,600);
}
);
layerId = "FB8C5FF2-3B42-4CDF-AA26-B13980DDC748";
shapes = (
{
closed = 1;
nodes = (
(250,-240,l),
(250,77,l),
(254,77,l),
(285,20,o),
(340,-12,o),
(413,-12,cs),
(562,-12,o),
(662,114,o),
(662,300,cs),
(662,486,o),
(562,612,o),
(413,612,cs),
(340,612,o),
(285,580,o),
(254,523,c),
(250,523,l),
(250,840,l),
(70,840,l),
(70,-240,l)
);
},
{
closed = 1;
nodes = (
(293,148,o),
(250,197,o),
(250,278,cs),
(250,322,ls),
(250,403,o),
(293,452,o),
(363,452,cs),
(437,452,o),
(482,393,o),
(482,300,cs),
(482,207,o),
(437,148,o),
(363,148,cs)
);
}
);
userData = {
com.schriftgestaltung.Glyphs.category = Letter;
com.schriftgestaltung.Glyphs.script = latin;
com.schriftgestaltung.Glyphs.subCategory = Lowercase;
};
width = 700;
}
);
unicode = 254;
},
{
color = 9;
glyphname = q;
kernLeft = d;
kernRight = u;
lastChange = "2024-04-18 11:57:00 +0000";
layers = (
{
anchors = (
{
name = bottom;
pos = (345,0);
},
{
name = top;
pos = (345,600);
}
);
layerId = "4683CC84-822E-4D29-9A51-72FC3DB48604";
shapes = (
{
closed = 1;
nodes = (
(594,-240,l),
(594,600,l),
(504,600,l),
(504,498,l),
(500,498,l),
(466,573,o),
(400,612,o),
(311,612,cs),
(161,612,o),
(62,487,o),
(62,300,cs),
(62,113,o),
(161,-12,o),
(311,-12,cs),
(400,-12,o),
(466,28,o),
(500,102,c),
(504,102,l),
(504,-240,l)
);
},
{
closed = 1;
nodes = (
(224,68,o),
(152,160,o),
(152,300,cs),
(152,440,o),
(224,532,o),
(334,532,cs),
(442,532,o),
(504,457,o),
(504,349,cs),
(504,251,ls),
(504,143,o),
(442,71,o),
(334,68,cs)
);
}
);
userData = {
com.schriftgestaltung.Glyphs.category = Letter;
com.schriftgestaltung.Glyphs.script = latin;
com.schriftgestaltung.Glyphs.subCategory = Lowercase;
};
width = 690;
},
{
anchors = (
{
name = bottom;
pos = (350,0);
},
{
name = top;
pos = (350,600);
}
);
layerId = "FB8C5FF2-3B42-4CDF-AA26-B13980DDC748";
shapes = (
{
closed = 1;
nodes = (
(630,-240,l),
(630,600,l),
(456,600,l),
(456,518,l),
(452,518,l),
(418,579,o),
(362,612,o),
(287,612,cs),
(138,612,o),
(38,485,o),
(38,300,cs),
(38,114,o),
(138,-12,o),
(287,-12,cs),
(360,-12,o),
(415,20,o),
(446,77,c),
(450,77,l),
(450,-240,l)
);
},
{
closed = 1;
nodes = (
(263,148,o),
(218,207,o),
(218,300,cs),
(218,393,o),
(263,452,o),
(337,452,cs),
(407,452,o),
(450,403,o),
(450,322,cs),
(450,278,ls),
(450,197,o),
(407,148,o),
(337,148,cs)
);
}
);
userData = {
com.schriftgestaltung.Glyphs.category = Letter;
com.schriftgestaltung.Glyphs.script = latin;
com.schriftgestaltung.Glyphs.subCategory = Lowercase;
};
width = 700;
}
);
unicode = 113;
},
{
color = 9;
glyphname = r;
kernLeft = n.right;
kernRight = r;
lastChange = "2024-04-18 11:57:06 +0000";
layers = (
{
anchors = (
{
name = bottom;
pos = (168,0);
},
{
name = top;
pos = (267,600);
}
);
background = {
shapes = (
{
closed = 1;
nodes = (
(298,611,o),
(237,556,o),
(200,490,c),
(196,490,l),
(186,600,l),
(111,600,l),
(111,0,l),
(202,0,l),
(202,322,ls),
(202,446,o),
(281,528,o),
(378,528,cs),
(399,528,o),
(425,525,o),
(445,520,c),
(456,604,l),
(436,608,o),
(408,611,o),
(384,611,cs)
);
}
);
};
guides = (
{
pos = (415,444);
},
{
angle = 180;
pos = (415,604);
},
{
angle = 270;
pos = (258,158);
},
{
angle = 90;
pos = (78,300);
}
);
layerId = "FB8C5FF2-3B42-4CDF-AA26-B13980DDC748";
name = "Bold alt";
shapes = (
{
closed = 1;
nodes = (
(258,0,l),
(258,300,ls),
(258,388,o),
(298,448,o),
(397,448,cs),
(456,448,l),
(456,608,l),
(405,608,ls),
(335,608,o),
(282,569,o),
(256,508,c),
(252,508,l),
(252,600,l),
(78,600,l),
(78,0,l)
);
}
);
userData = {
com.schriftgestaltung.Glyphs.category = Letter;
com.schriftgestaltung.Glyphs.script = latin;
com.schriftgestaltung.Glyphs.subCategory = Lowercase;
};
width = 480;
},
{
anchors = (
{
name = bottom;
pos = (153,0);
},
{
name = top;
pos = (266,600);
}
);
background = {
shapes = (
{
closed = 1;
nodes = (
(283,611,o),
(222,556,o),
(185,490,c),
(181,490,l),
(171,600,l),
(96,600,l),
(96,0,l),
(187,0,l),
(187,322,ls),
(187,446,o),
(266,528,o),
(363,528,cs),
(384,528,o),
(410,525,o),
(430,520,c),
(441,604,l),
(421,608,o),
(393,611,o),
(369,611,cs)
);
}
);
};
layerId = "4683CC84-822E-4D29-9A51-72FC3DB48604";
name = "Light alt";
shapes = (
{
closed = 1;
nodes = (
(198,0,l),
(198,316,ls),
(198,444,o),
(263,524,o),
(376,524,cs),
(424,524,l),
(424,604,l),
(381,604,ls),
(289,604,o),
(223,552,o),
(197,473,c),
(193,473,l),
(193,600,l),
(108,600,l),
(108,0,l)
);
}
);
userData = {
com.schriftgestaltung.Glyphs.category = Letter;
com.schriftgestaltung.Glyphs.script = latin;
com.schriftgestaltung.Glyphs.subCategory = Lowercase;
};
width = 460;
}
);
unicode = 114;
},
{
color = 9;
glyphname = s;
kernLeft = s;
kernRight = s;
lastChange = "2024-04-18 14:33:23 +0000";
layers = (
{
anchors = (
{
name = bottom;
pos = (280,0);
},
{
name = top;
pos = (280,600);
}
);
background = {
shapes = (
{
closed = 1;
nodes = (
(511,262,o),
(441,300,o),
(328,342,cs),
(215,384,o),
(172,403,o),
(172,459,cs),
(172,507,o),
(218,537,o),
(302,537,cs),
(360,537,o),
(417,520,o),
(467,499,c),
(498,572,l),
(443,596,o),
(380,611,o),
(308,611,cs),
(174,611,o),
(84,555,o),
(84,453,cs),
(84,353,o),
(156,319,o),
(271,276,cs),
(387,233,o),
(423,206,o),
(423,157,cs),
(423,99,o),
(379,63,o),
(275,63,cs),
(204,63,o),
(132,87,o),
(83,111,c),
(83,27,l),
(129,3,o),
(189,-11,o),
(273,-11,cs),
(420,-11,o),
(511,49,o),
(511,164,cs)
);
}
);
};
guides = (
{
angle = 72.6884;
pos = (329,260);
},
{
angle = 180;
pos = (462,430);
}
);
layerId = "4683CC84-822E-4D29-9A51-72FC3DB48604";
shapes = (
{
closed = 1;
nodes = (
(428,-12,o),
(512,59,o),
(512,171,cs),
(512,259,o),
(458,314,o),
(351,337,cs),
(256,357,ls),
(187,372,o),
(156,397,o),
(156,443,cs),
(156,499,o),
(204,534,o),
(279,534,cs),
(354,534,o),
(405,497,o),
(418,430,c),
(506,430,l),
(494,540,o),
(405,612,o),
(282,612,cs),
(157,612,o),
(72,541,o),
(72,437,cs),
(72,355,o),
(127,301,o),
(232,279,cs),
(327,259,ls),
(396,244,o),
(428,215,o),
(428,164,cs),
(428,101,o),
(381,66,o),
(295,66,cs),
(202,66,o),
(146,107,o),
(138,180,c),
(48,180,l),
(56,64,o),
(151,-12,o),
(292,-12,cs)
);
}
);
userData = {
com.schriftgestaltung.Glyphs.category = Letter;
com.schriftgestaltung.Glyphs.script = latin;
com.schriftgestaltung.Glyphs.subCategory = Lowercase;
};
width = 560;
},
{
anchors = (
{
name = bottom;
pos = (322,0);
},
{
name = top;
pos = (300,600);
}
);
background = {
shapes = (
{
closed = 1;
nodes = (
(521,262,o),
(451,300,o),
(338,342,cs),
(225,384,o),
(182,403,o),
(182,459,cs),
(182,507,o),
(228,537,o),
(312,537,cs),
(370,537,o),
(427,520,o),
(477,499,c),
(508,572,l),
(453,596,o),
(390,611,o),
(318,611,cs),
(184,611,o),
(94,555,o),
(94,453,cs),
(94,353,o),
(166,319,o),
(281,276,cs),
(397,233,o),
(433,206,o),
(433,157,cs),
(433,99,o),
(389,63,o),
(285,63,cs),
(214,63,o),
(142,87,o),
(93,111,c),
(93,27,l),
(139,3,o),
(199,-11,o),
(283,-11,cs),
(430,-11,o),
(521,49,o),
(521,164,cs)
);
}
);
};
guides = (
{
angle = -12.3954;
pos = (279,230);
},
{
angle = 167.6046;
pos = (327,386);
},
{
angle = 180;
pos = (297,480);
},
{
angle = 180;
pos = (301,612);
},
{
angle = 90;
pos = (45,437);
},
{
angle = 90;
pos = (213,444);
},
{
angle = 90;
pos = (396,157);
},
{
angle = 90;
pos = (564,159);
},
{
pos = (307,126);
},
{
pos = (134,204);
}
);
layerId = "FB8C5FF2-3B42-4CDF-AA26-B13980DDC748";
shapes = (
{
closed = 1;
nodes = (
(470,-12,o),
(564,65,o),
(564,191,cs),
(564,288,o),
(508,341,o),
(393,366,cs),
(270,393,ls),
(244,399,o),
(230,413,o),
(230,434,cs),
(230,464,o),
(255,480,o),
(295,480,cs),
(345,480,o),
(376,454,o),
(386,406,c),
(558,406,l),
(552,532,o),
(454,612,o),
(306,612,cs),
(160,612,o),
(62,534,o),
(62,416,cs),
(62,326,o),
(120,271,o),
(231,247,cs),
(349,221,ls),
(381,214,o),
(396,200,o),
(396,176,cs),
(396,142,o),
(370,126,o),
(326,126,cs),
(268,126,o),
(230,153,o),
(220,204,c),
(48,204,l),
(55,71,o),
(160,-12,o),
(318,-12,cs)
);
}
);
userData = {
com.schriftgestaltung.Glyphs.category = Letter;
com.schriftgestaltung.Glyphs.script = latin;
com.schriftgestaltung.Glyphs.subCategory = Lowercase;
};
width = 600;
}
);
unicode = 115;
},
{
color = 4;
glyphname = germandbls;
lastChange = "2024-04-18 10:14:11 +0000";
layers = (
{
layerId = "4683CC84-822E-4D29-9A51-72FC3DB48604";
shapes = (
{
closed = 1;
nodes = (
(361,0,l),
(519,0,o),
(628,100,o),
(628,246,cs),
(628,362,o),
(549,455,o),
(441,465,c),
(441,469,l),
(531,488,o),
(585,555,o),
(585,646,cs),
(585,768,o),
(489,852,o),
(348,852,cs),
(195,852,o),
(96,756,o),
(96,609,cs),
(96,0,l),
(186,0,l),
(186,604,ls),
(186,717,o),
(245,780,o),
(347,780,cs),
(441,780,o),
(493,728,o),
(493,639,cs),
(493,549,o),
(436,497,o),
(331,497,cs),
(279,497,l),
(279,419,l),
(341,419,ls),
(464,419,o),
(538,354,o),
(538,248,cs),
(538,141,o),
(464,77,o),
(340,77,cs),
(279,77,l),
(279,-1,l)
);
}
);
userData = {
com.schriftgestaltung.Glyphs.category = Letter;
com.schriftgestaltung.Glyphs.script = latin;
com.schriftgestaltung.Glyphs.subCategory = Lowercase;
};
width = 690;
},
{
layerId = "FB8C5FF2-3B42-4CDF-AA26-B13980DDC748";
shapes = (
{
closed = 1;
nodes = (
(394,0,ls),
(559,1,o),
(662,95,o),
(662,243,cs),
(662,383,o),
(568,451,o),
(494,459,c),
(494,463,l),
(566,480,o),
(623,538,o),
(623,637,cs),
(623,760,o),
(523,852,o),
(354,852,cs),
(162,852,o),
(70,737,o),
(70,587,cs),
(70,0,l),
(250,0,l),
(250,575,ls),
(250,667,o),
(303,702,o),
(358,702,cs),
(404,702,o),
(448,671,o),
(448,613,cs),
(448,555,o),
(408,524,o),
(355,524,cs),
(322,524,l),
(322,374,l),
(363,374,ls),
(430,374,o),
(482,334,o),
(482,262,cs),
(482,188,o),
(429,149,o),
(362,149,cs),
(322,149,l),
(322,-1,l)
);
}
);
userData = {
com.schriftgestaltung.Glyphs.category = Letter;
com.schriftgestaltung.Glyphs.script = latin;
com.schriftgestaltung.Glyphs.subCategory = Lowercase;
};
width = 700;
},
{
anchors = (
{
name = bottom;
pos = (349,0);
},
{
name = top;
pos = (349,960);
}
);
associatedMasterId = "4683CC84-822E-4D29-9A51-72FC3DB48604";
layerId = "C0F7AFA7-0AC6-4F56-AD80-83985F724233";
name = "18 Apr 24 at 10:33";
shapes = (
{
closed = 1;
nodes = (
(575,802,o),
(482,858,o),
(341,858,cs),
(199,858,o),
(96,802,o),
(96,652,cs),
(96,0,l),
(187,0,l),
(187,652,ls),
(187,751,o),
(256,782,o),
(341,782,cs),
(424,782,o),
(483,753,o),
(483,689,cs),
(483,586,o),
(330,577,o),
(330,458,cs),
(330,397,o),
(361,360,o),
(452,301,cs),
(530,251,o),
(558,221,o),
(558,163,cs),
(558,102,o),
(522,63,o),
(438,63,cs),
(379,63,o),
(319,85,o),
(279,108,c),
(279,26,l),
(319,2,o),
(370,-11,o),
(441,-11,cs),
(564,-11,o),
(647,46,o),
(647,169,cs),
(647,260,o),
(597,307,o),
(518,360,cs),
(437,413,o),
(418,429,o),
(418,463,cs),
(418,536,o),
(575,565,o),
(575,694,cs)
);
}
);
userData = {
com.schriftgestaltung.Glyphs.category = Letter;
com.schriftgestaltung.Glyphs.script = latin;
com.schriftgestaltung.Glyphs.subCategory = Lowercase;
};
width = 698;
}
);
unicode = 223;
},
{
color = 9;
glyphname = t;
kernLeft = t;
kernRight = t;
lastChange = "2024-04-18 14:01:53 +0000";
layers = (
{
anchors = (
{
name = bottom;
pos = (261,0);
},
{
name = center;
pos = (220,300);
},
{
name = top;
pos = (198,780);
},
{
name = topright;
pos = (286,960);
}
);
background = {
shapes = (
{
closed = 1;
nodes = (
(269,0,ls),
(178,0,o),
(123,50,o),
(123,146,cs),
(123,528,l),
(18,528,l),
(18,600,l),
(124,600,l),
(124,780,l),
(212,780,l),
(212,600,l),
(362,600,l),
(362,528,l),
(213,528,l),
(213,146,ls),
(213,94,o),
(234,72,o),
(281,72,cs),
(376,72,l),
(376,0,l)
);
}
);
};
layerId = "FB8C5FF2-3B42-4CDF-AA26-B13980DDC748";
name = Bold;
shapes = (
{
closed = 1;
nodes = (
(414,0,l),
(414,144,l),
(288,144,l),
(288,456,l),
(402,456,l),
(402,600,l),
(286,600,l),
(286,780,l),
(110,780,l),
(110,600,l),
(18,600,l),
(18,456,l),
(108,456,l),
(108,144,ls),
(108,46,o),
(160,0,o),
(252,0,cs)
);
}
);
userData = {
com.schriftgestaltung.Glyphs.category = Letter;
com.schriftgestaltung.Glyphs.script = latin;
com.schriftgestaltung.Glyphs.subCategory = Lowercase;
};
width = 440;
},
{
anchors = (
{
name = bottom;
pos = (250,0);
},
{
name = center;
pos = (200,300);
},
{
name = top;
pos = (168,780);
},
{
name = topright;
pos = (212,960);
}
);
background = {
shapes = (
{
closed = 1;
nodes = (
(232,64,o),
(194,100,o),
(194,176,cs),
(194,529,l),
(370,529,l),
(370,600,l),
(194,600,l),
(194,739,l),
(140,739,l),
(103,609,l),
(18,573,l),
(18,529,l),
(103,529,l),
(103,173,ls),
(103,32,o),
(180,-11,o),
(275,-11,cs),
(310,-11,o),
(353,-3,o),
(374,6,c),
(374,77,l),
(354,69,o),
(320,64,o),
(290,64,cs)
);
}
);
};
layerId = "4683CC84-822E-4D29-9A51-72FC3DB48604";
name = Light;
shapes = (
{
closed = 1;
nodes = (
(376,0,l),
(376,72,l),
(213,72,l),
(213,528,l),
(362,528,l),
(362,600,l),
(212,600,l),
(212,780,l),
(124,780,l),
(124,600,l),
(18,600,l),
(18,528,l),
(123,528,l),
(123,86,ls),
(123,29,o),
(155,0,o),
(209,0,cs)
);
}
);
userData = {
com.schriftgestaltung.Glyphs.category = Letter;
com.schriftgestaltung.Glyphs.script = latin;
com.schriftgestaltung.Glyphs.subCategory = Lowercase;
};
width = 400;
}
);
unicode = 116;
},
{
color = 9;
glyphname = u;
kernLeft = u;
kernRight = u;
lastChange = "2024-04-18 14:03:48 +0000";
layers = (
{
anchors = (
{
name = bottom;
pos = (345,0);
},
{
name = ogonek;
pos = (621,10);
},
{
name = top;
pos = (345,600);
},
{
name = topright;
pos = (670,600);
}
);
background = {
shapes = (
{
closed = 1;
nodes = (
(503,600,l),
(503,284,ls),
(503,142,o),
(455,65,o),
(322,65,cs),
(229,65,o),
(184,113,o),
(184,214,cs),
(184,600,l),
(92,600,l),
(92,207,ls),
(92,56,o),
(166,-11,o),
(309,-11,cs),
(391,-11,o),
(465,21,o),
(502,84,c),
(507,84,l),
(520,0,l),
(594,0,l),
(594,600,l)
);
}
);
};
guides = (
{
angle = 90;
pos = (504,66);
}
);
layerId = "4683CC84-822E-4D29-9A51-72FC3DB48604";
name = "Light alt";
shapes = (
{
closed = 1;
nodes = (
(399,-11,o),
(467,31,o),
(500,107,c),
(504,107,l),
(504,0,l),
(594,0,l),
(594,600,l),
(504,600,l),
(504,245,ls),
(504,141,o),
(437,71,o),
(337,71,cs),
(239,71,o),
(182,137,o),
(182,245,cs),
(182,600,l),
(92,600,l),
(92,225,ls),
(92,86,o),
(181,-11,o),
(311,-11,cs)
);
}
);
userData = {
com.schriftgestaltung.Glyphs.category = Letter;
com.schriftgestaltung.Glyphs.script = latin;
com.schriftgestaltung.Glyphs.subCategory = Lowercase;
};
width = 690;
},
{
anchors = (
{
name = bottom;
pos = (355,0);
},
{
name = ogonek;
pos = (639,10);
},
{
name = top;
pos = (355,600);
},
{
name = topright;
pos = (690,600);
}
);
background = {
shapes = (
{
closed = 1;
nodes = (
(513,600,l),
(513,284,ls),
(513,142,o),
(465,65,o),
(332,65,cs),
(239,65,o),
(194,113,o),
(194,214,cs),
(194,600,l),
(102,600,l),
(102,207,ls),
(102,56,o),
(176,-11,o),
(319,-11,cs),
(401,-11,o),
(475,21,o),
(512,84,c),
(517,84,l),
(530,0,l),
(604,0,l),
(604,600,l)
);
}
);
};
guides = (
{
angle = 90;
pos = (514,66);
}
);
layerId = "FB8C5FF2-3B42-4CDF-AA26-B13980DDC748";
name = "Bold alt";
shapes = (
{
closed = 1;
nodes = (
(366,-11,o),
(429,25,o),
(462,90,c),
(466,90,l),
(466,0,l),
(640,0,l),
(640,600,l),
(460,600,l),
(460,279,ls),
(460,202,o),
(417,153,o),
(348,153,cs),
(283,153,o),
(246,197,o),
(246,273,cs),
(246,600,l),
(66,600,l),
(66,237,ls),
(66,88,o),
(154,-11,o),
(284,-11,cs)
);
}
);
userData = {
com.schriftgestaltung.Glyphs.category = Letter;
com.schriftgestaltung.Glyphs.script = latin;
com.schriftgestaltung.Glyphs.subCategory = Lowercase;
};
width = 710;
}
);
unicode = 117;
},
{
color = 9;
glyphname = v;
kernLeft = v;
kernRight = v;
lastChange = "2024-04-18 14:03:52 +0000";
layers = (
{
anchors = (
{
name = bottom;
pos = (290,0);
},
{
name = top;
pos = (290,600);
}
);
layerId = "4683CC84-822E-4D29-9A51-72FC3DB48604";
shapes = (
{
closed = 1;
nodes = (
(342,0,l),
(574,600,l),
(485,600,l),
(295,90,l),
(291,90,l),
(99,600,l),
(6,600,l),
(238,0,l)
);
}
);
userData = {
com.schriftgestaltung.Glyphs.category = Letter;
com.schriftgestaltung.Glyphs.script = latin;
com.schriftgestaltung.Glyphs.subCategory = Lowercase;
};
width = 580;
},
{
anchors = (
{
name = bottom;
pos = (330,0);
},
{
name = top;
pos = (330,600);
}
);
layerId = "FB8C5FF2-3B42-4CDF-AA26-B13980DDC748";
shapes = (
{
closed = 1;
nodes = (
(420,0,l),
(654,600,l),
(471,600,l),
(335,217,l),
(331,217,l),
(193,600,l),
(6,600,l),
(240,0,l)
);
}
);
userData = {
com.schriftgestaltung.Glyphs.category = Letter;
com.schriftgestaltung.Glyphs.script = latin;
com.schriftgestaltung.Glyphs.subCategory = Lowercase;
};
width = 660;
}
);
unicode = 118;
},
{
color = 9;
glyphname = w;
kernLeft = v;
kernRight = v;
lastChange = "2024-04-18 14:33:30 +0000";
layers = (
{
anchors = (
{
name = bottom;
pos = (450,0);
},
{
name = top;
pos = (450,600);
}
);
guides = (
{
angle = 104.7265;
pos = (166,435);
},
{
angle = 252.2613;
pos = (348,427);
},
{
angle = 107.1375;
pos = (555,427);
},
{
angle = 255.2735;
pos = (735,435);
},
{
angle = 72.1598;
pos = (352,174);
},
{
angle = -73.1052;
pos = (546,175);
}
);
layerId = "4683CC84-822E-4D29-9A51-72FC3DB48604";
shapes = (
{
closed = 1;
nodes = (
(291,0,l),
(448,498,l),
(452,498,l),
(609,0,l),
(711,0,l),
(882,600,l),
(792,600,l),
(659,108,l),
(655,108,l),
(499,600,l),
(403,600,l),
(247,108,l),
(243,108,l),
(110,600,l),
(18,600,l),
(189,0,l)
);
}
);
userData = {
com.schriftgestaltung.Glyphs.category = Letter;
com.schriftgestaltung.Glyphs.script = latin;
com.schriftgestaltung.Glyphs.subCategory = Lowercase;
};
width = 900;
},
{
anchors = (
{
name = bottom;
pos = (500,0);
},
{
name = top;
pos = (500,600);
}
);
guides = (
{
angle = 90;
pos = (296,245);
},
{
pos = (298,232);
}
);
layerId = "FB8C5FF2-3B42-4CDF-AA26-B13980DDC748";
shapes = (
{
closed = 1;
nodes = (
(385,0,l),
(498,346,l),
(502,346,l),
(615,0,l),
(805,0,l),
(982,600,l),
(802,600,l),
(704,232,l),
(700,232,l),
(587,600,l),
(415,600,l),
(300,232,l),
(296,232,l),
(200,600,l),
(18,600,l),
(195,0,l)
);
}
);
userData = {
com.schriftgestaltung.Glyphs.category = Letter;
com.schriftgestaltung.Glyphs.script = latin;
com.schriftgestaltung.Glyphs.subCategory = Lowercase;
};
width = 1000;
}
);
unicode = 119;
},
{
color = 9;
glyphname = x;
kernLeft = x;
kernRight = k;
lastChange = "2024-04-18 14:03:07 +0000";
layers = (
{
anchors = (
{
name = bottom;
pos = (290,0);
},
{
name = top;
pos = (290,600);
}
);
guides = (
{
angle = 234.6215;
pos = (126,154);
},
{
angle = 55.2441;
pos = (205,123);
},
{
angle = -55.561;
pos = (374,123);
},
{
angle = 125.5024;
pos = (453,154);
}
);
layerId = "4683CC84-822E-4D29-9A51-72FC3DB48604";
shapes = (
{
closed = 1;
nodes = (
(120,0,l),
(289,245,l),
(458,0,l),
(562,0,l),
(345,307,l),
(552,600,l),
(450,600,l),
(291,369,l),
(132,600,l),
(28,600,l),
(235,307,l),
(18,0,l)
);
}
);
userData = {
com.schriftgestaltung.Glyphs.category = Letter;
com.schriftgestaltung.Glyphs.script = latin;
com.schriftgestaltung.Glyphs.subCategory = Lowercase;
};
width = 580;
},
{
anchors = (
{
name = bottom;
pos = (330,0);
},
{
name = top;
pos = (330,600);
}
);
layerId = "FB8C5FF2-3B42-4CDF-AA26-B13980DDC748";
shapes = (
{
closed = 1;
nodes = (
(218,0,l),
(330,173,l),
(442,0,l),
(642,0,l),
(434,307,l),
(632,600,l),
(432,600,l),
(330,441,l),
(228,600,l),
(28,600,l),
(226,307,l),
(18,0,l)
);
}
);
userData = {
com.schriftgestaltung.Glyphs.category = Letter;
com.schriftgestaltung.Glyphs.script = latin;
com.schriftgestaltung.Glyphs.subCategory = Lowercase;
};
width = 660;
}
);
unicode = 120;
},
{
color = 9;
glyphname = y;
kernLeft = v;
kernRight = v;
lastChange = "2024-04-18 13:46:38 +0000";
layers = (
{
anchors = (
{
name = bottom;
pos = (290,0);
},
{
name = top;
pos = (290,600);
}
);
guides = (
{
angle = 69.281;
pos = (574,600);
},
{
angle = 249.908;
pos = (484,600);
}
);
layerId = "4683CC84-822E-4D29-9A51-72FC3DB48604";
shapes = (
{
closed = 1;
nodes = (
(200,-240,ls),
(256,-240,o),
(269,-206,o),
(290,-150,cs),
(347,0,l),
(574,600,l),
(484,600,l),
(305,110,l),
(301,110,l),
(99,600,l),
(6,600,l),
(258,-4,l),
(198,-168,l),
(27,-168,l),
(27,-240,l)
);
}
);
userData = {
com.schriftgestaltung.Glyphs.category = Letter;
com.schriftgestaltung.Glyphs.script = latin;
com.schriftgestaltung.Glyphs.subCategory = Lowercase;
};
width = 580;
},
{
anchors = (
{
name = bottom;
pos = (330,0);
},
{
name = top;
pos = (330,600);
}
);
associatedMasterId = "FB8C5FF2-3B42-4CDF-AA26-B13980DDC748";
guides = (
{
angle = 69.694;
pos = (654,600);
},
{
angle = 251.45;
pos = (471,600);
}
);
layerId = "53350E9A-B49A-421C-8A09-54755A18DEC7";
name = "18 Apr 24 at 15:18";
shapes = (
{
closed = 1;
nodes = (
(288,-240,ls),
(381,-240,o),
(432,-194,o),
(432,-96,cs),
(432,0,l),
(654,600,l),
(471,600,l),
(347,217,l),
(343,217,l),
(193,600,l),
(6,600,l),
(252,0,l),
(252,-96,l),
(84,-96,l),
(84,-240,l)
);
}
);
userData = {
com.schriftgestaltung.Glyphs.category = Letter;
com.schriftgestaltung.Glyphs.script = latin;
com.schriftgestaltung.Glyphs.subCategory = Lowercase;
};
width = 660;
},
{
anchors = (
{
name = bottom;
pos = (330,0);
},
{
name = top;
pos = (330,600);
}
);
guides = (
{
angle = 69.694;
pos = (654,600);
},
{
angle = 251.45;
pos = (471,600);
}
);
layerId = "FB8C5FF2-3B42-4CDF-AA26-B13980DDC748";
name = Bold;
shapes = (
{
closed = 1;
nodes = (
(222,-240,ls),
(315,-240,o),
(360,-197,o),
(393,-106,cs),
(432,0,l),
(654,600,l),
(471,600,l),
(347,217,l),
(343,217,l),
(193,600,l),
(6,600,l),
(252,0,l),
(216,-96,l),
(48,-96,l),
(48,-240,l)
);
}
);
userData = {
com.schriftgestaltung.Glyphs.category = Letter;
com.schriftgestaltung.Glyphs.script = latin;
com.schriftgestaltung.Glyphs.subCategory = Lowercase;
};
width = 660;
},
{
anchors = (
{
name = bottom;
pos = (290,0);
},
{
name = top;
pos = (290,600);
}
);
associatedMasterId = "4683CC84-822E-4D29-9A51-72FC3DB48604";
guides = (
{
angle = 69.281;
pos = (574,600);
},
{
angle = 249.908;
pos = (484,600);
}
);
layerId = "092BB580-EDB8-4C40-AEA9-BC9D3D24B37F";
name = "18 Apr 24 at 15:22";
shapes = (
{
closed = 1;
nodes = (
(257,-240,ls),
(313,-240,o),
(347,-210,o),
(347,-150,cs),
(347,0,l),
(574,600,l),
(484,600,l),
(306,110,l),
(302,110,l),
(99,600,l),
(6,600,l),
(257,0,l),
(257,-168,l),
(84,-168,l),
(84,-240,l)
);
}
);
userData = {
com.schriftgestaltung.Glyphs.category = Letter;
com.schriftgestaltung.Glyphs.script = latin;
com.schriftgestaltung.Glyphs.subCategory = Lowercase;
};
width = 580;
}
);
unicode = 121;
},
{
color = 9;
glyphname = y.ss03;
kernLeft = v;
kernRight = v;
lastChange = "2024-04-18 13:59:05 +0000";
layers = (
{
anchors = (
{
name = bottom;
pos = (330,0);
},
{
name = top;
pos = (330,600);
}
);
associatedMasterId = "FB8C5FF2-3B42-4CDF-AA26-B13980DDC748";
guides = (
{
angle = 69.694;
pos = (654,600);
},
{
angle = 251.45;
pos = (471,600);
}
);
layerId = "2618DA51-6911-47F7-B1E9-BD1D3584D8DA";
name = "18 Apr 24 at 15:23";
shapes = (
{
closed = 1;
nodes = (
(222,-240,ls),
(315,-240,o),
(360,-197,o),
(393,-106,cs),
(432,0,l),
(654,600,l),
(471,600,l),
(347,217,l),
(343,217,l),
(193,600,l),
(6,600,l),
(252,0,l),
(216,-96,l),
(48,-96,l),
(48,-240,l)
);
}
);
userData = {
com.schriftgestaltung.Glyphs.category = Letter;
com.schriftgestaltung.Glyphs.script = latin;
com.schriftgestaltung.Glyphs.subCategory = Lowercase;
};
width = 660;
},
{
anchors = (
{
name = bottom;
pos = (330,0);
},
{
name = top;
pos = (330,600);
}
);
guides = (
{
angle = 69.694;
pos = (654,600);
},
{
angle = 251.45;
pos = (471,600);
}
);
layerId = "FB8C5FF2-3B42-4CDF-AA26-B13980DDC748";
name = Bold;
shapes = (
{
closed = 1;
nodes = (
(288,-240,ls),
(381,-240,o),
(432,-194,o),
(432,-96,cs),
(432,0,l),
(654,600,l),
(471,600,l),
(347,217,l),
(343,217,l),
(193,600,l),
(6,600,l),
(252,0,l),
(252,-96,l),
(84,-96,l),
(84,-240,l)
);
}
);
userData = {
com.schriftgestaltung.Glyphs.category = Letter;
com.schriftgestaltung.Glyphs.script = latin;
com.schriftgestaltung.Glyphs.subCategory = Lowercase;
};
width = 660;
},
{
anchors = (
{
name = bottom;
pos = (290,0);
},
{
name = top;
pos = (290,600);
}
);
associatedMasterId = "4683CC84-822E-4D29-9A51-72FC3DB48604";
guides = (
{
angle = 69.281;
pos = (574,600);
},
{
angle = 249.908;
pos = (484,600);
}
);
layerId = "87B82E89-2020-4C90-93BE-AFF55BA78D55";
name = "18 Apr 24 at 15:23";
shapes = (
{
closed = 1;
nodes = (
(200,-240,ls),
(256,-240,o),
(269,-206,o),
(290,-150,cs),
(347,0,l),
(574,600,l),
(484,600,l),
(305,110,l),
(301,110,l),
(99,600,l),
(6,600,l),
(259,-6,l),
(200,-168,l),
(27,-168,l),
(27,-240,l)
);
}
);
userData = {
com.schriftgestaltung.Glyphs.category = Letter;
com.schriftgestaltung.Glyphs.script = latin;
com.schriftgestaltung.Glyphs.subCategory = Lowercase;
};
width = 580;
},
{
anchors = (
{
name = bottom;
pos = (290,0);
},
{
name = top;
pos = (290,600);
}
);
guides = (
{
angle = 69.281;
pos = (574,600);
},
{
angle = 249.908;
pos = (484,600);
}
);
layerId = "4683CC84-822E-4D29-9A51-72FC3DB48604";
name = Light;
shapes = (
{
closed = 1;
nodes = (
(257,-240,ls),
(313,-240,o),
(347,-210,o),
(347,-150,cs),
(347,0,l),
(574,600,l),
(484,600,l),
(306,110,l),
(302,110,l),
(99,600,l),
(6,600,l),
(257,0,l),
(257,-168,l),
(84,-168,l),
(84,-240,l)
);
}
);
userData = {
com.schriftgestaltung.Glyphs.category = Letter;
com.schriftgestaltung.Glyphs.script = latin;
com.schriftgestaltung.Glyphs.subCategory = Lowercase;
};
width = 580;
}
);
},
{
color = 9;
glyphname = z;
kernLeft = z;
kernRight = z;
lastChange = "2024-04-18 12:28:03 +0000";
layers = (
{
anchors = (
{
name = bottom;
pos = (280,0);
},
{
name = center;
pos = (280,300);
},
{
name = top;
pos = (280,600);
}
);
guides = (
{
angle = 233.2958;
pos = (500,533);
}
);
layerId = "4683CC84-822E-4D29-9A51-72FC3DB48604";
shapes = (
{
closed = 1;
nodes = (
(506,0,l),
(506,74,l),
(156,74,l),
(500,534,l),
(500,600,l),
(72,600,l),
(72,526,l),
(398,526,l),
(54,66,l),
(54,0,l)
);
}
);
userData = {
com.schriftgestaltung.Glyphs.category = Letter;
com.schriftgestaltung.Glyphs.script = latin;
com.schriftgestaltung.Glyphs.subCategory = Lowercase;
};
width = 560;
},
{
anchors = (
{
name = bottom;
pos = (280,0);
},
{
name = center;
pos = (280,300);
},
{
name = top;
pos = (280,600);
}
);
guides = (
{
angle = 233.2099;
pos = (175,292);
},
{
angle = 53.2099;
pos = (379,308);
}
);
layerId = "FB8C5FF2-3B42-4CDF-AA26-B13980DDC748";
shapes = (
{
closed = 1;
nodes = (
(524,0,l),
(524,146,l),
(260,146,l),
(518,492,l),
(518,600,l),
(54,600,l),
(54,454,l),
(294,454,l),
(36,108,l),
(36,0,l)
);
}
);
userData = {
com.schriftgestaltung.Glyphs.category = Letter;
com.schriftgestaltung.Glyphs.script = latin;
com.schriftgestaltung.Glyphs.subCategory = Lowercase;
};
width = 560;
}
);
unicode = 122;
},
{
export = 0;
glyphname = ae;
lastChange = "2024-04-18 14:36:07 +0000";
layers = (
{
anchors = (
{
name = bottom;
pos = (484,0);
},
{
name = top;
pos = (484,600);
}
);
layerId = "4683CC84-822E-4D29-9A51-72FC3DB48604";
shapes = (
{
closed = 1;
nodes = (
(592,611,o),
(528,572,o),
(489,505,c),
(461,579,o),
(401,610,o),
(307,610,cs),
(234,610,o),
(157,588,o),
(102,560,c),
(131,491,l),
(182,516,o),
(240,537,o),
(300,537,cs),
(378,537,o),
(428,500,o),
(428,399,cs),
(428,360,l),
(326,355,ls),
(142,349,o),
(51,284,o),
(51,165,cs),
(51,45,o),
(131,-11,o),
(241,-11,cs),
(358,-11,o),
(419,41,o),
(469,120,c),
(513,34,o),
(591,-11,o),
(697,-11,cs),
(770,-11,o),
(823,1,o),
(883,28,c),
(883,108,l),
(824,80,o),
(772,67,o),
(699,67,cs),
(585,67,o),
(524,137,o),
(521,284,c),
(909,284,l),
(909,342,ls),
(910,502,o),
(822,611,o),
(676,611,cs)
);
},
{
closed = 1;
nodes = (
(425,240,ls),
(425,122,o),
(354,63,o),
(256,63,cs),
(189,63,o),
(146,95,o),
(146,164,cs),
(146,243,o),
(198,286,o),
(340,292,cs),
(425,296,l)
);
},
{
closed = 1;
nodes = (
(769,537,o),
(813,464,o),
(813,356,c),
(523,356,l),
(531,473,o),
(586,537,o),
(675,537,cs)
);
}
);
userData = {
com.schriftgestaltung.Glyphs.category = Letter;
com.schriftgestaltung.Glyphs.script = latin;
com.schriftgestaltung.Glyphs.subCategory = Lowercase;
};
width = 967;
},
{
anchors = (
{
name = bottom;
pos = (484,0);
},
{
name = top;
pos = (484,600);
}
);
layerId = "FB8C5FF2-3B42-4CDF-AA26-B13980DDC748";
shapes = (
{
closed = 1;
nodes = (
(592,611,o),
(528,572,o),
(489,505,c),
(461,579,o),
(401,610,o),
(307,610,cs),
(234,610,o),
(157,588,o),
(102,560,c),
(131,491,l),
(182,516,o),
(240,537,o),
(300,537,cs),
(378,537,o),
(428,500,o),
(428,399,cs),
(428,360,l),
(326,355,ls),
(142,349,o),
(51,284,o),
(51,165,cs),
(51,45,o),
(131,-11,o),
(241,-11,cs),
(358,-11,o),
(419,41,o),
(469,120,c),
(513,34,o),
(591,-11,o),
(697,-11,cs),
(770,-11,o),
(823,1,o),
(883,28,c),
(883,108,l),
(824,80,o),
(772,67,o),
(699,67,cs),
(585,67,o),
(524,137,o),
(521,284,c),
(909,284,l),
(909,342,ls),
(910,502,o),
(822,611,o),
(676,611,cs)
);
},
{
closed = 1;
nodes = (
(425,240,ls),
(425,122,o),
(354,63,o),
(256,63,cs),
(189,63,o),
(146,95,o),
(146,164,cs),
(146,243,o),
(198,286,o),
(340,292,cs),
(425,296,l)
);
},
{
closed = 1;
nodes = (
(769,537,o),
(813,464,o),
(813,356,c),
(523,356,l),
(531,473,o),
(586,537,o),
(675,537,cs)
);
}
);
userData = {
com.schriftgestaltung.Glyphs.category = Letter;
com.schriftgestaltung.Glyphs.script = latin;
com.schriftgestaltung.Glyphs.subCategory = Lowercase;
};
width = 967;
}
);
unicode = 230;
},
{
export = 0;
glyphname = eth;
lastChange = "2024-04-18 14:36:07 +0000";
layers = (
{
anchors = (
{
name = bottom;
pos = (337,0);
},
{
name = top;
pos = (337,960);
}
);
layerId = "4683CC84-822E-4D29-9A51-72FC3DB48604";
shapes = (
{
closed = 1;
nodes = (
(203,795,l),
(239,777,o),
(275,755,o),
(306,733,c),
(180,660,l),
(218,603,l),
(365,688,l),
(429,629,o),
(482,553,o),
(506,464,c),
(501,463,l),
(465,508,o),
(405,530,o),
(324,530,cs),
(164,530,o),
(62,427,o),
(62,260,cs),
(62,93,o),
(174,-11,o),
(334,-11,cs),
(508,-11,o),
(611,99,o),
(611,308,cs),
(611,488,o),
(541,632,o),
(437,730,c),
(549,795,l),
(509,851,l),
(381,776,l),
(338,807,o),
(290,834,o),
(240,857,c)
);
},
{
closed = 1;
nodes = (
(464,456,o),
(519,376,o),
(519,286,cs),
(519,141,o),
(461,64,o),
(336,64,cs),
(211,64,o),
(154,142,o),
(154,257,cs),
(154,384,o),
(211,456,o),
(337,456,cs)
);
}
);
userData = {
com.schriftgestaltung.Glyphs.category = Letter;
com.schriftgestaltung.Glyphs.script = latin;
com.schriftgestaltung.Glyphs.subCategory = Lowercase;
};
width = 673;
},
{
anchors = (
{
name = bottom;
pos = (337,0);
},
{
name = top;
pos = (337,960);
}
);
layerId = "FB8C5FF2-3B42-4CDF-AA26-B13980DDC748";
shapes = (
{
closed = 1;
nodes = (
(203,795,l),
(239,777,o),
(275,755,o),
(306,733,c),
(180,660,l),
(218,603,l),
(365,688,l),
(429,629,o),
(482,553,o),
(506,464,c),
(501,463,l),
(465,508,o),
(405,530,o),
(324,530,cs),
(164,530,o),
(62,427,o),
(62,260,cs),
(62,93,o),
(174,-11,o),
(334,-11,cs),
(508,-11,o),
(611,99,o),
(611,308,cs),
(611,488,o),
(541,632,o),
(437,730,c),
(549,795,l),
(509,851,l),
(381,776,l),
(338,807,o),
(290,834,o),
(240,857,c)
);
},
{
closed = 1;
nodes = (
(464,456,o),
(519,376,o),
(519,286,cs),
(519,141,o),
(461,64,o),
(336,64,cs),
(211,64,o),
(154,142,o),
(154,257,cs),
(154,384,o),
(211,456,o),
(337,456,cs)
);
}
);
userData = {
com.schriftgestaltung.Glyphs.category = Letter;
com.schriftgestaltung.Glyphs.script = latin;
com.schriftgestaltung.Glyphs.subCategory = Lowercase;
};
width = 673;
}
);
unicode = 240;
},
{
export = 0;
glyphname = dcroat;
lastChange = "2024-04-18 14:36:07 +0000";
layers = (
{
layerId = "4683CC84-822E-4D29-9A51-72FC3DB48604";
shapes = (
{
closed = 1;
nodes = (
(405,-11,o),
(463,31,o),
(498,85,c),
(502,85,l),
(515,0,l),
(590,0,l),
(590,682,l),
(675,682,l),
(675,750,l),
(590,750,l),
(590,852,l),
(499,852,l),
(499,750,l),
(256,750,l),
(256,682,l),
(499,682,l),
(499,610,ls),
(499,584,o),
(502,537,o),
(505,514,c),
(499,514,l),
(463,567,o),
(406,608,o),
(310,608,cs),
(160,608,o),
(62,505,o),
(62,296,cs),
(62,93,o),
(157,-11,o),
(309,-11,cs)
);
},
{
closed = 1;
nodes = (
(211,65,o),
(157,148,o),
(157,295,cs),
(157,444,o),
(212,533,o),
(324,533,cs),
(457,533,o),
(499,451,o),
(499,297,cs),
(499,280,ls),
(499,137,o),
(452,65,o),
(324,65,cs)
);
}
);
userData = {
com.schriftgestaltung.Glyphs.category = Letter;
com.schriftgestaltung.Glyphs.script = latin;
com.schriftgestaltung.Glyphs.subCategory = Lowercase;
};
width = 688;
},
{
layerId = "FB8C5FF2-3B42-4CDF-AA26-B13980DDC748";
shapes = (
{
closed = 1;
nodes = (
(405,-11,o),
(463,31,o),
(498,85,c),
(502,85,l),
(515,0,l),
(590,0,l),
(590,682,l),
(675,682,l),
(675,750,l),
(590,750,l),
(590,852,l),
(499,852,l),
(499,750,l),
(256,750,l),
(256,682,l),
(499,682,l),
(499,610,ls),
(499,584,o),
(502,537,o),
(505,514,c),
(499,514,l),
(463,567,o),
(406,608,o),
(310,608,cs),
(160,608,o),
(62,505,o),
(62,296,cs),
(62,93,o),
(157,-11,o),
(309,-11,cs)
);
},
{
closed = 1;
nodes = (
(211,65,o),
(157,148,o),
(157,295,cs),
(157,444,o),
(212,533,o),
(324,533,cs),
(457,533,o),
(499,451,o),
(499,297,cs),
(499,280,ls),
(499,137,o),
(452,65,o),
(324,65,cs)
);
}
);
userData = {
com.schriftgestaltung.Glyphs.category = Letter;
com.schriftgestaltung.Glyphs.script = latin;
com.schriftgestaltung.Glyphs.subCategory = Lowercase;
};
width = 688;
}
);
unicode = 273;
},
{
export = 0;
glyphname = lslash;
lastChange = "2024-04-18 14:36:07 +0000";
layers = (
{
layerId = "4683CC84-822E-4D29-9A51-72FC3DB48604";
shapes = (
{
closed = 1;
nodes = (
(181,0,l),
(181,385,l),
(293,461,l),
(255,522,l),
(181,471,l),
(181,852,l),
(90,852,l),
(90,413,l),
(-8,350,l),
(30,289,l),
(90,326,l),
(90,0,l)
);
}
);
userData = {
com.schriftgestaltung.Glyphs.category = Letter;
com.schriftgestaltung.Glyphs.script = latin;
com.schriftgestaltung.Glyphs.subCategory = Lowercase;
};
width = 283;
},
{
layerId = "FB8C5FF2-3B42-4CDF-AA26-B13980DDC748";
shapes = (
{
closed = 1;
nodes = (
(181,0,l),
(181,385,l),
(293,461,l),
(255,522,l),
(181,471,l),
(181,852,l),
(90,852,l),
(90,413,l),
(-8,350,l),
(30,289,l),
(90,326,l),
(90,0,l)
);
}
);
userData = {
com.schriftgestaltung.Glyphs.category = Letter;
com.schriftgestaltung.Glyphs.script = latin;
com.schriftgestaltung.Glyphs.subCategory = Lowercase;
};
width = 283;
}
);
unicode = 322;
},
{
export = 0;
glyphname = oslash;
lastChange = "2024-04-18 14:36:07 +0000";
layers = (
{
anchors = (
{
name = top;
pos = (338,600);
}
);
layerId = "4683CC84-822E-4D29-9A51-72FC3DB48604";
shapes = (
{
closed = 1;
nodes = (
(613,394,o),
(587,468,o),
(543,521,c),
(596,594,l),
(535,634,l),
(488,568,l),
(447,596,o),
(396,611,o),
(340,611,cs),
(168,611,o),
(62,498,o),
(62,301,cs),
(62,206,o),
(88,131,o),
(133,77,c),
(79,4,l),
(139,-37,l),
(187,30,l),
(229,3,o),
(278,-11,o),
(336,-11,cs),
(508,-11,o),
(613,104,o),
(613,301,cs)
);
},
{
closed = 1;
nodes = (
(157,447,o),
(212,534,o),
(337,534,cs),
(379,534,o),
(415,523,o),
(442,503,c),
(186,153,l),
(165,191,o),
(157,241,o),
(157,301,cs)
);
},
{
closed = 1;
nodes = (
(519,157,o),
(463,65,o),
(338,65,cs),
(296,65,o),
(260,75,o),
(234,95,c),
(491,446,l),
(510,409,o),
(519,359,o),
(519,301,cs)
);
}
);
userData = {
com.schriftgestaltung.Glyphs.category = Letter;
com.schriftgestaltung.Glyphs.script = latin;
com.schriftgestaltung.Glyphs.subCategory = Lowercase;
};
width = 676;
},
{
anchors = (
{
name = top;
pos = (338,600);
}
);
layerId = "FB8C5FF2-3B42-4CDF-AA26-B13980DDC748";
shapes = (
{
closed = 1;
nodes = (
(613,394,o),
(587,468,o),
(543,521,c),
(596,594,l),
(535,634,l),
(488,568,l),
(447,596,o),
(396,611,o),
(340,611,cs),
(168,611,o),
(62,498,o),
(62,301,cs),
(62,206,o),
(88,131,o),
(133,77,c),
(79,4,l),
(139,-37,l),
(187,30,l),
(229,3,o),
(278,-11,o),
(336,-11,cs),
(508,-11,o),
(613,104,o),
(613,301,cs)
);
},
{
closed = 1;
nodes = (
(157,447,o),
(212,534,o),
(337,534,cs),
(379,534,o),
(415,523,o),
(442,503,c),
(186,153,l),
(165,191,o),
(157,241,o),
(157,301,cs)
);
},
{
closed = 1;
nodes = (
(519,157,o),
(463,65,o),
(338,65,cs),
(296,65,o),
(260,75,o),
(234,95,c),
(491,446,l),
(510,409,o),
(519,359,o),
(519,301,cs)
);
}
);
userData = {
com.schriftgestaltung.Glyphs.category = Letter;
com.schriftgestaltung.Glyphs.script = latin;
com.schriftgestaltung.Glyphs.subCategory = Lowercase;
};
width = 676;
}
);
unicode = 248;
},
{
export = 0;
glyphname = oe;
lastChange = "2024-04-18 14:36:07 +0000";
layers = (
{
anchors = (
{
name = bottom;
pos = (532,0);
},
{
name = top;
pos = (532,600);
}
);
layerId = "4683CC84-822E-4D29-9A51-72FC3DB48604";
shapes = (
{
closed = 1;
nodes = (
(668,610,o),
(595,562,o),
(553,479,c),
(510,563,o),
(433,610,o),
(334,610,cs),
(165,610,o),
(61,497,o),
(61,301,cs),
(61,103,o),
(172,-11,o),
(331,-11,cs),
(433,-11,o),
(512,35,o),
(556,121,c),
(601,34,o),
(680,-11,o),
(787,-11,cs),
(866,-11,o),
(917,1,o),
(978,28,c),
(978,108,l),
(917,80,o),
(866,67,o),
(788,67,cs),
(668,67,o),
(603,136,o),
(600,283,c),
(1004,283,l),
(1004,340,ls),
(1004,503,o),
(915,610,o),
(763,610,cs)
);
},
{
closed = 1;
nodes = (
(452,534,o),
(506,453,o),
(506,297,cs),
(506,146,o),
(453,65,o),
(332,65,cs),
(209,65,o),
(157,148,o),
(157,301,cs),
(157,454,o),
(209,534,o),
(330,534,cs)
);
},
{
closed = 1;
nodes = (
(864,536,o),
(908,464,o),
(908,356,c),
(602,356,l),
(612,473,o),
(669,536,o),
(763,536,cs)
);
}
);
userData = {
com.schriftgestaltung.Glyphs.category = Letter;
com.schriftgestaltung.Glyphs.script = latin;
com.schriftgestaltung.Glyphs.subCategory = Lowercase;
};
width = 1063;
},
{
anchors = (
{
name = bottom;
pos = (532,0);
},
{
name = top;
pos = (532,600);
}
);
layerId = "FB8C5FF2-3B42-4CDF-AA26-B13980DDC748";
shapes = (
{
closed = 1;
nodes = (
(668,610,o),
(595,562,o),
(553,479,c),
(510,563,o),
(433,610,o),
(334,610,cs),
(165,610,o),
(61,497,o),
(61,301,cs),
(61,103,o),
(172,-11,o),
(331,-11,cs),
(433,-11,o),
(512,35,o),
(556,121,c),
(601,34,o),
(680,-11,o),
(787,-11,cs),
(866,-11,o),
(917,1,o),
(978,28,c),
(978,108,l),
(917,80,o),
(866,67,o),
(788,67,cs),
(668,67,o),
(603,136,o),
(600,283,c),
(1004,283,l),
(1004,340,ls),
(1004,503,o),
(915,610,o),
(763,610,cs)
);
},
{
closed = 1;
nodes = (
(452,534,o),
(506,453,o),
(506,297,cs),
(506,146,o),
(453,65,o),
(332,65,cs),
(209,65,o),
(157,148,o),
(157,301,cs),
(157,454,o),
(209,534,o),
(330,534,cs)
);
},
{
closed = 1;
nodes = (
(864,536,o),
(908,464,o),
(908,356,c),
(602,356,l),
(612,473,o),
(669,536,o),
(763,536,cs)
);
}
);
userData = {
com.schriftgestaltung.Glyphs.category = Letter;
com.schriftgestaltung.Glyphs.script = latin;
com.schriftgestaltung.Glyphs.subCategory = Lowercase;
};
width = 1063;
}
);
unicode = 339;
},
{
export = 0;
glyphname = ordfeminine;
lastChange = "2024-04-04 18:11:18 +0000";
layers = (
{
anchors = (
{
name = bottom;
pos = (191,432);
},
{
name = top;
pos = (192,813);
}
);
layerId = "4683CC84-822E-4D29-9A51-72FC3DB48604";
shapes = (
{
closed = 1;
nodes = (
(147,810,o),
(97,796,o),
(60,778,c),
(83,726,l),
(117,743,o),
(154,755,o),
(195,755,cs),
(240,755,o),
(275,737,o),
(275,686,cs),
(275,660,l),
(214,658,ls),
(94,653,o),
(37,616,o),
(37,541,cs),
(37,467,o),
(82,431,o),
(152,431,cs),
(209,431,o),
(250,454,o),
(278,486,c),
(291,438,l),
(341,438,l),
(341,685,ls),
(341,772,o),
(292,810,o),
(197,810,cs)
);
},
{
closed = 1;
nodes = (
(275,585,ls),
(275,524,o),
(243,485,o),
(168,485,cs),
(129,485,o),
(105,502,o),
(105,541,cs),
(105,583,o),
(131,607,o),
(222,610,cs),
(275,612,l)
);
}
);
userData = {
com.schriftgestaltung.Glyphs.category = Letter;
com.schriftgestaltung.Glyphs.script = latin;
com.schriftgestaltung.Glyphs.subCategory = Superscript;
};
width = 396;
},
{
anchors = (
{
name = bottom;
pos = (191,432);
},
{
name = top;
pos = (192,813);
}
);
layerId = "FB8C5FF2-3B42-4CDF-AA26-B13980DDC748";
shapes = (
{
closed = 1;
nodes = (
(147,810,o),
(97,796,o),
(60,778,c),
(83,726,l),
(117,743,o),
(154,755,o),
(195,755,cs),
(240,755,o),
(275,737,o),
(275,686,cs),
(275,660,l),
(214,658,ls),
(94,653,o),
(37,616,o),
(37,541,cs),
(37,467,o),
(82,431,o),
(152,431,cs),
(209,431,o),
(250,454,o),
(278,486,c),
(291,438,l),
(341,438,l),
(341,685,ls),
(341,772,o),
(292,810,o),
(197,810,cs)
);
},
{
closed = 1;
nodes = (
(275,585,ls),
(275,524,o),
(243,485,o),
(168,485,cs),
(129,485,o),
(105,502,o),
(105,541,cs),
(105,583,o),
(131,607,o),
(222,610,cs),
(275,612,l)
);
}
);
userData = {
com.schriftgestaltung.Glyphs.category = Letter;
com.schriftgestaltung.Glyphs.script = latin;
com.schriftgestaltung.Glyphs.subCategory = Superscript;
};
width = 396;
}
);
unicode = 170;
},
{
export = 0;
glyphname = ordmasculine;
lastChange = "2024-04-04 18:11:18 +0000";
layers = (
{
anchors = (
{
name = bottom;
pos = (205,428);
},
{
name = top;
pos = (212,813);
}
);
layerId = "4683CC84-822E-4D29-9A51-72FC3DB48604";
shapes = (
{
closed = 1;
nodes = (
(384,742,o),
(317,810,o),
(211,810,cs),
(103,810,o),
(37,743,o),
(37,622,cs),
(37,498,o),
(107,431,o),
(209,431,cs),
(316,431,o),
(384,502,o),
(384,622,cs)
);
},
{
closed = 1;
nodes = (
(103,710,o),
(136,754,o),
(210,754,cs),
(284,754,o),
(316,709,o),
(316,622,cs),
(316,533,o),
(284,487,o),
(209,487,cs),
(135,487,o),
(103,533,o),
(103,622,cs)
);
}
);
userData = {
com.schriftgestaltung.Glyphs.category = Letter;
com.schriftgestaltung.Glyphs.script = latin;
com.schriftgestaltung.Glyphs.subCategory = Superscript;
};
width = 420;
},
{
anchors = (
{
name = bottom;
pos = (205,428);
},
{
name = top;
pos = (212,813);
}
);
layerId = "FB8C5FF2-3B42-4CDF-AA26-B13980DDC748";
shapes = (
{
closed = 1;
nodes = (
(384,742,o),
(317,810,o),
(211,810,cs),
(103,810,o),
(37,743,o),
(37,622,cs),
(37,498,o),
(107,431,o),
(209,431,cs),
(316,431,o),
(384,502,o),
(384,622,cs)
);
},
{
closed = 1;
nodes = (
(103,710,o),
(136,754,o),
(210,754,cs),
(284,754,o),
(316,709,o),
(316,622,cs),
(316,533,o),
(284,487,o),
(209,487,cs),
(135,487,o),
(103,533,o),
(103,622,cs)
);
}
);
userData = {
com.schriftgestaltung.Glyphs.category = Letter;
com.schriftgestaltung.Glyphs.script = latin;
com.schriftgestaltung.Glyphs.subCategory = Superscript;
};
width = 420;
}
);
unicode = 186;
},
{
color = 8;
glyphname = zero;
lastChange = "2024-04-17 09:42:33 +0000";
layers = (
{
layerId = "4683CC84-822E-4D29-9A51-72FC3DB48604";
shapes = (
{
closed = 1;
nodes = (
(505,-12,o),
(597,132,o),
(597,405,cs),
(597,678,o),
(505,822,o),
(330,822,cs),
(155,822,o),
(63,678,o),
(63,405,cs),
(63,132,o),
(155,-12,o),
(330,-12,cs)
);
},
{
closed = 1;
nodes = (
(212,70,o),
(153,182,o),
(153,405,cs),
(153,628,o),
(212,740,o),
(330,740,cs),
(448,740,o),
(507,628,o),
(507,405,cs),
(507,182,o),
(448,70,o),
(330,70,cs)
);
}
);
userData = {
com.schriftgestaltung.Glyphs.category = Number;
com.schriftgestaltung.Glyphs.subCategory = "Decimal Digit";
};
width = 660;
},
{
layerId = "FB8C5FF2-3B42-4CDF-AA26-B13980DDC748";
shapes = (
{
closed = 1;
nodes = (
(518,-12,o),
(618,132,o),
(618,405,cs),
(618,678,o),
(518,822,o),
(330,822,cs),
(142,822,o),
(42,678,o),
(42,405,cs),
(42,132,o),
(142,-12,o),
(330,-12,cs)
);
},
{
closed = 1;
nodes = (
(255,142,o),
(222,221,o),
(222,405,cs),
(222,589,o),
(255,668,o),
(330,668,cs),
(405,668,o),
(438,589,o),
(438,405,cs),
(438,221,o),
(405,142,o),
(330,142,cs)
);
}
);
userData = {
com.schriftgestaltung.Glyphs.category = Number;
com.schriftgestaltung.Glyphs.subCategory = "Decimal Digit";
};
width = 660;
}
);
unicode = 48;
},
{
color = 8;
glyphname = one;
lastChange = "2024-04-18 06:57:41 +0000";
layers = (
{
background = {
shapes = (
{
closed = 1;
nodes = (
(419,801,l),
(343,801,l),
(126,634,l),
(174,572,l),
(265,645,ls),
(294,669,o),
(311,682,o),
(334,705,c),
(331,664,o),
(330,631,o),
(330,567,cs),
(330,0,l),
(419,0,l)
);
}
);
};
layerId = "4683CC84-822E-4D29-9A51-72FC3DB48604";
shapes = (
{
closed = 1;
nodes = (
(579,0,l),
(579,80,l),
(409,80,l),
(409,810,l),
(331,810,l),
(108,641,l),
(108,546,l),
(112,546,l),
(319,705,l),
(319,80,l),
(122,80,l),
(122,0,l)
);
}
);
userData = {
com.schriftgestaltung.Glyphs.category = Number;
com.schriftgestaltung.Glyphs.subCategory = "Decimal Digit";
};
width = 661;
},
{
guides = (
{
angle = 270;
pos = (274,366);
},
{
angle = 90;
pos = (454,471);
}
);
layerId = "FB8C5FF2-3B42-4CDF-AA26-B13980DDC748";
shapes = (
{
closed = 1;
nodes = (
(609,0,l),
(609,144,l),
(454,144,l),
(454,810,l),
(298,810,l),
(78,644,l),
(78,460,l),
(82,460,l),
(274,607,l),
(274,144,l),
(92,144,l),
(92,0,l)
);
}
);
userData = {
com.schriftgestaltung.Glyphs.category = Number;
com.schriftgestaltung.Glyphs.subCategory = "Decimal Digit";
};
width = 660;
}
);
unicode = 49;
},
{
color = 8;
glyphname = two;
lastChange = "2024-04-18 07:00:26 +0000";
layers = (
{
background = {
shapes = (
{
ref = zero;
}
);
};
guides = (
{
angle = 180;
pos = (116,570);
}
);
layerId = "4683CC84-822E-4D29-9A51-72FC3DB48604";
shapes = (
{
closed = 1;
nodes = (
(588,0,l),
(588,82,l),
(190,82,l),
(190,86,l),
(457,373,ls),
(537,458,o),
(572,524,o),
(572,599,cs),
(572,731,o),
(470,822,o),
(332,822,cs),
(182,822,o),
(81,722,o),
(72,570,c),
(160,570,l),
(171,677,o),
(233,740,o),
(331,740,cs),
(421,740,o),
(482,683,o),
(482,595,cs),
(482,536,o),
(458,496,o),
(377,407,cs),
(72,72,l),
(72,0,l)
);
}
);
userData = {
com.schriftgestaltung.Glyphs.category = Number;
com.schriftgestaltung.Glyphs.subCategory = "Decimal Digit";
};
width = 660;
},
{
background = {
shapes = (
{
ref = zero;
}
);
};
guides = (
{
angle = 227.2648;
pos = (162,229);
},
{
angle = 46.8241;
pos = (358,205);
}
);
layerId = "FB8C5FF2-3B42-4CDF-AA26-B13980DDC748";
shapes = (
{
closed = 1;
nodes = (
(606,0,l),
(606,156,l),
(297,156,l),
(297,160,l),
(471,332,ls),
(567,426,o),
(600,498,o),
(600,578,cs),
(600,723,o),
(492,822,o),
(335,822,cs),
(169,822,o),
(58,715,o),
(48,547,c),
(218,547,l),
(226,624,o),
(269,672,o),
(330,672,cs),
(386,672,o),
(426,632,o),
(426,575,cs),
(426,535,o),
(407,501,o),
(350,441,cs),
(48,120,l),
(48,0,l)
);
}
);
userData = {
com.schriftgestaltung.Glyphs.category = Number;
com.schriftgestaltung.Glyphs.subCategory = "Decimal Digit";
};
width = 660;
},
{
associatedMasterId = "4683CC84-822E-4D29-9A51-72FC3DB48604";
background = {
shapes = (
{
closed = 1;
nodes = (
(590,83,l),
(181,83,l),
(181,87,l),
(355,261,ls),
(477,380,o),
(557,473,o),
(557,600,cs),
(557,731,o),
(465,812,o),
(317,812,cs),
(220,812,o),
(139,773,o),
(76,720,c),
(124,658,l),
(186,706,o),
(241,734,o),
(317,734,cs),
(405,734,o),
(463,685,o),
(463,594,cs),
(463,484,o),
(398,414,o),
(279,294,cs),
(65,76,l),
(65,0,l),
(590,0,l)
);
}
);
};
layerId = "30547143-6366-41D2-A743-13D791D7FA5E";
name = "17 Apr 24 at 09:31";
shapes = (
{
closed = 1;
nodes = (
(588,0,l),
(588,82,l),
(188,82,l),
(467,373,ls),
(548,457,o),
(582,524,o),
(582,599,cs),
(582,731,o),
(483,822,o),
(341,822,cs),
(191,822,o),
(87,722,o),
(78,570,c),
(166,570,l),
(177,677,o),
(242,740,o),
(340,740,cs),
(434,740,o),
(492,683,o),
(492,592,cs),
(492,536,o),
(469,495,o),
(387,407,cs),
(72,72,l),
(72,0,l)
);
}
);
userData = {
com.schriftgestaltung.Glyphs.category = Number;
com.schriftgestaltung.Glyphs.subCategory = "Decimal Digit";
};
width = 660;
}
);
unicode = 50;
},
{
color = 8;
glyphname = three;
lastChange = "2024-04-18 06:53:51 +0000";
layers = (
{
background = {
shapes = (
{
ref = zero;
},
{
closed = 1;
nodes = (
(538,729,o),
(456,812,o),
(293,812,cs),
(186,812,o),
(102,774,o),
(43,729,c),
(89,666,l),
(150,707,o),
(208,735,o),
(294,735,cs),
(387,735,o),
(445,689,o),
(445,608,cs),
(445,513,o),
(371,452,o),
(241,452,cs),
(160,452,l),
(160,375,l),
(240,375,ls),
(382,375,o),
(467,332,o),
(467,228,cs),
(467,128,o),
(406,66,o),
(260,66,cs),
(187,66,o),
(105,85,o),
(38,118,c),
(38,33,l),
(104,1,o),
(174,-11,o),
(259,-11,cs),
(468,-11,o),
(563,87,o),
(563,227,cs),
(563,333,o),
(499,401,o),
(372,417,c),
(372,422,l),
(472,441,o),
(538,507,o),
(538,614,cs)
);
}
);
};
guides = (
{
angle = 95.3051;
pos = (151,208);
},
{
pos = (419,461);
}
);
layerId = "4683CC84-822E-4D29-9A51-72FC3DB48604";
shapes = (
{
closed = 1;
nodes = (
(463,-12,o),
(582,70,o),
(582,226,cs),
(582,332,o),
(517,401,o),
(429,423,c),
(429,427,l),
(507,455,o),
(564,523,o),
(564,608,cs),
(564,742,o),
(458,822,o),
(329,822,cs),
(185,822,o),
(85,728,o),
(74,600,c),
(160,600,l),
(174,679,o),
(229,740,o),
(326,740,cs),
(408,740,o),
(476,684,o),
(476,597,cs),
(476,524,o),
(425,459,o),
(327,459,cs),
(234,459,l),
(234,383,l),
(320,383,ls),
(421,383,o),
(494,326,o),
(494,230,cs),
(494,132,o),
(419,70,o),
(320,70,cs),
(222,70,o),
(156,121,o),
(148,210,c),
(60,210,l),
(73,68,o),
(171,-12,o),
(324,-12,cs)
);
}
);
userData = {
com.schriftgestaltung.Glyphs.category = Number;
com.schriftgestaltung.Glyphs.subCategory = "Decimal Digit";
};
width = 660;
},
{
background = {
shapes = (
{
closed = 1;
nodes = (
(495,-12,o),
(624,82,o),
(624,235,cs),
(624,329,o),
(565,396,o),
(496,428,c),
(496,432,l),
(555,462,o),
(600,522,o),
(600,594,cs),
(600,731,o),
(487,822,o),
(330,822,cs),
(173,822,o),
(60,731,o),
(60,594,cs),
(60,522,o),
(105,457,o),
(164,426,c),
(164,422,l),
(95,391,o),
(36,329,o),
(36,235,cs),
(36,82,o),
(165,-12,o),
(330,-12,cs)
);
},
{
closed = 1;
nodes = (
(266,138,o),
(210,180,o),
(210,245,cs),
(210,310,o),
(266,352,o),
(330,352,cs),
(394,352,o),
(450,310,o),
(450,245,cs),
(450,180,o),
(394,138,o),
(330,138,cs)
);
},
{
closed = 1;
nodes = (
(274,498,o),
(228,532,o),
(228,587,cs),
(228,642,o),
(274,676,o),
(330,676,cs),
(386,676,o),
(432,642,o),
(432,587,cs),
(432,532,o),
(386,498,o),
(330,498,cs)
);
}
);
};
layerId = "FB8C5FF2-3B42-4CDF-AA26-B13980DDC748";
shapes = (
{
closed = 1;
nodes = (
(504,-12,o),
(624,92,o),
(624,242,cs),
(624,331,o),
(577,401,o),
(496,431,c),
(496,437,l),
(562,474,o),
(600,535,o),
(600,603,cs),
(600,732,o),
(493,822,o),
(336,822,cs),
(170,822,o),
(53,723,o),
(48,580,c),
(222,580,l),
(229,640,o),
(269,676,o),
(331,676,cs),
(387,676,o),
(426,636,o),
(426,581,cs),
(426,529,o),
(387,493,o),
(331,493,cs),
(254,493,l),
(254,349,l),
(331,349,ls),
(399,349,o),
(444,308,o),
(444,248,cs),
(444,181,o),
(400,138,o),
(331,138,cs),
(267,138,o),
(225,172,o),
(218,228,c),
(36,228,l),
(49,76,o),
(159,-12,o),
(333,-12,cs)
);
}
);
userData = {
com.schriftgestaltung.Glyphs.category = Number;
com.schriftgestaltung.Glyphs.subCategory = "Decimal Digit";
};
width = 660;
},
{
associatedMasterId = "4683CC84-822E-4D29-9A51-72FC3DB48604";
background = {
shapes = (
{
closed = 1;
nodes = (
(538,729,o),
(456,812,o),
(293,812,cs),
(186,812,o),
(102,774,o),
(43,729,c),
(89,666,l),
(150,707,o),
(208,735,o),
(294,735,cs),
(387,735,o),
(445,689,o),
(445,608,cs),
(445,513,o),
(371,452,o),
(241,452,cs),
(160,452,l),
(160,375,l),
(240,375,ls),
(382,375,o),
(467,332,o),
(467,228,cs),
(467,128,o),
(406,66,o),
(260,66,cs),
(187,66,o),
(105,85,o),
(38,118,c),
(38,33,l),
(104,1,o),
(174,-11,o),
(259,-11,cs),
(468,-11,o),
(563,87,o),
(563,227,cs),
(563,333,o),
(499,401,o),
(372,417,c),
(372,422,l),
(472,441,o),
(538,507,o),
(538,614,cs)
);
}
);
};
layerId = "52A4315B-2288-4B9D-85FA-3263E2AA9D17";
name = "17 Apr 24 at 09:38";
shapes = (
{
closed = 1;
nodes = (
(468,-12,o),
(594,64,o),
(594,215,cs),
(594,316,o),
(529,381,o),
(453,405,c),
(529,436,o),
(589,509,o),
(589,600,cs),
(589,741,o),
(475,822,o),
(326,822,cs),
(183,822,o),
(77,728,o),
(71,600,c),
(160,600,l),
(168,679,o),
(231,740,o),
(320,740,cs),
(332,740,ls),
(427,740,o),
(500,683,o),
(500,589,cs),
(500,510,o),
(440,446,o),
(342,446,cs),
(282,446,l),
(282,363,l),
(335,363,ls),
(430,363,o),
(506,310,o),
(506,220,cs),
(506,126,o),
(428,70,o),
(330,70,cs),
(318,70,ls),
(224,70,o),
(161,121,o),
(145,208,c),
(57,208,l),
(70,68,o),
(167,-12,o),
(324,-12,cs)
);
}
);
userData = {
com.schriftgestaltung.Glyphs.category = Number;
com.schriftgestaltung.Glyphs.subCategory = "Decimal Digit";
};
width = 660;
}
);
unicode = 51;
},
{
color = 8;
glyphname = four;
lastChange = "2024-04-18 05:33:32 +0000";
layers = (
{
guides = (
{
pos = (624,269);
}
);
layerId = "4683CC84-822E-4D29-9A51-72FC3DB48604";
shapes = (
{
closed = 1;
nodes = (
(508,0,l),
(508,200,l),
(630,200,l),
(630,280,l),
(508,280,l),
(508,810,l),
(420,810,l),
(30,270,l),
(30,200,l),
(420,200,l),
(420,0,l)
);
},
{
closed = 1;
nodes = (
(420,696,l),
(424,696,l),
(424,280,l),
(121,280,l)
);
}
);
userData = {
com.schriftgestaltung.Glyphs.category = Number;
com.schriftgestaltung.Glyphs.subCategory = "Decimal Digit";
};
width = 660;
},
{
guides = (
{
angle = 270;
pos = (552,100);
},
{
angle = 270;
pos = (376,100);
},
{
angle = 234.4207;
pos = (193,310);
}
);
layerId = "FB8C5FF2-3B42-4CDF-AA26-B13980DDC748";
shapes = (
{
closed = 1;
nodes = (
(552,0,l),
(552,170,l),
(642,170,l),
(642,310,l),
(552,310,l),
(552,810,l),
(390,810,l),
(18,290,l),
(18,170,l),
(378,170,l),
(378,0,l)
);
},
{
closed = 1;
nodes = (
(380,563,l),
(384,563,l),
(384,310,l),
(204,310,l)
);
}
);
userData = {
com.schriftgestaltung.Glyphs.category = Number;
com.schriftgestaltung.Glyphs.subCategory = "Decimal Digit";
};
width = 660;
}
);
unicode = 52;
},
{
color = 8;
glyphname = five;
lastChange = "2024-04-18 07:02:08 +0000";
layers = (
{
background = {
shapes = (
{
ref = zero;
},
{
closed = 1;
nodes = (
(253,490,o),
(208,481,o),
(180,476,c),
(200,717,l),
(521,717,l),
(521,801,l),
(123,801,l),
(92,425,l),
(138,395,l),
(173,404,o),
(234,412,o),
(279,412,cs),
(420,412,o),
(483,352,o),
(483,245,cs),
(483,125,o),
(401,67,o),
(280,67,cs),
(208,67,o),
(125,87,o),
(72,119,c),
(72,33,l),
(121,4,o),
(195,-11,o),
(279,-11,cs),
(465,-11,o),
(577,89,o),
(577,254,cs),
(577,404,o),
(471,490,o),
(308,490,cs)
);
},
{
closed = 1;
nodes = (
(463,-12,o),
(582,70,o),
(582,226,cs),
(582,332,o),
(517,401,o),
(429,423,c),
(429,427,l),
(507,455,o),
(564,523,o),
(564,608,cs),
(564,742,o),
(458,822,o),
(329,822,cs),
(185,822,o),
(85,728,o),
(74,600,c),
(160,600,l),
(174,679,o),
(229,740,o),
(326,740,cs),
(408,740,o),
(476,684,o),
(476,597,cs),
(476,524,o),
(425,459,o),
(327,459,cs),
(244,459,l),
(244,383,l),
(320,383,ls),
(421,383,o),
(494,326,o),
(494,230,cs),
(494,132,o),
(419,70,o),
(320,70,cs),
(222,70,o),
(156,121,o),
(148,210,c),
(60,210,l),
(73,68,o),
(171,-12,o),
(324,-12,cs)
);
}
);
};
guides = (
{
angle = 263.7769;
pos = (113,613);
},
{
angle = 263.7769;
pos = (210,717);
}
);
layerId = "4683CC84-822E-4D29-9A51-72FC3DB48604";
shapes = (
{
closed = 1;
nodes = (
(475,-12,o),
(582,101,o),
(582,261,cs),
(582,417,o),
(481,523,o),
(331,523,cs),
(274,523,o),
(222,506,o),
(186,473,c),
(182,473,l),
(212,728,l),
(540,728,l),
(540,810,l),
(135,810,l),
(85,372,l),
(162,372,l),
(195,416,o),
(254,443,o),
(320,443,cs),
(422,443,o),
(494,366,o),
(494,256,cs),
(494,146,o),
(423,70,o),
(320,70,cs),
(220,70,o),
(156,122,o),
(148,210,c),
(60,210,l),
(73,69,o),
(170,-12,o),
(324,-12,cs)
);
}
);
userData = {
com.schriftgestaltung.Glyphs.category = Number;
com.schriftgestaltung.Glyphs.subCategory = "Decimal Digit";
};
width = 660;
},
{
guides = (
{
angle = 263.4944;
pos = (261,646);
},
{
angle = 263.4944;
pos = (84,582);
}
);
layerId = "FB8C5FF2-3B42-4CDF-AA26-B13980DDC748";
shapes = (
{
closed = 1;
nodes = (
(504,-12,o),
(624,100,o),
(624,282,cs),
(624,429,o),
(525,542,o),
(380,542,cs),
(320,542,o),
(278,524,o),
(250,498,c),
(244,498,l),
(262,652,l),
(582,652,l),
(582,810,l),
(115,810,l),
(61,339,l),
(216,339,l),
(237,376,o),
(275,398,o),
(325,398,cs),
(398,398,o),
(450,341,o),
(450,268,cs),
(450,191,o),
(403,138,o),
(331,138,cs),
(265,138,o),
(221,172,o),
(213,228,c),
(31,228,l),
(44,76,o),
(154,-12,o),
(330,-12,cs)
);
}
);
userData = {
com.schriftgestaltung.Glyphs.category = Number;
com.schriftgestaltung.Glyphs.subCategory = "Decimal Digit";
};
width = 660;
}
);
unicode = 53;
},
{
color = 8;
glyphname = six;
lastChange = "2024-04-17 14:09:30 +0000";
layers = (
{
background = {
shapes = (
{
closed = 1;
nodes = (
(164,256,l),
(164,366,o),
(234,443,o),
(332,443,cs),
(430,443,o),
(500,366,o),
(500,256,cs),
(500,146,o),
(436,70,o),
(340,70,cs),
(222,70,o),
(153,172,o),
(153,375,cs),
(153,618,o),
(222,740,o),
(340,740,cs),
(416,740,o),
(468,693,o),
(490,600,c),
(582,600,l),
(550,746,o),
(467,822,o),
(340,822,cs),
(165,822,o),
(63,668,o),
(63,375,cs),
(63,122,o),
(165,-12,o),
(340,-12,cs),
(488,-12,o),
(588,101,o),
(588,261,cs),
(588,417,o),
(489,523,o),
(343,523,cs),
(197,523,o),
(98,417,o),
(98,261,c)
);
}
);
};
guides = (
{
angle = 180;
pos = (486,630);
},
{
pos = (500,256);
}
);
layerId = "4683CC84-822E-4D29-9A51-72FC3DB48604";
shapes = (
{
closed = 1;
nodes = (
(492,-12,o),
(594,100,o),
(594,261,cs),
(594,416,o),
(495,523,o),
(348,523,cs),
(268,523,o),
(192,482,o),
(155,408,c),
(151,408,l),
(157,625,o),
(235,740,o),
(352,740,cs),
(424,740,o),
(477,701,o),
(498,630,c),
(588,630,l),
(561,752,o),
(474,822,o),
(352,822,cs),
(172,822,o),
(63,655,o),
(63,375,cs),
(63,126,o),
(164,-12,o),
(345,-12,cs)
);
},
{
closed = 1;
nodes = (
(239,70,o),
(159,162,o),
(159,286,cs),
(159,377,o),
(231,443,o),
(327,443,cs),
(433,443,o),
(506,362,o),
(506,256,cs),
(506,147,o),
(438,70,o),
(341,70,cs)
);
}
);
userData = {
com.schriftgestaltung.Glyphs.category = Number;
com.schriftgestaltung.Glyphs.subCategory = "Decimal Digit";
};
width = 642;
},
{
background = {
shapes = (
{
closed = 1;
nodes = (
(518,-12,o),
(618,132,o),
(618,405,cs),
(618,678,o),
(518,822,o),
(330,822,cs),
(142,822,o),
(42,678,o),
(42,405,cs),
(42,132,o),
(142,-12,o),
(330,-12,cs)
);
},
{
closed = 1;
nodes = (
(255,142,o),
(222,221,o),
(222,405,cs),
(222,589,o),
(255,668,o),
(330,668,cs),
(405,668,o),
(438,589,o),
(438,405,cs),
(438,221,o),
(405,142,o),
(330,142,cs)
);
}
);
};
layerId = "FB8C5FF2-3B42-4CDF-AA26-B13980DDC748";
shapes = (
{
closed = 1;
nodes = (
(511,-12,o),
(624,104,o),
(624,272,cs),
(624,431,o),
(527,535,o),
(389,535,cs),
(316,535,o),
(259,501,o),
(226,453,c),
(222,453,l),
(228,603,o),
(274,678,o),
(345,678,cs),
(391,678,o),
(421,651,o),
(432,600,c),
(618,600,l),
(599,739,o),
(498,822,o),
(346,822,cs),
(152,822,o),
(33,660,o),
(33,395,cs),
(33,136,o),
(146,-12,o),
(345,-12,cs)
);
},
{
closed = 1;
nodes = (
(272,132,o),
(221,195,o),
(221,276,cs),
(221,343,o),
(265,391,o),
(332,391,cs),
(402,391,o),
(450,337,o),
(450,261,cs),
(450,185,o),
(407,132,o),
(341,132,cs)
);
}
);
userData = {
com.schriftgestaltung.Glyphs.category = Number;
com.schriftgestaltung.Glyphs.subCategory = "Decimal Digit";
};
width = 660;
},
{
associatedMasterId = "4683CC84-822E-4D29-9A51-72FC3DB48604";
background = {
shapes = (
{
closed = 1;
nodes = (
(64,109,o),
(178,-11,o),
(334,-11,cs),
(490,-11,o),
(587,91,o),
(587,257,cs),
(587,411,o),
(495,500,o),
(355,500,cs),
(255,500,o),
(194,456,o),
(160,402,c),
(154,402,l),
(162,591,o),
(225,737,o),
(428,737,cs),
(463,737,o),
(499,733,o),
(527,723,c),
(527,802,l),
(502,809,o),
(459,812,o),
(427,812,cs),
(137,812,o),
(64,584,o),
(64,342,cs)
);
},
{
closed = 1;
nodes = (
(212,66,o),
(156,182,o),
(156,278,cs),
(156,349,o),
(227,428,o),
(337,428,cs),
(444,428,o),
(497,363,o),
(497,257,cs),
(497,129,o),
(432,66,o),
(333,66,cs)
);
}
);
};
guides = (
{
angle = 180;
pos = (116,570);
}
);
layerId = "EBE4287B-94F8-4F19-B9A7-BEC6B6814490";
name = "17 Apr 24 at 10:31";
shapes = (
{
closed = 1;
nodes = (
(152,256,l),
(152,366,o),
(224,443,o),
(326,443,cs),
(428,443,o),
(500,366,o),
(500,256,cs),
(500,146,o),
(436,70,o),
(340,70,cs),
(222,70,o),
(153,172,o),
(153,375,cs),
(153,618,o),
(222,740,o),
(340,740,cs),
(416,740,o),
(468,693,o),
(490,600,c),
(582,600,l),
(550,746,o),
(467,822,o),
(340,822,cs),
(165,822,o),
(63,668,o),
(63,375,cs),
(63,122,o),
(165,-12,o),
(340,-12,cs),
(488,-12,o),
(588,101,o),
(588,261,cs),
(588,417,o),
(487,523,o),
(337,523,cs),
(187,523,o),
(86,417,o),
(86,261,c)
);
}
);
userData = {
com.schriftgestaltung.Glyphs.category = Number;
com.schriftgestaltung.Glyphs.subCategory = "Decimal Digit";
};
width = 642;
}
);
unicode = 54;
},
{
color = 8;
glyphname = seven;
lastChange = "2024-04-17 09:48:27 +0000";
layers = (
{
layerId = "4683CC84-822E-4D29-9A51-72FC3DB48604";
shapes = (
{
closed = 1;
nodes = (
(265,0,l),
(600,733,l),
(600,810,l),
(60,810,l),
(60,726,l),
(503,726,l),
(163,0,l)
);
}
);
userData = {
com.schriftgestaltung.Glyphs.category = Number;
com.schriftgestaltung.Glyphs.subCategory = "Decimal Digit";
};
width = 660;
},
{
guides = (
{
angle = 65.4223;
pos = (497,399);
},
{
angle = 244.9054;
pos = (279,351);
}
);
layerId = "FB8C5FF2-3B42-4CDF-AA26-B13980DDC748";
shapes = (
{
closed = 1;
nodes = (
(309,0,l),
(624,690,l),
(624,810,l),
(36,810,l),
(36,642,l),
(405,642,l),
(105,0,l)
);
}
);
userData = {
com.schriftgestaltung.Glyphs.category = Number;
com.schriftgestaltung.Glyphs.subCategory = "Decimal Digit";
};
width = 660;
}
);
unicode = 55;
},
{
color = 8;
glyphname = eight;
lastChange = "2024-04-18 06:19:20 +0000";
layers = (
{
background = {
shapes = (
{
closed = 1;
nodes = (
(193,812,o),
(92,743,o),
(92,622,cs),
(92,522,o),
(157,463,o),
(237,419,c),
(145,378,o),
(66,313,o),
(66,203,cs),
(66,69,o),
(162,-11,o),
(332,-11,cs),
(489,-11,o),
(593,72,o),
(593,207,cs),
(593,317,o),
(514,377,o),
(411,424,c),
(497,467,o),
(567,524,o),
(567,622,cs),
(567,745,o),
(469,812,o),
(330,812,cs)
);
},
{
closed = 1;
nodes = (
(156,288,o),
(213,340,o),
(314,382,c),
(334,375,ls),
(438,335,o),
(504,285,o),
(504,206,cs),
(504,119,o),
(440,62,o),
(330,62,cs),
(213,62,o),
(156,121,o),
(156,203,cs)
);
},
{
closed = 1;
nodes = (
(418,738,o),
(477,695,o),
(477,618,cs),
(477,537,o),
(416,494,o),
(334,460,c),
(248,495,o),
(182,534,o),
(182,618,cs),
(182,695,o),
(242,738,o),
(329,738,cs)
);
},
{
ref = zero;
}
);
};
layerId = "4683CC84-822E-4D29-9A51-72FC3DB48604";
shapes = (
{
closed = 1;
nodes = (
(472,-12,o),
(594,70,o),
(594,223,cs),
(594,326,o),
(527,397,o),
(453,427,c),
(453,431,l),
(516,460,o),
(570,525,o),
(570,606,cs),
(570,743,o),
(463,822,o),
(330,822,cs),
(197,822,o),
(90,743,o),
(90,606,cs),
(90,525,o),
(144,454,o),
(207,425,c),
(207,421,l),
(133,391,o),
(66,326,o),
(66,223,cs),
(66,70,o),
(188,-12,o),
(330,-12,cs)
);
},
{
closed = 1;
nodes = (
(236,68,o),
(154,130,o),
(154,227,cs),
(154,324,o),
(236,386,o),
(330,386,cs),
(424,386,o),
(506,324,o),
(506,227,cs),
(506,130,o),
(424,68,o),
(330,68,cs)
);
},
{
closed = 1;
nodes = (
(247,464,o),
(178,517,o),
(178,603,cs),
(178,689,o),
(247,742,o),
(330,742,cs),
(413,742,o),
(482,689,o),
(482,603,cs),
(482,517,o),
(413,464,o),
(330,464,cs)
);
}
);
userData = {
com.schriftgestaltung.Glyphs.category = Number;
com.schriftgestaltung.Glyphs.subCategory = "Decimal Digit";
};
width = 660;
},
{
layerId = "FB8C5FF2-3B42-4CDF-AA26-B13980DDC748";
shapes = (
{
closed = 1;
nodes = (
(495,-12,o),
(624,82,o),
(624,235,cs),
(624,329,o),
(565,396,o),
(496,428,c),
(496,432,l),
(555,462,o),
(600,522,o),
(600,594,cs),
(600,731,o),
(487,822,o),
(330,822,cs),
(173,822,o),
(60,731,o),
(60,594,cs),
(60,522,o),
(105,457,o),
(164,426,c),
(164,422,l),
(95,391,o),
(36,329,o),
(36,235,cs),
(36,82,o),
(165,-12,o),
(330,-12,cs)
);
},
{
closed = 1;
nodes = (
(269,138,o),
(216,180,o),
(216,245,cs),
(216,310,o),
(269,352,o),
(330,352,cs),
(391,352,o),
(444,310,o),
(444,245,cs),
(444,180,o),
(391,138,o),
(330,138,cs)
);
},
{
closed = 1;
nodes = (
(277,498,o),
(234,532,o),
(234,587,cs),
(234,642,o),
(277,676,o),
(330,676,cs),
(383,676,o),
(426,642,o),
(426,587,cs),
(426,532,o),
(383,498,o),
(330,498,cs)
);
}
);
userData = {
com.schriftgestaltung.Glyphs.category = Number;
com.schriftgestaltung.Glyphs.subCategory = "Decimal Digit";
};
width = 660;
},
{
associatedMasterId = "4683CC84-822E-4D29-9A51-72FC3DB48604";
layerId = "6886B2E4-4FF1-4685-9FB6-E28B2E3F0846";
name = "17 Apr 24 at 10:08";
shapes = (
{
closed = 1;
nodes = (
(183,812,o),
(82,743,o),
(82,622,cs),
(82,522,o),
(147,463,o),
(227,419,c),
(135,378,o),
(56,313,o),
(56,203,cs),
(56,69,o),
(152,-11,o),
(322,-11,cs),
(479,-11,o),
(583,72,o),
(583,207,cs),
(583,317,o),
(504,377,o),
(401,424,c),
(487,467,o),
(557,524,o),
(557,622,cs),
(557,745,o),
(459,812,o),
(320,812,cs)
);
},
{
closed = 1;
nodes = (
(146,288,o),
(203,340,o),
(304,382,c),
(324,375,ls),
(428,335,o),
(494,285,o),
(494,206,cs),
(494,119,o),
(430,62,o),
(320,62,cs),
(203,62,o),
(146,121,o),
(146,203,cs)
);
},
{
closed = 1;
nodes = (
(408,738,o),
(467,695,o),
(467,618,cs),
(467,537,o),
(406,494,o),
(324,460,c),
(238,495,o),
(172,534,o),
(172,618,cs),
(172,695,o),
(232,738,o),
(319,738,cs)
);
}
);
userData = {
com.schriftgestaltung.Glyphs.category = Number;
com.schriftgestaltung.Glyphs.subCategory = "Decimal Digit";
};
width = 642;
}
);
unicode = 56;
},
{
color = 8;
glyphname = nine;
lastChange = "2024-04-17 17:23:21 +0000";
layers = (
{
background = {
shapes = (
{
closed = 1;
nodes = (
(581,691,o),
(468,812,o),
(310,812,cs),
(156,812,o),
(56,708,o),
(56,543,cs),
(56,389,o),
(148,301,o),
(287,301,cs),
(388,301,o),
(450,345,o),
(482,398,c),
(489,398,l),
(482,209,o),
(419,64,o),
(215,64,cs),
(180,64,o),
(140,69,o),
(113,79,c),
(113,0,l),
(139,-8,o),
(185,-11,o),
(216,-11,cs),
(507,-11,o),
(581,217,o),
(581,459,cs)
);
},
{
closed = 1;
nodes = (
(432,735,o),
(488,618,o),
(488,522,cs),
(488,450,o),
(417,372,o),
(306,372,cs),
(198,372,o),
(147,438,o),
(147,544,cs),
(147,671,o),
(213,735,o),
(310,735,cs)
);
}
);
};
layerId = "4683CC84-822E-4D29-9A51-72FC3DB48604";
shapes = (
{
closed = 1;
nodes = (
(476,-12,o),
(573,148,o),
(573,440,cs),
(573,684,o),
(474,822,o),
(299,822,cs),
(157,822,o),
(54,712,o),
(54,558,cs),
(54,404,o),
(151,299,o),
(294,299,cs),
(376,299,o),
(446,342,o),
(481,411,c),
(485,411,l),
(479,187,o),
(417,70,o),
(300,70,cs),
(218,70,o),
(158,113,o),
(138,198,c),
(48,198,l),
(74,62,o),
(168,-12,o),
(300,-12,cs)
);
},
{
closed = 1;
nodes = (
(212,377,o),
(140,452,o),
(140,560,cs),
(140,667,o),
(208,742,o),
(303,742,cs),
(402,742,o),
(477,650,o),
(477,531,cs),
(477,442,o),
(409,377,o),
(315,377,cs)
);
}
);
userData = {
com.schriftgestaltung.Glyphs.category = Number;
com.schriftgestaltung.Glyphs.subCategory = "Decimal Digit";
};
width = 642;
},
{
background = {
shapes = (
{
closed = 1;
nodes = (
(476,-12,o),
(573,148,o),
(573,440,cs),
(573,684,o),
(474,822,o),
(299,822,cs),
(157,822,o),
(54,712,o),
(54,558,cs),
(54,404,o),
(151,299,o),
(294,299,cs),
(376,299,o),
(446,342,o),
(481,411,c),
(485,411,l),
(479,187,o),
(417,70,o),
(300,70,cs),
(218,70,o),
(158,113,o),
(138,198,c),
(48,198,l),
(74,62,o),
(168,-12,o),
(300,-12,cs)
);
},
{
closed = 1;
nodes = (
(212,377,o),
(140,452,o),
(140,560,cs),
(140,667,o),
(208,742,o),
(303,742,cs),
(402,742,o),
(477,650,o),
(477,531,cs),
(477,442,o),
(409,377,o),
(315,377,cs)
);
}
);
};
layerId = "FB8C5FF2-3B42-4CDF-AA26-B13980DDC748";
shapes = (
{
closed = 1;
nodes = (
(505,-12,o),
(623,149,o),
(623,424,cs),
(623,676,o),
(510,822,o),
(315,822,cs),
(152,822,o),
(39,708,o),
(39,544,cs),
(39,393,o),
(136,287,o),
(274,287,cs),
(340,287,o),
(396,315,o),
(432,367,c),
(436,367,l),
(430,211,o),
(386,132,o),
(315,132,cs),
(269,132,o),
(239,159,o),
(228,210,c),
(42,210,l),
(61,71,o),
(162,-12,o),
(314,-12,cs)
);
},
{
closed = 1;
nodes = (
(259,431,o),
(213,483,o),
(213,555,cs),
(213,628,o),
(255,678,o),
(319,678,cs),
(387,678,o),
(437,618,o),
(437,541,cs),
(437,477,o),
(394,431,o),
(328,431,cs)
);
}
);
userData = {
com.schriftgestaltung.Glyphs.category = Number;
com.schriftgestaltung.Glyphs.subCategory = "Decimal Digit";
};
width = 660;
}
);
unicode = 57;
},
{
color = 8;
export = 0;
glyphname = zero.dnom;
lastChange = "2024-04-18 13:59:16 +0000";
layers = (
{
layerId = "4683CC84-822E-4D29-9A51-72FC3DB48604";
shapes = (
{
closed = 1;
nodes = (
(329,-12,o),
(400,65,o),
(400,210,cs),
(400,355,o),
(329,432,o),
(230,432,cs),
(129,432,o),
(60,355,o),
(60,210,cs),
(60,65,o),
(129,-12,o),
(230,-12,cs)
);
},
{
closed = 1;
nodes = (
(171,52,o),
(134,104,o),
(134,210,cs),
(134,316,o),
(171,368,o),
(230,368,cs),
(287,368,o),
(326,316,o),
(326,210,cs),
(326,104,o),
(287,52,o),
(230,52,cs)
);
}
);
userData = {
com.schriftgestaltung.Glyphs.category = Number;
com.schriftgestaltung.Glyphs.subCategory = "Decimal Digit";
};
width = 460;
},
{
layerId = "FB8C5FF2-3B42-4CDF-AA26-B13980DDC748";
shapes = (
{
closed = 1;
nodes = (
(343,-12,o),
(418,64,o),
(418,210,cs),
(418,356,o),
(343,432,o),
(230,432,cs),
(117,432,o),
(42,356,o),
(42,210,cs),
(42,64,o),
(117,-12,o),
(230,-12,cs)
);
},
{
closed = 1;
nodes = (
(193,98,o),
(174,133,o),
(174,210,cs),
(174,287,o),
(193,322,o),
(230,322,cs),
(267,322,o),
(286,287,o),
(286,210,cs),
(286,133,o),
(267,98,o),
(230,98,cs)
);
}
);
userData = {
com.schriftgestaltung.Glyphs.category = Number;
com.schriftgestaltung.Glyphs.subCategory = "Decimal Digit";
};
width = 460;
}
);
},
{
color = 8;
export = 0;
glyphname = zero.numr;
lastChange = "2024-04-18 13:59:16 +0000";
layers = (
{
layerId = "4683CC84-822E-4D29-9A51-72FC3DB48604";
shapes = (
{
closed = 1;
nodes = (
(329,378,o),
(400,455,o),
(400,600,cs),
(400,745,o),
(329,822,o),
(230,822,cs),
(129,822,o),
(60,745,o),
(60,600,cs),
(60,455,o),
(129,378,o),
(230,378,cs)
);
},
{
closed = 1;
nodes = (
(171,442,o),
(134,494,o),
(134,600,cs),
(134,706,o),
(171,758,o),
(230,758,cs),
(287,758,o),
(326,706,o),
(326,600,cs),
(326,494,o),
(287,442,o),
(230,442,cs)
);
}
);
userData = {
com.schriftgestaltung.Glyphs.category = Number;
com.schriftgestaltung.Glyphs.subCategory = "Decimal Digit";
};
width = 460;
},
{
layerId = "FB8C5FF2-3B42-4CDF-AA26-B13980DDC748";
shapes = (
{
closed = 1;
nodes = (
(343,378,o),
(418,454,o),
(418,600,cs),
(418,746,o),
(343,822,o),
(230,822,cs),
(117,822,o),
(42,746,o),
(42,600,cs),
(42,454,o),
(117,378,o),
(230,378,cs)
);
},
{
closed = 1;
nodes = (
(193,488,o),
(174,523,o),
(174,600,cs),
(174,677,o),
(193,712,o),
(230,712,cs),
(267,712,o),
(286,677,o),
(286,600,cs),
(286,523,o),
(267,488,o),
(230,488,cs)
);
}
);
userData = {
com.schriftgestaltung.Glyphs.category = Number;
com.schriftgestaltung.Glyphs.subCategory = "Decimal Digit";
};
width = 460;
}
);
},
{
export = 0;
glyphname = fraction;
lastChange = "2024-04-18 11:30:49 +0000";
layers = (
{
layerId = "4683CC84-822E-4D29-9A51-72FC3DB48604";
shapes = (
{
closed = 1;
nodes = (
(-154,0,l),
(292,810,l),
(214,810,l),
(-232,0,l)
);
}
);
userData = {
com.schriftgestaltung.Glyphs.category = Symbol;
com.schriftgestaltung.Glyphs.subCategory = Math;
};
width = 60;
},
{
layerId = "FB8C5FF2-3B42-4CDF-AA26-B13980DDC748";
shapes = (
{
closed = 1;
nodes = (
(-88,0,l),
(358,810,l),
(208,810,l),
(-238,0,l)
);
}
);
userData = {
com.schriftgestaltung.Glyphs.category = Symbol;
com.schriftgestaltung.Glyphs.subCategory = Math;
};
width = 120;
}
);
unicode = 8260;
},
{
glyphname = .notdef;
lastChange = "2024-04-18 17:00:15 +0000";
layers = (
{
layerId = "4683CC84-822E-4D29-9A51-72FC3DB48604";
shapes = (
{
closed = 1;
nodes = (
(600,0,l),
(600,810,l),
(120,810,l),
(120,0,l)
);
},
{
closed = 1;
nodes = (
(180,750,l),
(540,750,l),
(540,60,l),
(180,60,l)
);
}
);
userData = {
com.schriftgestaltung.Glyphs.category = Separator;
com.schriftgestaltung.Glyphs.subCategory = Other;
};
width = 720;
},
{
layerId = "FB8C5FF2-3B42-4CDF-AA26-B13980DDC748";
shapes = (
{
closed = 1;
nodes = (
(600,0,l),
(600,810,l),
(120,810,l),
(120,0,l)
);
},
{
closed = 1;
nodes = (
(180,750,l),
(540,750,l),
(540,60,l),
(180,60,l)
);
}
);
userData = {
com.schriftgestaltung.Glyphs.category = Separator;
com.schriftgestaltung.Glyphs.subCategory = Other;
};
width = 720;
}
);
},
{
color = 9;
glyphname = period;
kernLeft = period.right;
kernRight = period.left;
lastChange = "2024-04-18 13:40:56 +0000";
layers = (
{
layerId = "4683CC84-822E-4D29-9A51-72FC3DB48604";
shapes = (
{
closed = 1;
nodes = (
(189,0,l),
(190,120,l),
(70,120,l),
(70,0,l)
);
}
);
userData = {
com.schriftgestaltung.Glyphs.category = Punctuation;
com.schriftgestaltung.Glyphs.subCategory = Other;
};
width = 260;
},
{
layerId = "FB8C5FF2-3B42-4CDF-AA26-B13980DDC748";
shapes = (
{
closed = 1;
nodes = (
(249,0,l),
(249,192,l),
(51,192,l),
(51,0,l)
);
}
);
userData = {
com.schriftgestaltung.Glyphs.category = Punctuation;
com.schriftgestaltung.Glyphs.subCategory = Other;
};
width = 300;
}
);
unicode = 46;
},
{
color = 9;
glyphname = period.ss01;
kernLeft = period.right;
kernRight = period.left;
lastChange = "2024-04-18 15:04:43 +0000";
layers = (
{
layerId = "4683CC84-822E-4D29-9A51-72FC3DB48604";
shapes = (
{
closed = 1;
nodes = (
(170,-12,o),
(202,20,o),
(202,60,cs),
(202,100,o),
(170,132,o),
(130,132,cs),
(90,132,o),
(58,100,o),
(58,60,cs),
(58,20,o),
(90,-12,o),
(130,-12,cs)
);
}
);
userData = {
com.schriftgestaltung.Glyphs.category = Punctuation;
com.schriftgestaltung.Glyphs.subCategory = Other;
};
width = 260;
},
{
layerId = "FB8C5FF2-3B42-4CDF-AA26-B13980DDC748";
shapes = (
{
closed = 1;
nodes = (
(210,-12,o),
(258,36,o),
(258,96,cs),
(258,156,o),
(210,204,o),
(150,204,cs),
(90,204,o),
(42,156,o),
(42,96,cs),
(42,36,o),
(90,-12,o),
(150,-12,cs)
);
}
);
userData = {
com.schriftgestaltung.Glyphs.category = Punctuation;
com.schriftgestaltung.Glyphs.subCategory = Other;
};
width = 300;
}
);
},
{
color = 9;
glyphname = comma;
kernLeft = period.right;
kernRight = period.left;
lastChange = "2024-04-18 10:44:30 +0000";
layers = (
{
layerId = "4683CC84-822E-4D29-9A51-72FC3DB48604";
shapes = (
{
closed = 1;
nodes = (
(76,-158,ls),
(149,-158,o),
(190,-116,o),
(190,-44,cs),
(190,120,l),
(70,120,l),
(70,0,l),
(124,0,l),
(124,-44,ls),
(124,-80,o),
(104,-98,o),
(70,-98,cs),
(34,-98,l),
(34,-158,l)
);
}
);
userData = {
com.schriftgestaltung.Glyphs.category = Punctuation;
com.schriftgestaltung.Glyphs.subCategory = Other;
};
width = 260;
},
{
layerId = "FB8C5FF2-3B42-4CDF-AA26-B13980DDC748";
shapes = (
{
closed = 1;
nodes = (
(99,-180,ls),
(201,-180,o),
(249,-123,o),
(249,-30,cs),
(249,192,l),
(51,192,l),
(51,0,l),
(141,0,l),
(141,-22,ls),
(141,-53,o),
(125,-76,o),
(87,-76,cs),
(39,-76,l),
(39,-180,l)
);
}
);
userData = {
com.schriftgestaltung.Glyphs.category = Punctuation;
com.schriftgestaltung.Glyphs.subCategory = Other;
};
width = 300;
},
{
associatedMasterId = "4683CC84-822E-4D29-9A51-72FC3DB48604";
layerId = "F4AA5217-D89E-473B-A604-93743C3B73BF";
name = "18 Apr 24 at 11:00";
shapes = (
{
closed = 1;
nodes = (
(102,130,l),
(91,51,o),
(68,-57,o),
(45,-145,c),
(113,-145,l),
(149,-65,o),
(187,38,o),
(207,118,c),
(200,130,l)
);
}
);
userData = {
com.schriftgestaltung.Glyphs.category = Punctuation;
com.schriftgestaltung.Glyphs.subCategory = Other;
};
width = 290;
}
);
unicode = 44;
},
{
export = 0;
glyphname = exclam;
lastChange = "2024-04-04 18:11:18 +0000";
layers = (
{
layerId = "4683CC84-822E-4D29-9A51-72FC3DB48604";
shapes = (
{
closed = 1;
nodes = (
(203,801,l),
(93,801,l),
(118,222,l),
(178,222,l)
);
},
{
closed = 1;
nodes = (
(82,7,o),
(110,-15,o),
(147,-15,cs),
(183,-15,o),
(212,7,o),
(212,57,cs),
(212,108,o),
(183,128,o),
(147,128,cs),
(110,128,o),
(82,108,o),
(82,57,cs)
);
}
);
userData = {
com.schriftgestaltung.Glyphs.category = Punctuation;
com.schriftgestaltung.Glyphs.subCategory = Other;
};
width = 296;
},
{
layerId = "FB8C5FF2-3B42-4CDF-AA26-B13980DDC748";
shapes = (
{
closed = 1;
nodes = (
(203,801,l),
(93,801,l),
(118,222,l),
(178,222,l)
);
},
{
closed = 1;
nodes = (
(82,7,o),
(110,-15,o),
(147,-15,cs),
(183,-15,o),
(212,7,o),
(212,57,cs),
(212,108,o),
(183,128,o),
(147,128,cs),
(110,128,o),
(82,108,o),
(82,57,cs)
);
}
);
userData = {
com.schriftgestaltung.Glyphs.category = Punctuation;
com.schriftgestaltung.Glyphs.subCategory = Other;
};
width = 296;
}
);
unicode = 33;
},
{
export = 0;
glyphname = exclamdown;
lastChange = "2024-04-04 18:11:18 +0000";
layers = (
{
layerId = "4683CC84-822E-4D29-9A51-72FC3DB48604";
shapes = (
{
closed = 1;
nodes = (
(91,-205,l),
(202,-205,l),
(177,373,l),
(116,373,l)
);
},
{
closed = 1;
nodes = (
(212,589,o),
(184,611,o),
(147,611,cs),
(111,611,o),
(82,589,o),
(82,539,cs),
(82,488,o),
(111,469,o),
(147,469,cs),
(184,469,o),
(212,488,o),
(212,539,cs)
);
}
);
userData = {
com.schriftgestaltung.Glyphs.category = Punctuation;
com.schriftgestaltung.Glyphs.subCategory = Other;
};
width = 296;
},
{
layerId = "FB8C5FF2-3B42-4CDF-AA26-B13980DDC748";
shapes = (
{
closed = 1;
nodes = (
(91,-205,l),
(202,-205,l),
(177,373,l),
(116,373,l)
);
},
{
closed = 1;
nodes = (
(212,589,o),
(184,611,o),
(147,611,cs),
(111,611,o),
(82,589,o),
(82,539,cs),
(82,488,o),
(111,469,o),
(147,469,cs),
(184,469,o),
(212,488,o),
(212,539,cs)
);
}
);
userData = {
com.schriftgestaltung.Glyphs.category = Punctuation;
com.schriftgestaltung.Glyphs.subCategory = Other;
};
width = 296;
}
);
unicode = 161;
},
{
export = 0;
glyphname = question;
lastChange = "2024-04-04 18:11:18 +0000";
layers = (
{
layerId = "4683CC84-822E-4D29-9A51-72FC3DB48604";
shapes = (
{
closed = 1;
nodes = (
(231,222,l),
(231,240,ls),
(231,308,o),
(246,339,o),
(319,400,cs),
(401,467,o),
(453,514,o),
(453,616,cs),
(453,738,o),
(372,812,o),
(232,812,cs),
(145,812,o),
(77,790,o),
(17,759,c),
(49,686,l),
(101,711,o),
(154,732,o),
(226,732,cs),
(315,732,o),
(366,691,o),
(366,614,cs),
(366,543,o),
(337,514,o),
(252,443,cs),
(179,382,o),
(158,338,o),
(158,251,cs),
(158,222,l)
);
},
{
closed = 1;
nodes = (
(134,7,o),
(160,-15,o),
(198,-15,cs),
(234,-15,o),
(263,7,o),
(263,57,cs),
(263,108,o),
(234,128,o),
(198,128,cs),
(160,128,o),
(134,108,o),
(134,57,cs)
);
}
);
userData = {
com.schriftgestaltung.Glyphs.category = Punctuation;
com.schriftgestaltung.Glyphs.subCategory = Other;
};
width = 485;
},
{
layerId = "FB8C5FF2-3B42-4CDF-AA26-B13980DDC748";
shapes = (
{
closed = 1;
nodes = (
(231,222,l),
(231,240,ls),
(231,308,o),
(246,339,o),
(319,400,cs),
(401,467,o),
(453,514,o),
(453,616,cs),
(453,738,o),
(372,812,o),
(232,812,cs),
(145,812,o),
(77,790,o),
(17,759,c),
(49,686,l),
(101,711,o),
(154,732,o),
(226,732,cs),
(315,732,o),
(366,691,o),
(366,614,cs),
(366,543,o),
(337,514,o),
(252,443,cs),
(179,382,o),
(158,338,o),
(158,251,cs),
(158,222,l)
);
},
{
closed = 1;
nodes = (
(134,7,o),
(160,-15,o),
(198,-15,cs),
(234,-15,o),
(263,7,o),
(263,57,cs),
(263,108,o),
(234,128,o),
(198,128,cs),
(160,128,o),
(134,108,o),
(134,57,cs)
);
}
);
userData = {
com.schriftgestaltung.Glyphs.category = Punctuation;
com.schriftgestaltung.Glyphs.subCategory = Other;
};
width = 485;
}
);
unicode = 63;
},
{
export = 0;
glyphname = periodcentered.loclCAT;
lastChange = "2024-04-18 14:00:01 +0000";
layers = (
{
anchors = (
{
name = _center;
pos = (300,360);
}
);
layerId = "4683CC84-822E-4D29-9A51-72FC3DB48604";
shapes = (
{
closed = 1;
nodes = (
(333,300,o),
(360,327,o),
(360,360,cs),
(360,393,o),
(333,420,o),
(300,420,cs),
(267,420,o),
(240,393,o),
(240,360,cs),
(240,327,o),
(267,300,o),
(300,300,cs)
);
}
);
width = 600;
},
{
anchors = (
{
name = _center;
pos = (300,360);
}
);
layerId = "FB8C5FF2-3B42-4CDF-AA26-B13980DDC748";
shapes = (
{
closed = 1;
nodes = (
(355,261,o),
(399,305,o),
(399,360,cs),
(399,415,o),
(355,459,o),
(300,459,cs),
(245,459,o),
(201,415,o),
(201,360,cs),
(201,305,o),
(245,261,o),
(300,261,cs)
);
}
);
width = 600;
}
);
},
{
export = 0;
glyphname = periodcentered.loclCAT.case;
lastChange = "2024-04-18 14:00:01 +0000";
layers = (
{
anchors = (
{
name = _center;
pos = (300,360);
}
);
layerId = "4683CC84-822E-4D29-9A51-72FC3DB48604";
shapes = (
{
closed = 1;
nodes = (
(333,300,o),
(360,327,o),
(360,360,cs),
(360,393,o),
(333,420,o),
(300,420,cs),
(267,420,o),
(240,393,o),
(240,360,cs),
(240,327,o),
(267,300,o),
(300,300,cs)
);
}
);
width = 600;
},
{
anchors = (
{
name = _center;
pos = (300,360);
}
);
layerId = "FB8C5FF2-3B42-4CDF-AA26-B13980DDC748";
shapes = (
{
closed = 1;
nodes = (
(355,261,o),
(399,305,o),
(399,360,cs),
(399,415,o),
(355,459,o),
(300,459,cs),
(245,459,o),
(201,415,o),
(201,360,cs),
(201,305,o),
(245,261,o),
(300,261,cs)
);
}
);
width = 600;
}
);
},
{
export = 0;
glyphname = bullet;
lastChange = "2024-04-04 18:11:18 +0000";
layers = (
{
layerId = "4683CC84-822E-4D29-9A51-72FC3DB48604";
shapes = (
{
closed = 1;
nodes = (
(94,317,o),
(143,278,o),
(211,278,cs),
(278,278,o),
(328,317,o),
(328,410,cs),
(328,504,o),
(278,541,o),
(211,541,cs),
(143,541,o),
(94,504,o),
(94,410,cs)
);
}
);
userData = {
com.schriftgestaltung.Glyphs.category = Punctuation;
com.schriftgestaltung.Glyphs.subCategory = Other;
};
width = 421;
},
{
layerId = "FB8C5FF2-3B42-4CDF-AA26-B13980DDC748";
shapes = (
{
closed = 1;
nodes = (
(94,317,o),
(143,278,o),
(211,278,cs),
(278,278,o),
(328,317,o),
(328,410,cs),
(328,504,o),
(278,541,o),
(211,541,cs),
(143,541,o),
(94,504,o),
(94,410,cs)
);
}
);
userData = {
com.schriftgestaltung.Glyphs.category = Punctuation;
com.schriftgestaltung.Glyphs.subCategory = Other;
};
width = 421;
}
);
unicode = 8226;
},
{
export = 0;
glyphname = asterisk;
lastChange = "2024-04-04 18:11:18 +0000";
layers = (
{
layerId = "4683CC84-822E-4D29-9A51-72FC3DB48604";
shapes = (
{
closed = 1;
nodes = (
(256,852,l),
(277,635,l),
(64,698,l),
(49,602,l),
(255,580,l),
(122,402,l),
(214,354,l),
(305,549,l),
(404,354,l),
(493,402,l),
(359,580,l),
(566,602,l),
(552,698,l),
(336,635,l),
(356,852,l)
);
}
);
userData = {
com.schriftgestaltung.Glyphs.category = Punctuation;
com.schriftgestaltung.Glyphs.subCategory = Other;
};
width = 618;
},
{
layerId = "FB8C5FF2-3B42-4CDF-AA26-B13980DDC748";
shapes = (
{
closed = 1;
nodes = (
(256,852,l),
(277,635,l),
(64,698,l),
(49,602,l),
(255,580,l),
(122,402,l),
(214,354,l),
(305,549,l),
(404,354,l),
(493,402,l),
(359,580,l),
(566,602,l),
(552,698,l),
(336,635,l),
(356,852,l)
);
}
);
userData = {
com.schriftgestaltung.Glyphs.category = Punctuation;
com.schriftgestaltung.Glyphs.subCategory = Other;
};
width = 618;
}
);
unicode = 42;
},
{
export = 0;
glyphname = numbersign;
lastChange = "2024-04-04 18:11:18 +0000";
layers = (
{
layerId = "4683CC84-822E-4D29-9A51-72FC3DB48604";
shapes = (
{
closed = 1;
nodes = (
(695,492,l),
(695,561,l),
(550,561,l),
(596,801,l),
(524,801,l),
(478,561,l),
(310,561,l),
(355,801,l),
(280,801,l),
(235,561,l),
(70,561,l),
(70,492,l),
(222,492,l),
(186,306,l),
(28,306,l),
(28,237,l),
(172,237,l),
(129,0,l),
(202,0,l),
(246,237,l),
(413,237,l),
(367,0,l),
(441,0,l),
(487,237,l),
(656,237,l),
(656,306,l),
(501,306,l),
(537,492,l)
);
},
{
closed = 1;
nodes = (
(296,492,l),
(463,492,l),
(427,306,l),
(260,306,l)
);
}
);
userData = {
com.schriftgestaltung.Glyphs.category = Punctuation;
com.schriftgestaltung.Glyphs.subCategory = Other;
};
width = 725;
},
{
layerId = "FB8C5FF2-3B42-4CDF-AA26-B13980DDC748";
shapes = (
{
closed = 1;
nodes = (
(695,492,l),
(695,561,l),
(550,561,l),
(596,801,l),
(524,801,l),
(478,561,l),
(310,561,l),
(355,801,l),
(280,801,l),
(235,561,l),
(70,561,l),
(70,492,l),
(222,492,l),
(186,306,l),
(28,306,l),
(28,237,l),
(172,237,l),
(129,0,l),
(202,0,l),
(246,237,l),
(413,237,l),
(367,0,l),
(441,0,l),
(487,237,l),
(656,237,l),
(656,306,l),
(501,306,l),
(537,492,l)
);
},
{
closed = 1;
nodes = (
(296,492,l),
(463,492,l),
(427,306,l),
(260,306,l)
);
}
);
userData = {
com.schriftgestaltung.Glyphs.category = Punctuation;
com.schriftgestaltung.Glyphs.subCategory = Other;
};
width = 725;
}
);
unicode = 35;
},
{
export = 0;
glyphname = slash;
lastChange = "2024-04-17 17:48:02 +0000";
layers = (
{
layerId = "4683CC84-822E-4D29-9A51-72FC3DB48604";
shapes = (
{
closed = 1;
nodes = (
(104,0,l),
(402,810,l),
(316,810,l),
(18,0,l)
);
}
);
userData = {
com.schriftgestaltung.Glyphs.category = Punctuation;
com.schriftgestaltung.Glyphs.subCategory = Other;
};
width = 420;
},
{
layerId = "FB8C5FF2-3B42-4CDF-AA26-B13980DDC748";
shapes = (
{
closed = 1;
nodes = (
(310,801,l),
(11,0,l),
(101,0,l),
(399,801,l)
);
}
);
userData = {
com.schriftgestaltung.Glyphs.category = Punctuation;
com.schriftgestaltung.Glyphs.subCategory = Other;
};
width = 412;
}
);
unicode = 47;
},
{
export = 0;
glyphname = backslash;
lastChange = "2024-04-04 18:11:18 +0000";
layers = (
{
layerId = "4683CC84-822E-4D29-9A51-72FC3DB48604";
shapes = (
{
closed = 1;
nodes = (
(11,801,l),
(310,0,l),
(400,0,l),
(101,801,l)
);
}
);
userData = {
com.schriftgestaltung.Glyphs.category = Punctuation;
com.schriftgestaltung.Glyphs.subCategory = Other;
};
width = 412;
},
{
layerId = "FB8C5FF2-3B42-4CDF-AA26-B13980DDC748";
shapes = (
{
closed = 1;
nodes = (
(11,801,l),
(310,0,l),
(400,0,l),
(101,801,l)
);
}
);
userData = {
com.schriftgestaltung.Glyphs.category = Punctuation;
com.schriftgestaltung.Glyphs.subCategory = Other;
};
width = 412;
}
);
unicode = 92;
},
{
color = 9;
glyphname = hyphen;
kernLeft = hyphen.right;
kernRight = hyphen.left;
lastChange = "2024-04-18 11:06:24 +0000";
layers = (
{
layerId = "4683CC84-822E-4D29-9A51-72FC3DB48604";
shapes = (
{
closed = 1;
nodes = (
(318,260,l),
(318,340,l),
(42,340,l),
(42,260,l)
);
}
);
userData = {
com.schriftgestaltung.Glyphs.category = Punctuation;
com.schriftgestaltung.Glyphs.subCategory = Dash;
};
width = 360;
},
{
layerId = "FB8C5FF2-3B42-4CDF-AA26-B13980DDC748";
shapes = (
{
closed = 1;
nodes = (
(358,222,l),
(358,378,l),
(42,378,l),
(42,222,l)
);
}
);
userData = {
com.schriftgestaltung.Glyphs.category = Punctuation;
com.schriftgestaltung.Glyphs.subCategory = Dash;
};
width = 400;
}
);
unicode = 45;
},
{
color = 9;
glyphname = endash;
kernLeft = hyphen.right;
kernRight = hyphen.left;
lastChange = "2024-04-18 11:06:24 +0000";
layers = (
{
layerId = "4683CC84-822E-4D29-9A51-72FC3DB48604";
shapes = (
{
closed = 1;
nodes = (
(552,261,l),
(552,339,l),
(48,339,l),
(48,261,l)
);
}
);
userData = {
com.schriftgestaltung.Glyphs.category = Punctuation;
com.schriftgestaltung.Glyphs.subCategory = Dash;
};
width = 600;
},
{
layerId = "FB8C5FF2-3B42-4CDF-AA26-B13980DDC748";
shapes = (
{
closed = 1;
nodes = (
(552,224,l),
(552,376,l),
(48,376,l),
(48,224,l)
);
}
);
userData = {
com.schriftgestaltung.Glyphs.category = Punctuation;
com.schriftgestaltung.Glyphs.subCategory = Dash;
};
width = 600;
}
);
unicode = 8211;
},
{
color = 9;
glyphname = emdash;
kernLeft = hyphen.right;
kernRight = hyphen.left;
lastChange = "2024-04-18 11:06:24 +0000";
layers = (
{
layerId = "4683CC84-822E-4D29-9A51-72FC3DB48604";
shapes = (
{
closed = 1;
nodes = (
(1152,259,l),
(1152,341,l),
(48,341,l),
(48,259,l)
);
}
);
userData = {
com.schriftgestaltung.Glyphs.category = Punctuation;
com.schriftgestaltung.Glyphs.subCategory = Dash;
};
width = 1200;
},
{
layerId = "FB8C5FF2-3B42-4CDF-AA26-B13980DDC748";
shapes = (
{
closed = 1;
nodes = (
(1152,219,l),
(1152,381,l),
(48,381,l),
(48,219,l)
);
}
);
userData = {
com.schriftgestaltung.Glyphs.category = Punctuation;
com.schriftgestaltung.Glyphs.subCategory = Dash;
};
width = 1200;
}
);
unicode = 8212;
},
{
color = 9;
glyphname = underscore;
lastChange = "2024-04-18 16:58:42 +0000";
layers = (
{
layerId = "4683CC84-822E-4D29-9A51-72FC3DB48604";
shapes = (
{
closed = 1;
nodes = (
(606,-84,l),
(-6,-84,l),
(-6,-156,l),
(606,-156,l)
);
}
);
userData = {
com.schriftgestaltung.Glyphs.category = Punctuation;
com.schriftgestaltung.Glyphs.subCategory = Other;
};
width = 600;
},
{
layerId = "FB8C5FF2-3B42-4CDF-AA26-B13980DDC748";
shapes = (
{
closed = 1;
nodes = (
(606,-69,l),
(-6,-69,l),
(-6,-171,l),
(606,-171,l)
);
}
);
userData = {
com.schriftgestaltung.Glyphs.category = Punctuation;
com.schriftgestaltung.Glyphs.subCategory = Other;
};
width = 600;
}
);
unicode = 95;
},
{
export = 0;
glyphname = parenleft;
kernRight = paren.left;
lastChange = "2024-04-04 18:11:18 +0000";
layers = (
{
layerId = "4683CC84-822E-4D29-9A51-72FC3DB48604";
shapes = (
{
closed = 1;
nodes = (
(45,125,o),
(97,-47,o),
(210,-177,c),
(296,-177,l),
(191,-38,o),
(137,133,o),
(137,308,cs),
(137,487,o),
(191,662,o),
(297,801,c),
(210,801,l),
(97,666,o),
(45,492,o),
(45,307,cs)
);
}
);
userData = {
com.schriftgestaltung.Glyphs.category = Punctuation;
com.schriftgestaltung.Glyphs.subCategory = Parenthesis;
};
width = 331;
},
{
layerId = "FB8C5FF2-3B42-4CDF-AA26-B13980DDC748";
shapes = (
{
closed = 1;
nodes = (
(45,125,o),
(97,-47,o),
(210,-177,c),
(296,-177,l),
(191,-38,o),
(137,133,o),
(137,308,cs),
(137,487,o),
(191,662,o),
(297,801,c),
(210,801,l),
(97,666,o),
(45,492,o),
(45,307,cs)
);
}
);
userData = {
com.schriftgestaltung.Glyphs.category = Punctuation;
com.schriftgestaltung.Glyphs.subCategory = Parenthesis;
};
width = 331;
}
);
unicode = 40;
},
{
export = 0;
glyphname = parenright;
kernLeft = Paren.right;
lastChange = "2024-04-04 18:11:18 +0000";
layers = (
{
layerId = "4683CC84-822E-4D29-9A51-72FC3DB48604";
shapes = (
{
closed = 1;
nodes = (
(286,492,o),
(233,666,o),
(121,801,c),
(34,801,l),
(140,661,o),
(194,487,o),
(194,309,cs),
(194,134,o),
(140,-38,o),
(35,-177,c),
(121,-177,l),
(233,-47,o),
(286,125,o),
(286,308,cs)
);
}
);
userData = {
com.schriftgestaltung.Glyphs.category = Punctuation;
com.schriftgestaltung.Glyphs.subCategory = Parenthesis;
};
width = 331;
},
{
layerId = "FB8C5FF2-3B42-4CDF-AA26-B13980DDC748";
shapes = (
{
closed = 1;
nodes = (
(286,492,o),
(233,666,o),
(121,801,c),
(34,801,l),
(140,661,o),
(194,487,o),
(194,309,cs),
(194,134,o),
(140,-38,o),
(35,-177,c),
(121,-177,l),
(233,-47,o),
(286,125,o),
(286,308,cs)
);
}
);
userData = {
com.schriftgestaltung.Glyphs.category = Punctuation;
com.schriftgestaltung.Glyphs.subCategory = Parenthesis;
};
width = 331;
}
);
unicode = 41;
},
{
export = 0;
glyphname = braceleft;
kernRight = paren.left;
lastChange = "2024-04-04 18:11:18 +0000";
layers = (
{
layerId = "4683CC84-822E-4D29-9A51-72FC3DB48604";
shapes = (
{
closed = 1;
nodes = (
(384,-102,l),
(302,-101,o),
(256,-70,o),
(256,4,cs),
(256,172,ls),
(256,249,o),
(220,296,o),
(138,309,c),
(138,316,l),
(218,330,o),
(256,377,o),
(256,453,cs),
(256,618,ls),
(256,692,o),
(303,724,o),
(384,726,c),
(384,801,l),
(254,801,o),
(166,743,o),
(166,626,cs),
(166,458,ls),
(166,380,o),
(120,351,o),
(31,350,c),
(31,274,l),
(120,274,o),
(166,244,o),
(166,166,cs),
(166,-2,ls),
(166,-119,o),
(248,-176,o),
(384,-177,c)
);
}
);
userData = {
com.schriftgestaltung.Glyphs.category = Punctuation;
com.schriftgestaltung.Glyphs.subCategory = Parenthesis;
};
width = 420;
},
{
layerId = "FB8C5FF2-3B42-4CDF-AA26-B13980DDC748";
shapes = (
{
closed = 1;
nodes = (
(384,-102,l),
(302,-101,o),
(256,-70,o),
(256,4,cs),
(256,172,ls),
(256,249,o),
(220,296,o),
(138,309,c),
(138,316,l),
(218,330,o),
(256,377,o),
(256,453,cs),
(256,618,ls),
(256,692,o),
(303,724,o),
(384,726,c),
(384,801,l),
(254,801,o),
(166,743,o),
(166,626,cs),
(166,458,ls),
(166,380,o),
(120,351,o),
(31,350,c),
(31,274,l),
(120,274,o),
(166,244,o),
(166,166,cs),
(166,-2,ls),
(166,-119,o),
(248,-176,o),
(384,-177,c)
);
}
);
userData = {
com.schriftgestaltung.Glyphs.category = Punctuation;
com.schriftgestaltung.Glyphs.subCategory = Parenthesis;
};
width = 420;
}
);
unicode = 123;
},
{
export = 0;
glyphname = braceright;
kernLeft = Paren.right;
lastChange = "2024-04-04 18:11:18 +0000";
layers = (
{
layerId = "4683CC84-822E-4D29-9A51-72FC3DB48604";
shapes = (
{
closed = 1;
nodes = (
(166,-177,o),
(254,-119,o),
(254,-3,cs),
(254,167,ls),
(254,244,o),
(301,274,o),
(390,274,c),
(390,350,l),
(301,350,o),
(254,380,o),
(254,459,cs),
(254,625,ls),
(254,743,o),
(172,800,o),
(37,801,c),
(37,726,l),
(119,725,o),
(164,693,o),
(164,618,cs),
(164,452,ls),
(164,376,o),
(202,329,o),
(283,315,c),
(283,308,l),
(203,295,o),
(164,248,o),
(164,171,cs),
(164,5,ls),
(164,-69,o),
(117,-100,o),
(37,-102,c),
(37,-177,l)
);
}
);
userData = {
com.schriftgestaltung.Glyphs.category = Punctuation;
com.schriftgestaltung.Glyphs.subCategory = Parenthesis;
};
width = 420;
},
{
layerId = "FB8C5FF2-3B42-4CDF-AA26-B13980DDC748";
shapes = (
{
closed = 1;
nodes = (
(166,-177,o),
(254,-119,o),
(254,-3,cs),
(254,167,ls),
(254,244,o),
(301,274,o),
(390,274,c),
(390,350,l),
(301,350,o),
(254,380,o),
(254,459,cs),
(254,625,ls),
(254,743,o),
(172,800,o),
(37,801,c),
(37,726,l),
(119,725,o),
(164,693,o),
(164,618,cs),
(164,452,ls),
(164,376,o),
(202,329,o),
(283,315,c),
(283,308,l),
(203,295,o),
(164,248,o),
(164,171,cs),
(164,5,ls),
(164,-69,o),
(117,-100,o),
(37,-102,c),
(37,-177,l)
);
}
);
userData = {
com.schriftgestaltung.Glyphs.category = Punctuation;
com.schriftgestaltung.Glyphs.subCategory = Parenthesis;
};
width = 420;
}
);
unicode = 125;
},
